<?xml version="1.0" encoding="utf-8"?>
<!-- Generator: Adobe Illustrator 28.0.0, SVG Export Plug-In . SVG Version: 6.00 Build 0)  -->
<svg version="1.1" id="圖層_1" xmlns="http://www.w3.org/2000/svg" xmlns:xlink="http://www.w3.org/1999/xlink" x="0px" y="0px"
	 viewBox="0 0 970 420" style="enable-background:new 0 0 970 420;" xml:space="preserve">
<style type="text/css">
	.st0{fill:#2686D1;}
	.st1{fill:#F5A122;}
</style>
<g>
	<g>
		<path class="st0" d="M252.9,71.9L0,349.1h64.6l20-22c23.3-23.2,78.5-55.7,163.2-75.1h-94.5l96.1-96.2l-1.5,96.2v97h31.3V71.9
			H252.9z"/>
		<path class="st1" d="M365.9,237.7c-7.8-8.5-24.8-18.8-53.3,2.4l28.6-36.9l-28.6-40.1v77.1v77.2l-24,30.9V70.9l109.2,139.6
			l-16.3,21.1L371.1,245L365.9,237.7"/>
	</g>
	<g>
		<path class="st0" d="M464.3,71.8c11.1,6.8,23.1,15.2,36.1,25.1l-7.8,10.3c-4.9-3.9-9.5-7.6-13.5-10.7v8.3h-33.6v-5.2
			c-6.3,5.2-13.4,10.4-21.2,15.7l-7.8-10.9c15.8-9.9,29.1-20.7,39.6-32.6H464.3z M492.8,200.8h-12.6v-4.9h-26.5v5.1h-12.1v-38.9
			c-2.7,14.7-7.5,27.8-14.4,39.1l-10.4-9.3c9.2-14,13.8-31.9,14-53.9v-26.4h60.7v41.7h-48.5c-0.3,2.8-0.7,5.5-1.1,8h51.1V200.8z
			 M443.7,137.9c0,2-0.1,3.8-0.1,5.8h35v-6.9h-34.8V137.9z M478.5,121.3h-34.8v6.8h34.8V121.3z M477,94.9c-6.1-4.7-11.3-8.3-15.5-11
			c-3.2,3.7-6.8,7.3-10.7,11H477z M480.2,185.5v-13.7h-26.5v13.7H480.2z M507.9,200l-3.1-13c6.8,0.4,13.3,0.7,19.5,0.7
			c3.4,0,5.1-1.7,5.1-5.1V71.8h13.3V186c0,9.3-4.7,14-13.7,14H507.9z M517.8,81.2v90.3h-12.8V81.2H517.8z"/>
		<path class="st0" d="M617.6,71.2v20.5h11.7V71.2h13v20.5h9.9c3.8-5.9,7.1-12,9.9-18.5l12.4,4.7c-3,5.2-5.9,9.9-8.9,13.8h20.2v11.7
			h-39.4l10.9,3.8c-2,3.2-3.9,6.2-6.2,9h28.2v11.7h-48.7v7.8h42v11.1h-42v7.8h55v11.8h-55v35.4h-13.5v-35.4h-55v-11.8h55v-7.8h-42
			v-11.1h42v-7.8h-48.7v-11.7h28.2c-1.8-3.4-3.9-6.5-6.2-9.5l9.2-3.4h-37.7V91.7h20c-2.3-4.9-5.1-9.5-8.2-13.7l12.6-4.7
			c3.1,5.1,5.9,11.3,8.6,18.3h9.7V71.2H617.6z M603.8,176.9c-8.6,8.7-19.3,16.4-32,22.9l-8.3-10.7c12.4-5.6,23-12.4,31.5-20
			L603.8,176.9z M603.8,103.4c2.4,3.8,4.7,8,6.8,12.8h25.7c3-4.2,5.5-8.5,7.8-12.8H603.8z M683.8,190.1l-9.6,9.6
			c-7.1-6.9-16.8-14.2-29.5-22.1l8.6-8.3C665.4,176.3,675.6,183.2,683.8,190.1z"/>
		<path class="st0" d="M752.1,84.8V70.9h13.5v13.8h31.3v12.6h-31.3V111h16.6c13.3-9.3,24.5-19.8,33.9-31l10,7.5
			c-7.2,8.7-14.8,16.5-23,23.6h25.4v12.7h-42.2c-1.7,1.1-3.4,2.1-5.1,3.2c-5.2,3.1-11.1,6.3-17.9,9.6h47.8v65.2h-13.4v-5.4h-56.8
			v5.4h-13.5v-49.9c-7.1,2.5-14.4,5.2-22,7.9l-5.5-12.4c22-5.1,42.7-12.8,61.9-23.6H702V111h50.1V97.3h-38.4V84.8H752.1z
			 M797.8,148.1h-56.8v12.1h56.8V148.1z M740.9,184.5h56.8v-12.7h-56.8V184.5z"/>
	</g>
	<g>
		<path class="st0" d="M471.6,313.2c-11.7,13.1-26.1,24.5-43.2,34.4l-9.3-12.1c16.8-9,30.9-19.5,42.3-31.5L471.6,313.2z M451,244.8
			v-27.9h13.4v27.9h36.7v-27.4h13.4v27.4h24.7v13h-24.7v30.6h31.6v13.1H419.4v-13.1H451v-30.6h-24.5v-13H451z M501.1,288.4v-30.6
			h-36.7v30.6H501.1z M546.5,336.8l-10.7,10.7c-9.6-10.4-23-21.6-40.2-33.7l9.7-9.5C521.6,315.3,535.2,326.1,546.5,336.8z"/>
		<path class="st0" d="M605.4,217.9c11.1,6.8,23.1,15.2,36.1,25.1l-7.8,10.3c-4.9-3.9-9.5-7.6-13.5-10.7v8.3h-33.6v-5.2
			c-6.3,5.2-13.4,10.4-21.2,15.7l-7.8-10.9c15.8-9.9,29.1-20.7,39.6-32.6H605.4z M633.8,346.9h-12.6V342h-26.5v5.1h-12.1v-38.9
			c-2.7,14.7-7.5,27.8-14.4,39.1l-10.4-9.3c9.2-14,13.8-31.9,14-53.9v-26.4h60.7v41.7h-48.5c-0.3,2.8-0.7,5.5-1.1,8h51.1V346.9z
			 M584.8,284c0,2-0.1,3.8-0.1,5.8h35v-6.9h-34.8V284z M619.6,267.4h-34.8v6.8h34.8V267.4z M618.1,241c-6.1-4.7-11.3-8.3-15.5-11
			c-3.2,3.7-6.8,7.3-10.7,11H618.1z M621.3,331.6v-13.7h-26.5v13.7H621.3z M648.9,346.1l-3.1-13c6.8,0.4,13.3,0.7,19.5,0.7
			c3.4,0,5.1-1.7,5.1-5.1V217.9h13.3v114.3c0,9.3-4.7,14-13.7,14H648.9z M658.8,227.3v90.3H646v-90.3H658.8z"/>
		<path class="st0" d="M822.4,222.7v13.1h-51.3v49.9h56.7v12.8h-56.7v48.8h-13.5v-48.8H702v-12.8h55.6v-49.9h-49.9v-13.1H822.4z
			 M742.2,274l-12.6,6.2c-4.7-11.9-9.6-22.4-14.8-31.7l12.6-6.1C732.5,252,737.4,262.4,742.2,274z M815.8,247.6
			c-4.1,10.9-9.5,21.4-15.9,31.9l-12.1-6.2c6.6-10.7,11.8-21.2,15.8-31.5L815.8,247.6z"/>
		<path class="st0" d="M846,261.9c10.7-2.4,25.5-17.5,44.4-45.1l14,4.8c-11.4,15.8-23,29.1-34.8,39.8c24-0.8,47.1-2.4,69.5-4.5
			c-4.5-6.8-9.2-13-13.8-18.9l12.1-5.8c11.4,14.1,22.3,29.6,32.6,46.7l-13.1,6.5c-3.4-5.9-6.6-11.4-9.9-16.6
			c-29.5,2.5-62.3,4.5-98.5,5.9L846,261.9z M954.2,347.6h-13.5v-5.8h-69.4v5.8h-13.5v-59.9h96.5V347.6z M940.7,329v-28.5h-69.4V329
			H940.7z"/>
	</g>
</g>
</svg>
