<?xml version="1.0" encoding="utf-8"?>
<!-- Generator: Adobe Illustrator 28.1.0, SVG Export Plug-In . SVG Version: 6.00 Build 0)  -->
<svg version="1.1" id="圖層_1" xmlns="http://www.w3.org/2000/svg" xmlns:xlink="http://www.w3.org/1999/xlink" x="0px" y="0px"
	 viewBox="0 0 708.7 425.2" style="enable-background:new 0 0 708.7 425.2;" xml:space="preserve">
<style type="text/css">
	.st0{fill:url(#SVGID_1_);}
	.st1{fill:url(#SVGID_00000017515129098013218030000010636375697971797435_);}
	.st2{fill:url(#SVGID_00000053504241518370229250000017490112707278170503_);}
	.st3{fill:url(#SVGID_00000080208441971235948810000011256584233500844439_);}
	.st4{fill:url(#SVGID_00000094589329521481739060000012144474567895095473_);}
	.st5{fill:url(#SVGID_00000122693319112446635350000016086968397106181549_);}
	.st6{fill:url(#SVGID_00000179606320102625575390000015178020776229138866_);}
	.st7{fill:url(#SVGID_00000114045198057845492940000004823863875248375468_);}
	.st8{fill:url(#SVGID_00000044169154021790174450000000812578733607343540_);}
	.st9{fill:url(#SVGID_00000102527469464003013040000004795361681021562799_);}
	.st10{fill:#FFFFFF;}
</style>
<g>
	<g>
		
			<linearGradient id="SVGID_1_" gradientUnits="userSpaceOnUse" x1="185.6287" y1="-220.2788" x2="342.4563" y2="-32.7149" gradientTransform="matrix(1 0 0 -1 0 9.0836)">
			<stop  offset="0.1443" style="stop-color:#FF9451"/>
			<stop  offset="0.9905" style="stop-color:#FF5100"/>
		</linearGradient>
		<path class="st0" d="M361.1,159.4l-57-149C218.4,31.6,153.2,105.9,146,196.9L361.1,159.4z"/>
		
			<linearGradient id="SVGID_00000170252671311004483550000001176528090152320955_" gradientUnits="userSpaceOnUse" x1="370.4201" y1="-155.6517" x2="445.5506" y2="-16.1195" gradientTransform="matrix(1 0 0 -1 0 9.0836)">
			<stop  offset="0" style="stop-color:#FF9451"/>
			<stop  offset="0.9905" style="stop-color:#FF5100"/>
		</linearGradient>
		<path style="fill:url(#SVGID_00000170252671311004483550000001176528090152320955_);" d="M361.1,159.4L541.7,123h0.5
			C508.6,52.7,436.8,4.3,353.9,4.3c-17.2,0-34,1.9-49.8,6.2L361.1,159.4z"/>
		
			<linearGradient id="SVGID_00000026144173296670990010000007225953850029737357_" gradientUnits="userSpaceOnUse" x1="507.4657" y1="-50.8911" x2="535.7783" y2="-216.5278" gradientTransform="matrix(1 0 0 -1 0 9.0836)">
			<stop  offset="0" style="stop-color:#FF9451"/>
			<stop  offset="0.5846" style="stop-color:#FF5100"/>
		</linearGradient>
		<path style="fill:url(#SVGID_00000026144173296670990010000007225953850029737357_);" d="M562.2,212.7c0-32.1-7.2-62.3-20.1-89.6
			h-0.5L510,260.6l36.4,32.6C556.9,268.3,562.2,241.4,562.2,212.7L562.2,212.7z"/>
		
			<linearGradient id="SVGID_00000017494829530027458560000006632116549474773671_" gradientUnits="userSpaceOnUse" x1="310.7307" y1="-328.3649" x2="546.3307" y2="-328.3649" gradientTransform="matrix(1 0 0 -1 0 9.0836)">
			<stop  offset="0" style="stop-color:#FF9451"/>
			<stop  offset="0.7002" style="stop-color:#FF5100"/>
		</linearGradient>
		<path style="fill:url(#SVGID_00000017494829530027458560000006632116549474773671_);" d="M509.9,260.6l-199.2,72.3l95.3,81.4
			c63.7-16.2,115.4-61.7,140.3-121.6L509.9,260.6z"/>
		
			<linearGradient id="SVGID_00000126310842481485022520000008813717641160692134_" gradientUnits="userSpaceOnUse" x1="231.9394" y1="-363.6762" x2="226.4583" y2="-198.4469" gradientTransform="matrix(1 0 0 -1 0 9.0836)">
			<stop  offset="0" style="stop-color:#FF9451"/>
			<stop  offset="0.703" style="stop-color:#FF5100"/>
		</linearGradient>
		<path style="fill:url(#SVGID_00000126310842481485022520000008813717641160692134_);" d="M146,210.2c0,1,0,1.9,0,2.4
			c0,64.7,29.2,122.1,75.7,160.5l89.6-40.2L146,210.2z"/>
		
			<linearGradient id="SVGID_00000127739102684436007590000016007368888016686483_" gradientUnits="userSpaceOnUse" x1="332.2459" y1="-469.0941" x2="311.1437" y2="-371.4934" gradientTransform="matrix(1 0 0 -1 0 9.0836)">
			<stop  offset="0" style="stop-color:#FF9451"/>
			<stop  offset="0.9905" style="stop-color:#FF5100"/>
		</linearGradient>
		<path style="fill:url(#SVGID_00000127739102684436007590000016007368888016686483_);" d="M354.4,421c17.7,0,35.4-2.4,52.2-6.7
			l-95.3-81.4l-90,40.2C257.1,402.8,303.6,421,354.4,421L354.4,421z"/>
		
			<linearGradient id="SVGID_00000183215678088653102850000012442833869332887683_" gradientUnits="userSpaceOnUse" x1="160.1256" y1="-162.3764" x2="339.7544" y2="-238.7186" gradientTransform="matrix(1 0 0 -1 0 9.0836)">
			<stop  offset="0" style="stop-color:#FF9451"/>
			<stop  offset="0.4896" style="stop-color:#FF5100"/>
		</linearGradient>
		<path style="fill:url(#SVGID_00000183215678088653102850000012442833869332887683_);" d="M310.8,332.9l50.3-173.4l-214.7,36.8
			c-0.5,4.3-0.5,9.1-0.5,13.4L310.8,332.9z"/>
		
			<linearGradient id="SVGID_00000061450023759793777460000016058117829503496339_" gradientUnits="userSpaceOnUse" x1="521.7412" y1="-319.6598" x2="384.2896" y2="46.8782" gradientTransform="matrix(1 0 0 -1 0 9.0836)">
			<stop  offset="0" style="stop-color:#FF9451"/>
			<stop  offset="0.6511" style="stop-color:#FF5100"/>
		</linearGradient>
		<polygon style="fill:url(#SVGID_00000061450023759793777460000016058117829503496339_);" points="361.1,159.4 509.9,260.6 
			541.7,123.1 		"/>
		
			<linearGradient id="SVGID_00000084500810999383790430000015215830517468052143_" gradientUnits="userSpaceOnUse" x1="351.3181" y1="-203.9234" x2="542.6724" y2="-475.2335" gradientTransform="matrix(1 0 0 -1 0 9.0836)">
			<stop  offset="0.1443" style="stop-color:#FF7A26"/>
			<stop  offset="0.9905" style="stop-color:#FF5100"/>
		</linearGradient>
		<polygon style="fill:url(#SVGID_00000084500810999383790430000015215830517468052143_);" points="310.8,332.9 509.9,260.6 
			361.1,159.4 		"/>
		
			<linearGradient id="SVGID_00000097485234415503150470000014546787643439211693_" gradientUnits="userSpaceOnUse" x1="560.2214" y1="-193.7671" x2="302.3867" y2="-412.0729" gradientTransform="matrix(1 0 0 -1 0 9.0836)">
			<stop  offset="0" style="stop-color:#FF9451"/>
			<stop  offset="0.9905" style="stop-color:#FF5100"/>
		</linearGradient>
		<path style="fill:url(#SVGID_00000097485234415503150470000014546787643439211693_);" d="M509.9,260.6l-199.2,72.3l94.8,81.4
			c0.5,0,1,0,1.4-0.5L509.9,260.6z"/>
	</g>
	<g>
		<path class="st10" d="M406.6,227.9c0.5-4.8,1.4-9.1,3.8-12.5s4.8-5.7,8.1-8.1c3.4-1.9,7.2-3.4,11.5-4.3c4.3-1,8.6-1.4,12.9-1.4
			c3.8,0,7.7,0.5,12,1c3.8,0.5,7.7,1.4,11,3.4c3.4,1.4,5.7,3.8,8.1,6.7c1.9,2.9,3.4,6.7,3.4,11.5v40.2c0,3.4,0,6.7,0.5,10.1
			s1,5.7,1.9,7.2h-21.6c-0.5-1-1-2.4-1-3.8c-0.5-1.4-0.5-2.4-0.5-3.8c-3.4,3.4-7.2,5.7-12,7.2c-4.8,1.4-9.1,1.9-13.9,1.9
			c-3.8,0-7.2-0.5-10.1-1.4c-3.4-1-5.7-2.4-8.1-4.3s-4.3-4.3-5.7-7.2s-1.9-6.2-1.9-10.1c0-4.3,1-8.1,2.4-11s3.4-5.3,5.7-6.7
			c2.4-1.9,5.3-2.9,8.1-3.8c3.4-1,6.2-1.4,9.6-1.9s6.2-1,9.6-1c2.9-0.5,5.7-1,8.1-1.4s4.3-1.4,5.7-2.4s1.9-2.9,1.9-4.8
			c0-2.4-0.5-4.3-1-5.3c-1-1.4-1.9-2.4-2.9-3.4c-1.4-1-2.9-1.4-4.3-1.4c-1.4-0.5-3.4-0.5-5.3-0.5c-4.3,0-7.7,1-10.1,2.9
			s-3.8,4.8-4.3,9.1h-22v-0.7L406.6,227.9L406.6,227.9z M455.4,243.8c-1,1-1.9,1.4-3.4,1.9c-1.4,0.5-2.9,1-4.3,1
			c-1.4,0.5-3.4,0.5-4.8,1c-1.9,0-3.4,0.5-5.3,1c-1.4,0.5-3.4,0.5-4.8,1s-2.9,1-3.8,1.9s-1.9,1.9-2.9,3.4c-0.5,1.4-1,2.9-1,4.8
			s0.5,3.4,1,4.8s1.4,2.4,2.9,2.9c1,1,2.4,1.4,4.3,1.4c1.4,0.5,3.4,0.5,4.8,0.5c4.3,0,7.2-0.5,9.6-1.9s3.8-2.9,5.3-4.8
			c1-1.9,1.9-3.8,1.9-5.7c0.5-1.9,0.5-3.4,0.5-4.8L455.4,243.8L455.4,243.8z"/>
		<path class="st10" d="M562.7,212.7c0-3.4,0-7.2-0.5-10.5h-23.9c-2.9,0-5.3,0.5-7.7,1c-2.4,1-4.8,1.9-7.2,3.4s-4.3,3.4-5.7,5.3
			c-1.9,1.9-2.9,4.3-3.8,6.7h-0.5v-14.5h-20.1v77.1h21.1v-35c0-3.4,0.5-6.7,1-9.6c0.5-2.9,1.9-5.7,3.4-7.7c1.4-2.4,3.8-3.8,6.7-5.3
			c2.9-1.4,5.7-1.9,10.1-1.9h26.8C562.2,218.9,562.7,215.6,562.7,212.7L562.7,212.7z"/>
		<path class="st10" d="M290.7,349.7c3.4,2.9,7.7,4.8,13.9,4.8c4.3,0,8.1-1,11-3.4c2.9-1.9,4.8-4.3,5.7-6.7H340
			c-2.9,9.1-7.7,15.8-13.9,19.6c-6.2,3.8-13.4,5.7-22.5,5.7c-6.2,0-11.5-1-16.3-2.9c-4.8-1.9-9.1-4.8-12.5-8.1
			c-3.4-3.4-6.2-7.7-7.7-12.9c-1.9-4.8-2.9-10.5-2.9-16.3c0-5.7,1-11,2.9-16.3c1.9-4.8,4.8-9.1,8.1-12.9c3.4-3.8,7.7-6.7,12.5-8.6
			c4.8-1.9,10.1-3.4,15.8-3.4c6.7,0,12.5,1.4,17.2,3.8c4.8,2.4,9.1,5.7,12,10.1c3.4,4.3,5.3,9.1,6.7,14.8c1.4,5.3,1.9,11,1.4,17.2
			h-55.1C285.9,341.5,287.8,346.8,290.7,349.7z M314.6,309c-2.4-2.9-6.2-4.3-11.5-4.3c-3.4,0-6.2,0.5-8.6,1.9
			c-2.4,1-3.8,2.4-5.3,4.3s-2.4,3.4-2.9,5.3s-1,3.4-1,5.3h34.5C318.9,316.2,317.5,311.8,314.6,309z"/>
		<path class="st10" d="M390.8,305.1c-3.4,0-6.2,1-8.6,2.4s-4.3,3.4-5.7,5.7c-1.4,2.4-2.4,5.3-2.9,8.1c-0.5,2.9-1,5.7-1,8.6
			s0.5,5.7,1,8.6s1.4,5.3,2.9,7.7s3.4,4.3,5.3,5.7c2.4,1.4,5.3,2.4,8.1,2.4c5.3,0,9.1-1.4,11.5-4.3c2.9-2.9,4.3-6.7,5.3-11.5h20.6
			c-1.4,10.1-5.3,18.2-12,23.5s-14.8,8.1-25.4,8.1c-5.7,0-11-1-15.8-2.9c-4.8-1.9-9.1-4.8-12.5-8.1c-3.4-3.4-6.2-7.7-8.1-12.5
			c-1.9-4.8-2.9-10.1-2.9-15.8s1-11.5,2.4-16.8c1.9-5.3,4.3-9.6,7.7-13.4s7.7-6.7,12.5-8.6c4.8-1.9,10.5-3.4,16.8-3.4
			c4.8,0,9.1,0.5,13.4,1.9c4.3,1,8.1,2.9,11.5,5.3s6.2,5.3,8.1,9.1c1.9,3.8,3.4,8.1,3.4,12.9h-20.6
			C405.1,309.4,399.9,305.1,390.8,305.1z"/>
		<path class="st10" d="M510.9,334.8c-1-3.8-2.4-7.2-4.3-10.1s-4.8-4.8-8.6-6.2c-3.8-1.4-8.1-2.4-13.9-2.4c-3.8,0-8.1,1-12.5,2.9
			c-4.3,1.9-7.7,5.3-10.1,9.6H461v-40.2h-21.1v113.5c7.2-3.4,14.4-7.2,21.1-11v-36.4c0-7.7,1.4-13.4,3.8-16.8s6.7-5.3,12.5-5.3
			c5.3,0,8.6,1.4,10.5,4.8s2.9,7.7,2.9,14.4v17.7c7.7-6.7,14.8-13.9,21.1-21.6l0,0C512.4,343.5,511.9,339.1,510.9,334.8z"/>
		<path class="st10" d="M242.8,281.2h53.6v-74.7h0.5l25.9,74.7H341l25.9-75.7h0.5v75.7h22V174.9h-33l-23.6,73.2h-0.5l-24.9-73.2l0,0
			L257.6,28.3c-10.5,5.7-20.6,12-30.2,19.2c0,0-0.5,0-0.5,0.5c-1,1-1.9,1.4-2.9,2.4l-0.5,0.5c-1,1-1.9,1.4-2.9,2.4l-0.5,0.5
			c-1,1-1.9,1.4-2.9,2.4l-0.5,0.5c-1,1-1.9,1.9-2.9,2.4c0,0-0.5,0-0.5,0.5c-4.3,3.8-8.6,8.1-12.5,12.5l-43.1,125h33l18.7-54.1h54.1
			l11,32.1l0,0v86.7H151.8c1.4,6.7,3.4,13.4,5.7,19.6h62.3v90c2.9,2.4,5.7,4.8,8.1,6.7l0,0c1,0.5,1.9,1.4,2.9,1.9l0,0
			c2.9,1.9,5.7,3.8,8.6,5.7c0.5,0,0.5,0.5,1,0.5c1,0.5,1.9,1,2.9,1.9V281.2H242.8z M217.4,118.8l19.2-56l19.2,56
			C255.7,118.8,217.4,118.8,217.4,118.8z"/>
	</g>
</g>
</svg>
