<?xml version="1.0" encoding="utf-8"?>
<!-- Generator: Adobe Illustrator 28.1.0, SVG Export Plug-In . SVG Version: 6.00 Build 0)  -->
<svg version="1.1" id="圖層_1" xmlns="http://www.w3.org/2000/svg" xmlns:xlink="http://www.w3.org/1999/xlink" x="0px" y="0px"
	 viewBox="0 0 978 425.2" style="enable-background:new 0 0 978 425.2;" xml:space="preserve">
<style type="text/css">
	.st0{fill:#4D5858;}
	.st1{fill:#003D2A;}
	.st2{fill:#659E31;}
</style>
<g>
	<g>
		<g>
			<path class="st0" d="M352.6,265.7c0-2.7-0.1-3.6-0.3-5.3l14.2,0.3c0.1,0,0.6,0.4,0.6,0.9c0,0.4-0.4,1.2-0.6,1.5v9.7h22v-7
				c0-1.1-0.2-3.5-0.6-5.6l14.4,0.3c0.1,0,0.5,0.4,0.5,0.9c0,0.4-0.1,0.8-0.5,1.7v9.6h21.9v5.7h-21.9v10.2h-13.8v-10.2h-22v10.2
				h-13.9v-10.2h-21.1v-5.7h21.1V265.7z"/>
			<path class="st0" d="M401.3,293.9c-1.9,0.3-33.7,38.2-38.6,42.8c-5.5,5.2-16.4,13.9-29.9,10l-1.2,3.3c0,0,18.7,7.6,31.3,2
				c11.3-5,47.4-49.6,48.2-50.2L401.3,293.9z"/>
			<path class="st0" d="M354.7,293.9c1.9,0.3,33.7,38.2,38.6,42.8c5.5,5.2,16.4,13.9,30,10l1.2,3.3c0,0-18.7,7.6-31.3,2
				c-11.3-5-47.4-49.6-48.2-50.2L354.7,293.9z"/>
		</g>
		<g>
			<g>
				<path class="st0" d="M448.1,327.2l-2.3,3.5c0,0,5.4,8.2,13.8,8.2c5.5,0,11.4-5.9,13.8-7.6c1.9-1.3,3.7-1.9,5.3-1.6
					c1.3,0.3,3.6,1.6,3.6,1.6l1.8-2.9c0,0-4.6-5.9-12.9-5.9c-6.8,0-9.5,5.3-13.3,6.7C458,329.2,453.3,331.2,448.1,327.2z"/>
				<polygon class="st0" points="457.9,298.4 449.2,298.4 449.2,303.9 457.9,303.9 457.9,330.7 471.1,330.7 471.1,303.9 
					479.8,303.9 479.8,298.4 471.1,298.4 471.1,272.1 480.6,272.1 480.6,266.5 448.4,266.5 448.4,272.1 457.9,272.1 				"/>
			</g>
			<path class="st0" d="M522.6,314.2v-11.4h15.5v-5.5h-15.5v-10.6h15.5v-5.6h-15.5v-10.4h19.1v-5.6h-56v54.6h43.2
				c0,4.4,1.4,32.4-7.9,31c-4-0.6-3.7-2.9-6.4-9.4c-2.8-6.9-6.8-12.3-14.6-12.3c-11.8,0-14,11.5-22.9,16.2
				c-4.4,2.3-11.3-2.5-11.3-2.5l-2.8,3.4c0,0,6.4,6.9,14.3,5.6c8.9-1.5,8.8-6.1,14.1-9.4c8.4-5.3,15,1.6,16.5,5
				c9.6,21,28.4,9.5,31.3,0.2c2.1-7,2.9-28.4,2.9-33.2H522.6z M509.8,314.2h-11v-11.4h11V314.2z M509.8,297.3h-11v-10.6h11V297.3z
				 M509.8,281.1h-11v-10.4h11V281.1z"/>
		</g>
		<g>
			<path class="st0" d="M608.4,345.2v2.7c0,0,9.4,1.8,13-1.6c4.4-4.2,6.5-15.3,7.5-17.8c1.3-3.3,3.5-3.9,5-4.3
				c1-0.2,1.8-0.1,1.8-0.1v-2.4c0,0-7.5-2.1-13.6,2.9c-4.7,3.9-6.6,14.9-7.9,17.3C614.1,341.9,612.9,345.6,608.4,345.2z"/>
			<path class="st0" d="M601.6,318.8l-4.9,2.4c2.7,9,3.7,15.7,4.5,23.4l10.4-4.7C609.1,333.1,604.7,324.1,601.6,318.8z"/>
			<path class="st0" d="M642.3,323.9c2.2,5.9,4.5,14.7,5.4,25.3l11.1-5.7c-3.3-7.9-7.1-15.5-11.6-22.1L642.3,323.9z"/>
			<path class="st0" d="M647.9,317.4l11.4-5.3c-5.5-10.8-9.4-16.3-11.1-18.8l-5.5,2c0.7,1.9,1.2,3.5,2.7,8.9
				c-6.2,0.6-11.7,1.1-12.8,1.1c4.7-5.1,14-15.1,22.1-26c1.9-1.3,2.1-1.4,2.1-2.1c0-0.6-0.6-0.9-0.8-1l-13.3-6
				c-4,8.5-9.2,16.8-10.4,18.8c-1.4-1.1-2.7-2.1-5.2-3.9c3.2-4.3,8.1-11.8,11.6-18.1c1.4-1.1,1.6-1.4,1.6-1.9c0-0.4-0.3-0.8-0.8-1
				l-11.7-3.8c-2.1,7.8-5,14.5-7.6,20.3c-1.9-1.1-3.2-1.9-5.8-3.3l-3.5,4.8c5.5,4.8,11.7,11.1,15.2,16.3c-1.4,2.2-3,4.4-5.1,7.3
				c-3.4,0-7.2-0.1-10.6-0.3l0.9,3.4c-1.8-2.9-5.7-9.5-8.9-13.7l-5.8,2.2c0.9,2.1,1.5,3.5,2.8,7.7c-3.5,0.4-4.6,0.5-14.4,1.1
				c2.2-2.3,15-15.8,22.3-24.7c1.5-0.9,1.7-1,1.7-1.6c0-0.3-0.2-0.7-0.5-0.8l-13-5.8c-2.1,4.3-2.8,5.4-9.2,15.4
				c-0.7-0.5-3.8-3-4.5-3.5c0.7-1,6.8-8.9,11.6-18c1.3-1.1,1.4-1.3,1.4-1.8c0-0.4-0.2-0.9-0.9-1.1l-11.6-3.8
				c-1.9,8.7-6.8,18.6-7.3,19.8c-1.1-0.8-1.9-1.2-4.5-2.9l-3.5,5c6,6.3,9.2,9.8,12.8,15.6c-2,2.9-5.2,7.5-6,8.5
				c-4.3,0-4.8,0-7.4-0.1l2.2,9.7c0.1,0.5,0.3,0.9,0.8,0.9c0.4,0,0.9-0.5,1.2-0.7c2.2-0.2,4.9-0.4,12.7-1.7v39.3h12.4v-41.6
				c1.7-0.3,3.8-0.9,5.3-1.3c0.7,2.8,1,4.6,1.5,7.3l9.9-4.7c0.3,1.3,0.5,2.3,1.3,2.3c0.4,0,0.8-0.3,1.4-0.7c3.3-0.5,10.2-1.5,13.7-2
				v40.7h12.4v-42.7l5.4-1.7C647.2,313,647.5,315.1,647.9,317.4z"/>
			<path class="st0" d="M578.1,323.4c-3.3,2.7-5.2,10-6.1,14c-0.7,3.8-1.3,4.9-3.2,5.9c-0.5,0.3-1.7,0.5-2.7,0.6v2.8
				c2.9,0.3,8.9,0.5,11.5-1.9c4.4-4,6.4-15,7.3-17.5c1.2-3.2,3.4-3.9,4.9-4.2c1-0.2,1.8-0.1,1.8-0.1v-2.4
				C591.5,320.5,584.1,318.5,578.1,323.4z"/>
		</g>
	</g>
	<path class="st1" d="M440.5,115.9c-3.5-8.7-8.2-16.4-14.9-23.2c-6.7-6.8-13.8-11.6-23.2-15.7c-6.9-3-17.8-6.5-34.2-6.7
		c-0.3,0-6.4-0.1-9.9,0.2c-0.1,0-0.1,0-0.2,0c-12.6,1-23.1,4.7-32.1,9.6c-20.3,11.2-29.2,25.8-33.5,35.1c-3.9,8.6-6.1,18.6-6.2,27.8
		c0,9.7,1.7,18,5.1,26.9c3.4,8.9,8.3,15.4,15,22.4c6.6,7,15.3,12.8,25.7,17.5c9.8,4.4,20.4,6.9,33.4,6.9c14.2,0,24.5-2,34.4-6.3
		c9.9-4.3,18.7-9.9,25.4-16.8c6.7-7,12.2-14.2,15.6-23.3c3.3-8.9,4.8-16.9,5-26.8C446.4,133.8,444.2,125.1,440.5,115.9z M383,206.8
		c-1.5,0.5-3.2,1-5.2,1.2c-0.4,0-0.7,0.1-1,0.1c-0.2,0-0.4,0.1-0.7,0.1c-27,1.8-50.4-22.8-57.7-57.8c-6.9-33.4,10.6-67.1,36.5-71.1
		c8.1-1.2,16.9,0.4,26.2,7.2c15.3,11.2,27,28,31.4,51.8c1.5,8.3,2.5,16.2,0.3,27.3c-2.7,13.7-9.3,27-19,35
		C394,200.4,390.4,203.8,383,206.8z"/>
	<path class="st1" d="M171.1,212.8V72h58.3c7.5,0,14.6,0.7,20.5,2.8c5.1,1.9,10.8,5,14.8,8.5c4,3.4,6.9,7.3,9.1,11.6
		c2.1,4.3,3.1,8.7,3.1,13.1c0,4.8-0.6,9.5-2.7,13.6c-2.1,4.1-4.7,7.9-8.5,11.1c-3.9,3.2-12.1,9.9-27.8,9.9l46.9,70.3h-36.6
		L201.5,138l24.6,0c10.5,0,17-2.8,22.5-8.4c5.5-5.6,8.4-12.6,8.4-21.5c0-3.6-0.9-7.4-2.4-10.9c-1.5-3.6-3.8-6.8-6.9-9.6
		c-3.1-2.9-6.9-5.2-11.6-7c-4.7-1.7-10.1-2.6-16.4-2.6h-21v134.8H171.1z"/>
	<path class="st1" d="M494,72.2l51.8,98.6l51-98.6h19.3V213h-27.1V106.4L536,212.4L471.4,88.5V213h-8.8V72.2H494z"/>
	<path class="st1" d="M859.8,83.5c-5.2-4.6-19.2-8.4-29.7-3.2c-13.5,6.8-12.2,17.6-11.7,20.8c1.8,11.1,20.5,20.1,29,24.9
		c16.5,9.3,20.8,14.8,24.6,18.8c3.7,4,6.7,8.4,8.8,13.2c2.1,4.8,3.2,9.9,3.2,15.3c0,5.5-1.2,10.5-3.3,15.5c-2.1,5-5.4,9-9.4,12.8
		c-4,3.8-8.7,7.3-14.5,9.5c-5.8,2.2-12.5,3.3-20,3.3c-7.4,0-12.7-0.9-18-2.6c-5.3-1.7-9.2-4.2-12.8-7c-3.6-2.8-7-6-9.3-9.6
		c-2.2-3.5-4.4-7-5.6-10.7l8-1.9c0.9,3.6,2.5,6.7,4.6,10.1c2,3.2,6,6.3,9.3,8.2c11.2,6.4,24,2.5,30.6-0.8
		c11.9-6.1,23.3-33.2-13.1-52.1c-6.9-3.6-23.4-10.9-29.9-17.1c-3.5-3.3-10.4-12.5-9-23.8c0.6-5.2,1.3-8.7,3.6-13.1
		c2.3-4.4,5.7-8.5,9.7-11.6c4.1-3.1,8.5-6.4,14.1-8.1c5.5-1.7,11.4-2.6,17.7-2.6c5.7,0,10.9,1.2,15.2,2.4c4.3,1.3,7.6,2.8,10.6,4.7
		c3,1.9,6.4,4.5,8.6,6.9c2.3,2.5,4,4.2,5.3,6.6l-8.7,2.9C866,90,864.5,87.6,859.8,83.5z"/>
	<path class="st1" d="M928.2,78.3V137h47.7v6h-47.7v64h47.7v6h-75.5V72.2h75.5v6H928.2z"/>
	<g>
		<polygon class="st1" points="78.8,66.2 64,98 123.4,213 154.8,213 		"/>
	</g>
	<path class="st2" d="M2.1,206.8l0,4.5c0,0,10.6,4.2,27.5,0.6c3.8-0.8,9-3.4,11.9-5.7c3-2.4,6.2-6.4,8.7-12.2
		c6-14.2,10.7-34,12.3-39.2c2.6-8.4,11-12.1,14.3-13c2.9-0.8,5.7-0.3,5.7-0.3l0-4c0,0-20-4.2-36.7,8c-3.6,2.6-6.5,6.4-9.3,11.7
		c-7.2,13.9-9.8,32.1-12.5,37.4C24,194.6,19.1,207.5,2.1,206.8z"/>
	<g>
		<polygon class="st1" points="710.3,66.2 695.5,98 754.9,213 786.3,213 		"/>
	</g>
	<path class="st2" d="M633.6,206.8l0,4.5c0,0,10.6,4.2,27.5,0.6c3.8-0.8,9-3.4,11.9-5.7c3-2.4,6.2-6.4,8.7-12.2
		c6-14.2,10.7-34,12.4-39.2c2.6-8.4,11-12.1,14.3-13c2.9-0.8,5.7-0.3,5.7-0.3l0-4c0,0-20-4.2-36.7,8c-3.6,2.6-6.5,6.4-9.3,11.7
		c-7.2,13.9-9.8,32.1-12.5,37.4C655.5,194.6,650.6,207.5,633.6,206.8z"/>
</g>
</svg>
