<?xml version="1.0" encoding="utf-8"?>
<!-- Generator: Adobe Illustrator 28.1.0, SVG Export Plug-In . SVG Version: 6.00 Build 0)  -->
<svg version="1.1" id="圖層_1" xmlns="http://www.w3.org/2000/svg" xmlns:xlink="http://www.w3.org/1999/xlink" x="0px" y="0px"
	 viewBox="0 0 978 425.2" style="enable-background:new 0 0 978 425.2;" xml:space="preserve">
<style type="text/css">
	.st0{fill:#FFFFFF;}
	.st1{fill:#00F096;}
</style>
<g>
	<g>
		<g>
			<circle cx="42.6" cy="216.8" r="26.2"/>
		</g>
		<g>
			<circle cx="103.5" cy="216.8" r="26.2"/>
		</g>
		<g>
			<circle class="st0" cx="49.9" cy="208.2" r="7.3"/>
		</g>
		<g>
			<circle class="st0" cx="110.8" cy="208.2" r="7.3"/>
		</g>
		<g>
			<path class="st1" d="M135.9,171.2H16.4v-25.9c0-14.3,11.6-25.9,25.9-25.9h93.6c14.3,0,25.9,11.6,25.9,25.9v0
				C161.8,159.6,150.2,171.2,135.9,171.2z"/>
		</g>
		<g>
			<path class="st1" d="M240.8,280.9v-93.6c0-14.3,11.6-25.9,25.9-25.9h0c14.3,0,25.9,11.6,25.9,25.9v93.6
				c0,14.3-11.6,25.9-25.9,25.9h0C252.4,306.8,240.8,295.2,240.8,280.9z"/>
		</g>
		<g>
			<path class="st1" d="M506.2,182.3v-63h0c28.6,0,51.8,23.2,51.8,51.8v63h0C529.4,234.1,506.2,210.9,506.2,182.3z"/>
		</g>
		<g>
			<path class="st1" d="M135.9,307.6H42.3c-14.3,0-25.9-11.6-25.9-25.9v-25.9h119.5c14.3,0,25.9,11.6,25.9,25.9v0
				C161.8,296,150.2,307.6,135.9,307.6z"/>
		</g>
		<g>
			<path class="st1" d="M229.2,171.2v109.8c0,14.3-11.6,25.9-25.9,25.9h0c-14.3,0-25.9-11.6-25.9-25.9V119.3h0
				C206,119.3,229.2,142.5,229.2,171.2z"/>
		</g>
		<g>
			<path class="st1" d="M525.1,255.7h-34.3v-84.6c0-28.6-23.2-51.8-51.8-51.8h0v162.3c0,14.3,11.6,25.9,25.9,25.9h60.2
				c14.3,0,25.9-11.6,25.9-25.9S539.4,255.7,525.1,255.7z"/>
		</g>
		<g>
			<path class="st1" d="M304.2,171.2v109.8c0,14.3,11.6,25.9,25.9,25.9h0c14.3,0,25.9-11.6,25.9-25.9V119.3h0
				C327.4,119.3,304.2,142.5,304.2,171.2z"/>
		</g>
		<g>
			<path class="st1" d="M569.7,171.2v135.7l0,0c28.6,0,51.8-23.2,51.8-51.8V119.3h0C592.9,119.3,569.7,142.5,569.7,171.2z"/>
		</g>
		<g>
			<path class="st1" d="M371.6,171.2v109.8c0,14.3,11.6,25.9,25.9,25.9h0c14.3,0,25.9-11.6,25.9-25.9V119.3h0
				C394.8,119.3,371.6,142.5,371.6,171.2z"/>
		</g>
	</g>
	<g>
		<path d="M647.4,242.6c-7.7-0.3-14.1-6.6-14.1-14c0-7.7,6.4-13.8,14.1-13.8c7.6-0.2,13.8,6.1,14,13.8
			C661.7,236,655,242.9,647.4,242.6z"/>
		<path d="M758.2,241.2c-6.1,3.4-12,1.8-15.4-4.4l-23.5-43.5c-2,0.2-3.9,0.3-5.9,0.3c-4.8,0-9.4-0.2-13.3-0.3v38.3
			c0,7.6-3.9,11.5-11.3,11.5c-7.4,0-11.7-3.9-11.7-11.5v-99.2c0-7.4,3.9-11.8,11.2-12.6c6.1-0.8,15.3-1.1,23.5-1.1
			c31,0,50.2,12.3,50.2,37.1c0,17.6-9,28.2-23.3,33.7c10.5,16.3,18.7,29.5,23.1,37.3C765.1,232.7,764,238,758.2,241.2z M739,156.2
			c0-14.9-9-22.5-27.1-22.5c-3.6,0-7.9,0.2-10.3,0.5c-1,0.2-1.6,0.8-1.6,2v42c3.9,0.3,8.5,0.3,12.6,0.2
			C730.3,178,739,170.8,739,156.2z"/>
		<path d="M861.5,156.4c0,27.7-22.3,38.4-48.9,38.9c-4.6,0-9-0.2-13-0.3v36.6c0,7.6-4.1,11.5-11.5,11.5c-7.6,0-11.5-3.9-11.5-11.5
			v-98.5c0-7.4,3.8-11.8,11-12.8c6.1-0.7,15.3-1,23.6-1C841.9,119.3,861.5,131.6,861.5,156.4z M838.3,156.9
			c0-14.3-9.7-22.5-26.9-22.5c-3.6,0-7.9,0.2-10.3,0.5c-1,0.2-1.6,0.8-1.6,2v43c3.9,0.3,8.5,0.3,12.3,0.2
			C829.3,179.7,838.3,172,838.3,156.9z"/>
		<path d="M954.2,242.1c-7.2,2.3-12.6-0.2-14.8-7.4l-9.9-31.7h-41.7l-10.5,32.5c-2,6.4-6.6,8.7-13.1,6.7c-6.2-2-8.7-6.7-6.4-13.1
			l33.7-98.3c3-8.9,9-13.1,17.6-13.1c8.5,0,15.1,4.3,18.1,13.1c10.2,28.2,23,64.8,33.5,97C962.9,235,961,240.1,954.2,242.1z
			 M925,187.9l-15.1-48.4h-1.3l-15.8,48.4H925z"/>
	</g>
</g>
</svg>
