<?xml version="1.0" encoding="UTF-8"?>
<svg id="_圖層_1" data-name="圖層 1" xmlns="http://www.w3.org/2000/svg" version="1.1" xmlns:xlink="http://www.w3.org/1999/xlink" viewBox="0 0 170.1 113.4">
  <defs>
    <style>
      .cls-1 {
        fill: #00a8ea;
      }

      .cls-1, .cls-2, .cls-3, .cls-4 {
        stroke-width: 0px;
      }

      .cls-2 {
        fill: #231815;
      }

      .cls-3 {
        fill: url(#radial-gradient);
      }

      .cls-4 {
        fill: #fff;
      }
    </style>
    <radialGradient id="radial-gradient" cx="-210.3" cy="473.3" fx="-210.3" fy="473.3" r=".7" gradientTransform="translate(5608.1 12617.7) scale(26.4 -26.6)" gradientUnits="userSpaceOnUse">
      <stop offset=".2" stop-color="#b2e2f8"/>
      <stop offset=".3" stop-color="#95d7f5"/>
      <stop offset=".4" stop-color="#67c6f1"/>
      <stop offset=".5" stop-color="#42b8ee"/>
      <stop offset=".7" stop-color="#25adec"/>
      <stop offset=".8" stop-color="#10a6ea"/>
      <stop offset=".9" stop-color="#04a1e9"/>
      <stop offset="1" stop-color="#00a0e9"/>
    </radialGradient>
  </defs>
  <g>
    <path class="cls-4" d="M61.9,56.8s-.1.2-.2.2-.2-.2-.2-.2c0-.4-.8-2.4-2-3.3-1.3-1-3.7-1.2-4.1-1.2h-15.8v8.1h10.6c.4,0,1.9-.3,2.3-1.2.3-.6,1.1-2.9,1.1-3.3,0,0,.1-.2.2-.2s.2.2.2.2v9.6s-.1.2-.2.2-.2-.2-.2-.2c0-.4-.8-2.7-1.1-3.3-.4-.9-1.9-1.2-2.3-1.2h-10.6v6.3c0,.4.3,1.2,1.2,1.6.6.3,2.9.4,3.3.4,0,0,.2.1.2.2s-.2.2-.2.2h-13.6s-.2-.1-.2-.2.2-.2.2-.2c.4,0,2.7-.1,3.3-.4.9-.4,1.2-1.2,1.2-1.6v-13.1c0-.4-.3-1.2-1.2-1.6-.6-.3-2.9-.4-3.3-.4,0,0-.2-.1-.2-.2s.2-.2.2-.2h31.4v5.1Z"/>
    <path class="cls-4" d="M76.3,55.6c-.3,0-2.2,0-2.7.3-.7.4-.9.9-.9,1.3v10.5c0,.3.2.9.9,1.3.5.2,2.3.3,2.7.3,0,0,.2,0,.2.2s-.2.2-.2.2h-10.8s-.2,0-.2-.2.2-.2.2-.2c.3,0,2.2-.1,2.7-.3.7-.4,1-1,1-1.3v-10.5c0-.4-.3-.9-1-1.3-.5-.2-2.3-.3-2.7-.3,0,0-.2,0-.2-.2s.2-.2.2-.2h10.8s.2,0,.2.2-.2.2-.2.2"/>
    <path class="cls-4" d="M108.5,52.1c-.4,0-2.7.1-3.3.4-.9.4-1.2,1.2-1.2,1.7v15.6h-1.1l-17.7-15.4v12.9c0,.4.3,1.2,1.2,1.6.6.3,2.9.4,3.3.4,0,0,.2.1.2.2s-.2.2-.2.2h-9.6s-.2-.1-.2-.2.2-.2.2-.2c.4,0,2.7-.1,3.3-.4.9-.4,1.2-1.2,1.2-1.6v-13.2c0-.2-.8-1.1-1.7-1.6-.6-.3-2.4-.4-2.8-.4,0,0-.2-.1-.2-.2s.2-.2.2-.2h8.4l14.9,12.9v-10.4c0-.4-.3-1.2-1.2-1.6-.6-.3-2.9-.4-3.3-.4,0,0-.2-.1-.2-.2s.2-.2.2-.2h9.6s.2.1.2.2-.2.2-.2.2"/>
    <path class="cls-4" d="M129.4,52.2h-8v17h8c6.7,0,8-3.9,8-8.5s-1.3-8.5-8-8.5M129.4,69.7h-17s-.2-.1-.2-.2.2-.2.2-.2c.4,0,2.7-.1,3.3-.4.9-.4,1.2-1.2,1.2-1.6v-13.1c0-.4-.3-1.2-1.2-1.6-.6-.3-2.9-.4-3.3-.4,0,0-.2-.1-.2-.2s.2-.2.2-.2h17.1c6.8,0,12.6,4,12.6,9.1s-5.7,9-12.6,9"/>
    <g>
      <path class="cls-4" d="M32.5,73.6h-2.2c-.1,0-.3,0-.4.1,0,0-.2.2-.2.3v.9h2.5v.5h-2.5v2h-.5v-3.3c0-.3,0-.5.3-.7.2-.2.4-.3.7-.3h2.2v.5Z"/>
      <path class="cls-4" d="M35.2,76.4v-1.2c0-.1,0-.3-.1-.3,0,0-.2-.1-.4-.1h-.8c-.1,0-.3,0-.4.1,0,0-.1.2-.1.3v1.2c0,.1,0,.3.1.4,0,0,.2.1.4.1h.8c.1,0,.3,0,.4-.1,0,0,.1-.2.1-.4M35.7,76.4c0,.3,0,.5-.3.7-.2.2-.4.3-.7.3h-.7c-.3,0-.5,0-.7-.3-.2-.2-.3-.4-.3-.7v-1.2c0-.3,0-.5.3-.7.2-.2.4-.3.7-.3h.7c.3,0,.5,0,.7.3.2.2.3.4.3.7v1.2Z"/>
      <path class="cls-4" d="M38.8,75.6h-.5v-.4c0-.1,0-.2-.1-.3-.1,0-.2-.1-.4-.1h-1v2.7h-.5v-3.1h1.5c.3,0,.5,0,.7.3.2.2.3.4.3.7v.4Z"/>
      <path class="cls-4" d="M42,76.9v.5h-1.6c-.3,0-.5,0-.7-.3-.2-.2-.3-.4-.3-.7v-1.2c0-.3.1-.5.3-.7.2-.2.4-.3.7-.3h1.6v.5h-1.6c-.1,0-.3,0-.4.1,0,0-.1.2-.1.3v.3h2v.5h-2v.4c0,.1,0,.3.1.4,0,0,.2.1.4.1h1.7Z"/>
      <path class="cls-4" d="M45.4,76.6c0,.3,0,.5-.3.6-.2.1-.4.2-.7.2h-1.7v-.5h1.7c.3,0,.5-.1.5-.4h0c0-.4-.2-.5-.5-.5h-.8c-.3,0-.5,0-.7-.2-.2-.2-.3-.4-.3-.6h0c0-.4,0-.6.3-.8.2-.1.4-.2.7-.2h1.7v.5h-1.7c-.3,0-.5.1-.5.4h0c0,.4.2.5.5.5h.8c.3,0,.5,0,.7.2.2.2.3.4.3.6h0Z"/>
      <path class="cls-4" d="M48.7,76.9v.5h-1.6c-.3,0-.5,0-.7-.3-.2-.2-.3-.4-.3-.7v-1.2c0-.3,0-.5.3-.7.2-.2.4-.3.7-.3h1.6v.5h-1.6c-.1,0-.3,0-.4.1-.1,0-.2.2-.2.3v.3h2v.5h-2v.4c0,.1,0,.3.1.4,0,0,.2.1.4.1h1.7Z"/>
      <path class="cls-4" d="M52,76.9v.5h-1.7c-.3,0-.5,0-.7-.3-.2-.2-.3-.4-.3-.7v-1.2c0-.3,0-.5.3-.7.2-.2.4-.3.7-.3h1.6v.5h-1.6c-.1,0-.3,0-.4.1-.1,0-.1.2-.1.3v.3h2v.5h-2v.4c0,.1,0,.3.1.4,0,0,.2.1.4.1h1.7Z"/>
      <path class="cls-4" d="M53.2,77.4h-.5v-3.2h.5v3.2ZM53.2,73.6h-.5v-.6h.5v.6Z"/>
      <path class="cls-4" d="M56.6,77.4h-.5v-2.2c0-.1,0-.2-.2-.3,0,0-.2-.1-.3-.1h-1.3v2.7h-.5v-3.1h1.8c.3,0,.5,0,.7.3.2.2.3.4.3.7v2.2Z"/>
      <path class="cls-4" d="M59.4,76.9v-2.1h-1.2c-.1,0-.3,0-.4.1,0,0-.1.2-.1.3v1.2c0,.1,0,.3.1.4,0,0,.2.1.4.1h1.2ZM59.9,77.6c0,.3,0,.5-.3.7-.2.2-.4.3-.7.3h-1.5v-.5h1.5c.1,0,.3,0,.4-.1.1,0,.1-.2.1-.4v-.2h-1.2c-.3,0-.5,0-.7-.3-.2-.2-.3-.4-.3-.7v-1.2c0-.3,0-.5.3-.7.2-.2.4-.3.7-.3h1.7v3.3Z"/>
      <rect class="cls-4" x="62.8" y="73.1" width=".5" height="4.3"/>
      <path class="cls-4" d="M66.7,77.4h-.5v-2.2c0-.1,0-.2-.1-.3-.1,0-.2-.1-.4-.1h-1.3v2.7h-.5v-3.1h1.8c.3,0,.5,0,.7.3.2.2.3.4.3.7v2.2Z"/>
      <path class="cls-4" d="M70.1,77.4h-.5v-2.2c0-.1,0-.2-.1-.3,0,0-.2-.1-.3-.1h-1.3v2.7h-.5v-3.1h1.8c.3,0,.5,0,.7.3.2.2.3.4.3.7v2.2Z"/>
      <path class="cls-4" d="M73,76.4v-1.2c0-.1,0-.3-.1-.3-.1,0-.2-.1-.4-.1h-.7c-.1,0-.3,0-.4.1,0,0-.1.2-.1.3v1.2c0,.1,0,.3.1.4,0,0,.2.1.4.1h.7c.1,0,.3,0,.4-.1,0,0,.1-.2.1-.4M73.5,76.4c0,.3,0,.5-.3.7-.2.2-.4.3-.7.3h-.7c-.3,0-.5,0-.7-.3-.2-.2-.3-.4-.3-.7v-1.2c0-.3,0-.5.3-.7.2-.2.4-.3.7-.3h.7c.3,0,.5,0,.7.3.2.2.3.4.3.7v1.2Z"/>
      <polygon class="cls-4" points="77.2 74.2 75.9 77.4 75.4 77.4 74.2 74.2 74.7 74.2 75.7 76.7 76.6 74.2 77.2 74.2"/>
      <path class="cls-4" d="M80,76.9v-1h-1.2c-.1,0-.3,0-.4.1-.1,0-.2.2-.2.4h0c0,.2,0,.3.1.4,0,.1.2.1.4.1h1.2ZM80.5,77.4h-1.7c-.3,0-.5,0-.7-.3-.2-.2-.3-.4-.3-.7h0c0-.3,0-.6.3-.8.2-.2.4-.3.7-.3h1.2c0-.3,0-.4-.1-.5,0,0-.2-.1-.4-.1h-1.6v-.5h1.6c.3,0,.5,0,.7.3.2.2.3.4.3.7v2.2Z"/>
      <path class="cls-4" d="M83.3,77.4h-.8c-.3,0-.5,0-.7-.3-.2-.2-.3-.4-.3-.7v-1.7h-.3v-.5h.3v-1.1h.5v1.1h1.1v.5h-1.1v1.7c0,.1,0,.3.1.4,0,0,.2.1.4.1h.8v.5Z"/>
      <path class="cls-4" d="M84.2,77.4h-.5v-3.2h.5v3.2ZM84.2,73.6h-.5v-.6h.5v.6Z"/>
      <polygon class="cls-4" points="87.8 74.2 86.6 77.4 86.1 77.4 84.8 74.2 85.4 74.2 86.3 76.7 87.3 74.2 87.8 74.2"/>
      <path class="cls-4" d="M91.1,76.9v.5h-1.6c-.3,0-.5,0-.7-.3-.2-.2-.3-.4-.3-.7v-1.2c0-.3,0-.5.3-.7.2-.2.4-.3.7-.3h1.6v.5h-1.6c-.1,0-.3,0-.4.1-.1,0-.1.2-.1.3v.3h2v.5h-2v.4c0,.1,0,.3.1.4,0,0,.2.1.4.1h1.7Z"/>
      <path class="cls-4" d="M97.3,77.4h-.5v-3.3c0-.1,0-.2-.2-.3,0,0-.2-.1-.3-.1h-1.8v3.8h-.5v-4.3h2.3c.3,0,.5,0,.7.3.2.2.3.4.3.7v3.3Z"/>
      <path class="cls-4" d="M100.6,76.9v.5h-1.6c-.3,0-.5,0-.7-.3-.2-.2-.3-.4-.3-.7v-1.2c0-.3,0-.5.3-.7.2-.2.4-.3.7-.3h1.6v.5h-1.6c-.1,0-.3,0-.4.1,0,0-.2.2-.2.3v.3h2v.5h-2v.4c0,.1,0,.3.2.4,0,0,.2.1.4.1h1.6Z"/>
      <path class="cls-4" d="M105.6,77.4h-3.4c-.3,0-.5,0-.7-.3-.2-.2-.3-.4-.3-.7v-2.2h.5v2.2c0,.1,0,.3.1.4,0,.1.2.1.4.1h.9v-2.7h.5v2.7h1.4v-2.7h.5v3.1Z"/>
      <path class="cls-4" d="M111.2,76.4v-2.4c0-.1,0-.3-.1-.3,0,0-.2-.1-.4-.1h-1.7v3.4h1.7c.1,0,.3,0,.4-.1,0,0,.1-.2.1-.4M111.7,76.4c0,.3,0,.5-.3.7-.2.2-.4.3-.7.3h-2.2v-4.3h2.2c.3,0,.5,0,.7.3.2.2.3.4.3.7v2.4Z"/>
      <path class="cls-4" d="M112.9,77.4h-.5v-3.2h.5v3.2ZM112.9,73.6h-.5v-.6h.5v.6Z"/>
      <path class="cls-4" d="M115.7,76.9v-2.1h-1.2c-.1,0-.3,0-.4.1,0,0-.1.2-.1.3v1.2c0,.1,0,.3.1.4.1,0,.2.1.4.1h1.2ZM116.2,77.6c0,.3,0,.5-.3.7-.2.2-.4.3-.7.3h-1.5v-.5h1.5c.1,0,.3,0,.4-.1,0,0,.1-.2.1-.4v-.2h-1.2c-.3,0-.5,0-.7-.3-.2-.2-.3-.4-.3-.7v-1.2c0-.3,0-.5.3-.7.2-.2.4-.3.7-.3h1.7v3.3Z"/>
      <path class="cls-4" d="M117.4,77.4h-.5v-3.2h.5v3.2ZM117.4,73.6h-.5v-.6h.5v.6Z"/>
      <path class="cls-4" d="M120.8,76.6c0,.3-.1.5-.3.6-.2.1-.4.2-.7.2h-1.7v-.5h1.7c.3,0,.5-.1.5-.4h0c0-.4-.2-.5-.5-.5h-.8c-.3,0-.5,0-.7-.2-.2-.2-.3-.4-.3-.6h0c0-.4.1-.6.3-.8.2-.1.4-.2.7-.2h1.7v.5h-1.7c-.3,0-.5.1-.5.4h0c0,.4.2.5.5.5h.8c.3,0,.5,0,.7.2.2.2.3.4.3.6h0Z"/>
      <path class="cls-4" d="M124.1,76.9v.5h-1.6c-.3,0-.5,0-.7-.3-.2-.2-.3-.4-.3-.7v-1.2c0-.3,0-.5.3-.7.2-.2.4-.3.7-.3h1.6v.5h-1.6c-.1,0-.3,0-.4.1-.1,0-.2.2-.2.3v.3h2v.5h-2v.4c0,.1,0,.3.2.4,0,0,.2.1.4.1h1.6Z"/>
      <path class="cls-4" d="M127.2,75.6h-.5v-.4c0-.1,0-.2-.1-.3,0,0-.2-.1-.3-.1h-1v2.7h-.5v-3.1h1.5c.3,0,.5,0,.7.3.2.2.3.4.3.7v.4Z"/>
      <polygon class="cls-4" points="130.8 74.2 129.5 77.4 129 77.4 127.8 74.2 128.3 74.2 129.3 76.7 130.2 74.2 130.8 74.2"/>
      <path class="cls-4" d="M131.9,77.4h-.5v-3.2h.5v3.2ZM131.9,73.6h-.5v-.6h.5v.6Z"/>
      <path class="cls-4" d="M135.2,76.9v.5h-1.6c-.3,0-.5,0-.7-.3-.2-.2-.3-.4-.3-.7v-1.2c0-.3,0-.5.3-.7.2-.2.4-.3.7-.3h1.6v.5h-1.6c-.1,0-.3,0-.4.1-.1,0-.2.2-.2.3v1.2c0,.1,0,.3.1.4,0,0,.2.1.4.1h1.6Z"/>
      <path class="cls-4" d="M138.5,76.9v.5h-1.6c-.3,0-.5,0-.7-.3-.2-.2-.3-.4-.3-.7v-1.2c0-.3,0-.5.3-.7.2-.2.4-.3.7-.3h1.6v.5h-1.6c-.1,0-.3,0-.4.1-.1,0-.1.2-.1.3v.3h2v.5h-2v.4c0,.1,0,.3.1.4,0,0,.2.1.4.1h1.6Z"/>
      <path class="cls-4" d="M141.9,76.6c0,.3-.1.5-.3.6-.2.1-.4.2-.7.2h-1.7v-.5h1.7c.3,0,.5-.1.5-.4h0c0-.4-.2-.5-.5-.5h-.8c-.3,0-.5,0-.7-.2-.2-.2-.3-.4-.3-.6h0c0-.4,0-.6.3-.8.2-.1.4-.2.7-.2h1.7v.5h-1.7c-.3,0-.5.1-.5.4h0c0,.4.2.5.5.5h.8c.3,0,.5,0,.7.2.2.2.3.4.3.6h0Z"/>
    </g>
    <g>
      <path class="cls-4" d="M70,37.4c-1.2.1-2.1.4-2.9.8.4.5,0,.9-.2,1.1.1.2.2.3.2.6,0,.3-.6.5-.3.9.4.4.7-.2,1-.3.3,0,.7,0,.9,0,.5,0,1.2-.5,1.5.2.2.3,0,.8,0,1,.2,0,.3.3.4.5.4,1.2-.9.7-1.3.8-.4.2-.2,1-.9.7-.1,0-.1-.3-.2-.3-.4-.1-.3.4-.5.4-.2,0-.4,0-.5,0-.4,0-.6.2-.9.4-.7.5.5.5.4,1.2,0,.4-.6.8-.7,1.2-.1.4,0,1.1,0,1.5,0,.3-.5.3-.6,0-.1-.3-.2-.8-.4-1.1-.4.2,0,.6,0,.9,0,.4-.2.8,0,1.4,0,.3,1.2,1.4,1.4,1.5.3,0,.7-.5.9-.5.2,0,1,.3,1.3.4.2,0,.6.2.8.3.8.6.4,1.3,2,1.1,1-.2,3.8-1,4-1.7,0-.1,0-.2,0-.4,0,0-.1-.5-.1-.7,0,0,0-.2.2-.5.1-.3,0-.7.2-.9.1-.2.4,0,.5-.2.3-.6,0-1.9,1.1-1.7.2,0,.4.3.5.5.1.3.2.3.2,0,0-.2,0-.2,0-.3-.1-.5.3-.9-.3-1.5-.1-.1-.5-.2-.5-.4,0-.3.2-.5.3-.7,0-.1.1-.3,0-.4-.2-.2-.6,1-1.3,0,0,0,0,0,0-.1-.1-.3,0-.5,0-.8,0-.2-.2-.2-.2-.4-.1-.7.5-.7.9-.7,0-.2,0-.4-.1-.6,0,0,.1-.4.1-.4-.2-.1-.4-.5-.6-.7-.4-.4-.2,0-.2.3,0,0-.2.2-.2.3-.1.3-.8.8-1.1.3-.1-.2,0-.3,0-.5,0-.2-.1-.4,0-.6,0-.3.6-.4.9-.5-1.2-.9-3.1-1.9-5.1-1.7"/>
      <path class="cls-4" d="M70.3,52.3c-1.7,0-3.3-.5-4.6-1.6-1.2-1-2.1-2.3-2.5-3.7-.6-2.1-.3-4.1.6-5.8.6-1.1,1.5-2,2.5-2.7,1.1-.7,2.5-1.1,3.9-1.2,0,0,.1,0,.2,0h0c1.8,0,3.6.7,5,2,1.3,1.2,2.1,2.9,2.3,4.6.2,2.1-.5,3.8-1,4.6-1.2,1.9-3,3.2-5.1,3.5-.5,0-.9.1-1.3.1M70.5,37.2h0c0,0-.1,0-.2,0-3.2,0-5.4,1.8-6.6,4-.6,1.1-1,2.3-1,3.6,0,.7,0,1.5.3,2.3.8,2.9,3.6,5.4,7.3,5.4s.9,0,1.4-.1c2.4-.4,4.1-1.9,5.2-3.6.6-1,1.1-2.4,1.1-3.9s0-.5,0-.8c-.4-3.6-3.5-6.9-7.6-6.9"/>
    </g>
  </g>
  <g>
    <path class="cls-2" d="M60.9,56s-.1.2-.2.2-.2-.2-.2-.2c0-.4-.8-2.4-2-3.3-1.3-1-3.7-1.2-4.1-1.2h-15.8v8.1h10.6c.4,0,1.9-.3,2.3-1.2.3-.6,1.1-2.9,1.1-3.3,0,0,.1-.2.2-.2s.2.2.2.2v9.6s-.1.2-.2.2-.2-.2-.2-.2c0-.4-.8-2.7-1.1-3.3-.4-.9-1.9-1.2-2.3-1.2h-10.6v6.3c0,.4.3,1.2,1.2,1.6.6.3,2.9.4,3.3.4,0,0,.2.1.2.2s-.2.2-.2.2h-13.6s-.2-.1-.2-.2.2-.2.2-.2c.4,0,2.7-.1,3.3-.4.9-.4,1.2-1.2,1.2-1.6v-13.1c0-.4-.3-1.2-1.2-1.6-.6-.3-2.9-.4-3.3-.4,0,0-.2-.1-.2-.2s.2-.2.2-.2h31.4v5.1Z"/>
    <path class="cls-2" d="M75.4,54.8c-.3,0-2.2,0-2.7.3-.7.4-.9.9-.9,1.3v10.5c0,.3.2.9.9,1.3.5.2,2.3.3,2.7.3,0,0,.2,0,.2.2s-.2.2-.2.2h-10.9s-.2,0-.2-.2.2-.2.2-.2c.3,0,2.2-.1,2.7-.3.7-.4,1-1,1-1.3v-10.5c0-.4-.3-.9-1-1.3-.5-.2-2.3-.3-2.7-.3,0,0-.2,0-.2-.2s.2-.2.2-.2h10.9s.2,0,.2.2-.2.2-.2.2"/>
    <path class="cls-2" d="M107.5,51.3c-.4,0-2.7.1-3.3.4-.9.4-1.2,1.2-1.2,1.7v15.6h-1.1l-17.7-15.4v12.9c0,.4.3,1.2,1.2,1.6.6.3,2.9.4,3.3.4,0,0,.2.1.2.2s-.2.2-.2.2h-9.6s-.2-.1-.2-.2.2-.2.2-.2c.4,0,2.7-.1,3.3-.4.9-.4,1.2-1.2,1.2-1.6v-13.2c0-.2-.8-1.1-1.7-1.6-.6-.3-2.4-.4-2.8-.4,0,0-.2-.1-.2-.2s.2-.2.2-.2h8.4l14.9,12.9v-10.4c0-.4-.3-1.2-1.2-1.6-.6-.3-2.9-.4-3.3-.4,0,0-.2-.1-.2-.2s.2-.2.2-.2h9.6s.2.1.2.2-.2.2-.2.2"/>
    <path class="cls-2" d="M128.4,51.4h-8v17h8c6.7,0,8-3.9,8-8.5s-1.3-8.5-8-8.5M128.4,68.9h-17s-.2-.1-.2-.2.2-.2.2-.2c.4,0,2.7-.1,3.3-.4.9-.4,1.2-1.2,1.2-1.6v-13.1c0-.4-.3-1.2-1.2-1.6-.6-.3-2.9-.4-3.3-.4,0,0-.2-.1-.2-.2s.2-.2.2-.2h17.1c6.8,0,12.6,4,12.6,9.1s-5.7,9-12.6,9"/>
    <path class="cls-2" d="M32.1,73h-2.2c-.1,0-.3,0-.4.1-.1,0-.2.2-.2.4v.9h2.5v.5h-2.5v2h-.5v-3.3c0-.3,0-.5.3-.7.2-.2.4-.3.7-.3h2.2v.5Z"/>
    <path class="cls-2" d="M34.8,75.8v-1.2c0-.1,0-.3-.1-.3-.1,0-.2-.1-.4-.1h-.8c-.1,0-.3,0-.4.1,0,0-.1.2-.1.3v1.2c0,.1,0,.3.1.4,0,0,.2.1.4.1h.8c.1,0,.3,0,.4-.1,0,0,.1-.2.1-.4M35.3,75.8c0,.3,0,.5-.3.7-.2.2-.4.3-.7.3h-.7c-.3,0-.5,0-.7-.3-.2-.2-.3-.4-.3-.7v-1.2c0-.3,0-.5.3-.7.2-.2.4-.3.7-.3h.7c.3,0,.5,0,.7.3.2.2.3.4.3.7v1.2Z"/>
    <path class="cls-2" d="M38.5,75.1h-.5v-.4c0-.1,0-.2-.1-.3-.1,0-.2-.1-.4-.1h-1v2.7h-.5v-3.1h1.5c.3,0,.5,0,.7.3.2.2.3.4.3.7v.4Z"/>
    <path class="cls-2" d="M41.7,76.4v.5h-1.6c-.3,0-.5,0-.7-.3-.2-.2-.3-.4-.3-.7v-1.2c0-.3,0-.5.3-.7.2-.2.4-.3.7-.3h1.6v.5h-1.6c-.1,0-.3,0-.4.1,0,0-.1.2-.1.4v.3h2v.5h-2v.4c0,.1,0,.3.1.4.1,0,.2.1.4.1h1.7Z"/>
    <path class="cls-2" d="M45.1,76c0,.3,0,.5-.3.6-.2.1-.4.2-.7.2h-1.7v-.5h1.7c.3,0,.5-.1.5-.4h0c0-.4-.2-.5-.5-.5h-.8c-.3,0-.5,0-.7-.2-.2-.2-.3-.4-.3-.6h0c0-.4,0-.6.3-.8.2-.1.4-.2.7-.2h1.7v.5h-1.7c-.3,0-.5.1-.5.4h0c0,.4.2.5.5.5h.8c.3,0,.5,0,.7.2.2.2.3.4.3.6h0Z"/>
    <path class="cls-2" d="M48.4,76.4v.5h-1.7c-.3,0-.5,0-.7-.3-.2-.2-.3-.4-.3-.7v-1.2c0-.3,0-.5.3-.7.2-.2.4-.3.7-.3h1.6v.5h-1.6c-.1,0-.3,0-.4.1-.1,0-.2.2-.2.4v.3h2v.5h-2v.4c0,.1,0,.3.1.4,0,0,.2.1.4.1h1.7Z"/>
    <path class="cls-2" d="M51.7,76.4v.5h-1.7c-.3,0-.5,0-.7-.3-.2-.2-.3-.4-.3-.7v-1.2c0-.3,0-.5.3-.7.2-.2.4-.3.7-.3h1.6v.5h-1.6c-.1,0-.3,0-.4.1-.1,0-.1.2-.1.4v.3h2v.5h-2v.4c0,.1,0,.3.1.4,0,0,.2.1.4.1h1.7Z"/>
    <path class="cls-2" d="M52.8,76.9h-.5v-3.2h.5v3.2ZM52.8,73.1h-.5v-.6h.5v.6Z"/>
    <path class="cls-2" d="M56.2,76.8h-.5v-2.2c0-.1,0-.2-.2-.3,0,0-.2-.1-.3-.1h-1.3v2.7h-.5v-3.1h1.8c.3,0,.5,0,.7.3.2.2.3.4.3.7v2.2Z"/>
    <path class="cls-2" d="M59.1,76.3v-2.1h-1.2c-.1,0-.3,0-.4.1,0,0-.1.2-.1.3v1.2c0,.1,0,.3.1.4,0,0,.2.1.4.1h1.2ZM59.6,77c0,.3,0,.5-.3.7-.2.2-.4.3-.7.3h-1.5v-.5h1.5c.1,0,.3,0,.4-.1.1,0,.1-.2.1-.4v-.2h-1.2c-.3,0-.5,0-.7-.3-.2-.2-.3-.4-.3-.7v-1.2c0-.3,0-.5.3-.7.2-.2.4-.3.7-.3h1.7v3.3Z"/>
    <rect class="cls-2" x="62.5" y="72.5" width=".5" height="4.3"/>
    <path class="cls-2" d="M66.4,76.8h-.5v-2.2c0-.1,0-.2-.1-.3-.1,0-.2-.1-.4-.1h-1.3v2.7h-.5v-3.1h1.8c.3,0,.5,0,.7.3.2.2.3.4.3.7v2.2Z"/>
    <path class="cls-2" d="M69.8,76.8h-.5v-2.2c0-.1,0-.2-.1-.3,0,0-.2-.1-.3-.1h-1.3v2.7h-.5v-3.1h1.8c.3,0,.5,0,.7.3.2.2.3.4.3.7v2.2Z"/>
    <path class="cls-2" d="M72.7,75.8v-1.2c0-.1,0-.3-.1-.3-.1,0-.2-.1-.4-.1h-.7c-.1,0-.3,0-.4.1,0,0-.1.2-.1.3v1.2c0,.1,0,.3.1.4,0,0,.2.1.4.1h.7c.1,0,.3,0,.4-.1.1,0,.1-.2.1-.4M73.2,75.8c0,.3,0,.5-.3.7-.2.2-.4.3-.7.3h-.7c-.3,0-.5,0-.7-.3-.2-.2-.3-.4-.3-.7v-1.2c0-.3,0-.5.3-.7.2-.2.4-.3.7-.3h.7c.3,0,.5,0,.7.3.2.2.3.4.3.7v1.2Z"/>
    <polygon class="cls-2" points="76.8 73.7 75.6 76.8 75 76.8 73.8 73.7 74.3 73.7 75.3 76.2 76.3 73.7 76.8 73.7"/>
    <path class="cls-2" d="M79.6,76.4v-1h-1.2c-.1,0-.3,0-.4.1-.1,0-.2.2-.2.3h0c0,.2,0,.3.1.4,0,.1.2.1.4.1h1.2ZM80.1,76.9h-1.7c-.3,0-.5,0-.7-.3-.2-.2-.3-.4-.3-.7h0c0-.3,0-.6.3-.8.2-.2.4-.3.7-.3h1.2c0-.3,0-.4-.1-.5,0,0-.2-.1-.4-.1h-1.6v-.5h1.6c.3,0,.5,0,.7.3.2.2.3.4.3.7v2.2Z"/>
    <path class="cls-2" d="M82.9,76.8h-.8c-.3,0-.5,0-.7-.3-.2-.2-.3-.4-.3-.7v-1.7h-.3v-.5h.3v-1.1h.5v1.1h1.1v.5h-1.1v1.7c0,.1,0,.3.1.4,0,0,.2.1.4.1h.8v.5Z"/>
    <path class="cls-2" d="M83.8,76.9h-.5v-3.2h.5v3.2ZM83.8,73.1h-.5v-.6h.5v.6Z"/>
    <polygon class="cls-2" points="87.5 73.7 86.2 76.8 85.7 76.8 84.5 73.7 85 73.7 86 76.2 86.9 73.7 87.5 73.7"/>
    <path class="cls-2" d="M90.8,76.4v.5h-1.6c-.3,0-.5,0-.7-.3-.2-.2-.3-.4-.3-.7v-1.2c0-.3,0-.5.3-.7.2-.2.4-.3.7-.3h1.6v.5h-1.6c-.1,0-.3,0-.4.1-.1,0-.1.2-.1.4v.3h2v.5h-2v.4c0,.1,0,.3.1.4,0,0,.2.1.4.1h1.7Z"/>
    <path class="cls-2" d="M96.9,76.8h-.5v-3.3c0-.1,0-.2-.2-.3,0,0-.2-.1-.3-.1h-1.8v3.8h-.5v-4.3h2.3c.3,0,.5,0,.7.3.2.2.3.4.3.7v3.3Z"/>
    <path class="cls-2" d="M100.2,76.4v.5h-1.6c-.3,0-.5,0-.7-.3-.2-.2-.3-.4-.3-.7v-1.2c0-.3,0-.5.3-.7.2-.2.4-.3.7-.3h1.6v.5h-1.6c-.1,0-.3,0-.4.1-.1,0-.2.2-.2.4v.3h2v.5h-2v.4c0,.1,0,.3.2.4,0,0,.2.1.4.1h1.6Z"/>
    <path class="cls-2" d="M105.3,76.9h-3.4c-.3,0-.5,0-.7-.3-.2-.2-.3-.4-.3-.7v-2.2h.5v2.2c0,.1,0,.3.1.4,0,.1.2.1.4.1h.9v-2.7h.5v2.7h1.4v-2.7h.5v3.1Z"/>
    <path class="cls-2" d="M110.9,75.9v-2.4c0-.1,0-.3-.1-.3,0,0-.2-.1-.4-.1h-1.7v3.4h1.7c.1,0,.3,0,.4-.1,0,0,.1-.2.1-.4M111.4,75.9c0,.3,0,.5-.3.7-.2.2-.4.3-.7.3h-2.2v-4.3h2.2c.3,0,.5,0,.7.3.2.2.3.4.3.7v2.4Z"/>
    <path class="cls-2" d="M112.5,76.9h-.5v-3.2h.5v3.2ZM112.5,73.1h-.5v-.6h.5v.6Z"/>
    <path class="cls-2" d="M115.4,76.3v-2.1h-1.2c-.1,0-.3,0-.4.1,0,0-.1.2-.1.3v1.2c0,.1,0,.3.1.4,0,0,.2.1.4.1h1.2ZM115.9,77c0,.3,0,.5-.3.7-.2.2-.4.3-.7.3h-1.5v-.5h1.5c.1,0,.3,0,.4-.1,0,0,.1-.2.1-.4v-.2h-1.2c-.3,0-.5,0-.7-.3-.2-.2-.3-.4-.3-.7v-1.2c0-.3,0-.5.3-.7.2-.2.4-.3.7-.3h1.7v3.3Z"/>
    <path class="cls-2" d="M117,76.9h-.5v-3.2h.5v3.2ZM117,73.1h-.5v-.6h.5v.6Z"/>
    <path class="cls-2" d="M120.4,76c0,.3-.1.5-.3.6-.2.1-.4.2-.7.2h-1.7v-.5h1.7c.3,0,.5-.1.5-.4h0c0-.4-.2-.5-.5-.5h-.8c-.3,0-.5,0-.7-.2-.2-.2-.3-.4-.3-.6h0c0-.4.1-.6.3-.8.2-.1.4-.2.7-.2h1.7v.5h-1.7c-.3,0-.5.1-.5.4h0c0,.4.2.5.5.5h.8c.3,0,.5,0,.7.2.2.2.3.4.3.6h0Z"/>
    <path class="cls-2" d="M123.7,76.4v.5h-1.6c-.3,0-.5,0-.7-.3-.2-.2-.3-.4-.3-.7v-1.2c0-.3,0-.5.3-.7.2-.2.4-.3.7-.3h1.6v.5h-1.6c-.1,0-.3,0-.4.1-.1,0-.2.2-.2.4v.3h2v.5h-2v.4c0,.1,0,.3.2.4,0,0,.2.1.4.1h1.6Z"/>
    <path class="cls-2" d="M126.9,75.1h-.5v-.4c0-.1,0-.2-.1-.3,0,0-.2-.1-.3-.1h-1v2.7h-.5v-3.1h1.5c.3,0,.5,0,.7.3.2.2.3.4.3.7v.4Z"/>
    <polygon class="cls-2" points="130.4 73.7 129.2 76.8 128.6 76.8 127.4 73.7 127.9 73.7 128.9 76.2 129.9 73.7 130.4 73.7"/>
    <path class="cls-2" d="M131.5,76.9h-.5v-3.2h.5v3.2ZM131.5,73.1h-.5v-.6h.5v.6Z"/>
    <path class="cls-2" d="M134.8,76.4v.5h-1.6c-.3,0-.5,0-.7-.3-.2-.2-.3-.4-.3-.7v-1.2c0-.3,0-.5.3-.7.2-.2.4-.3.7-.3h1.6v.5h-1.6c-.1,0-.3,0-.4.1-.1,0-.2.2-.2.4v1.2c0,.1,0,.3.1.4,0,0,.2.1.4.1h1.7Z"/>
    <path class="cls-2" d="M138.1,76.4v.5h-1.7c-.3,0-.5,0-.7-.3-.2-.2-.3-.4-.3-.7v-1.2c0-.3,0-.5.3-.7.2-.2.4-.3.7-.3h1.6v.5h-1.6c-.1,0-.3,0-.4.1-.1,0-.2.2-.2.4v.3h2v.5h-2v.4c0,.1,0,.3.1.4,0,0,.2.1.4.1h1.7Z"/>
    <path class="cls-2" d="M141.5,76c0,.3-.1.5-.3.6-.2.1-.4.2-.7.2h-1.7v-.5h1.7c.3,0,.5-.1.5-.4h0c0-.4-.2-.5-.5-.5h-.8c-.3,0-.5,0-.7-.2-.2-.2-.3-.4-.3-.6h0c0-.4,0-.6.3-.8.2-.1.4-.2.7-.2h1.7v.5h-1.7c-.3,0-.5.1-.5.4h0c0,.4.2.5.5.5h.8c.3,0,.5,0,.7.2.2.2.3.4.3.6h0Z"/>
    <path class="cls-3" d="M69.5,37.1c-1.2.1-2.1.4-2.9.8.4.5,0,.9-.2,1.1.1.2.2.3.2.6,0,.3-.6.5-.3.9.4.4.8-.2,1-.3.3,0,.7,0,.9,0,.5,0,1.2-.5,1.5.2.2.3,0,.8,0,1,.2,0,.3.3.4.5.4,1.2-.9.7-1.3.8-.4.2-.2,1-.9.7-.1,0-.1-.3-.2-.3-.4-.1-.3.4-.5.4-.2,0-.4,0-.5,0-.4,0-.6.2-.9.4-.7.5.5.5.4,1.2,0,.4-.6.8-.7,1.2-.1.4,0,1.1,0,1.5,0,.3-.5.3-.6,0-.1-.3-.2-.8-.4-1.1-.4.2,0,.6,0,.9,0,.4-.2.8,0,1.4,0,.3,1.2,1.4,1.4,1.5.3,0,.7-.5.9-.5.2,0,1,.3,1.3.4.2,0,.6.2.8.3.8.6.4,1.3,2,1.1,1-.2,3.7-1,4-1.7,0-.1,0-.2,0-.4,0,0-.1-.5-.1-.7,0,0,0-.2.2-.5.1-.3,0-.7.2-.9.1-.2.4,0,.5-.2.3-.6,0-1.9,1.1-1.7.2,0,.4.3.5.5.1.3.2.3.2,0,0-.2,0-.2,0-.3-.1-.5.3-.9-.3-1.5-.1-.1-.5-.2-.5-.4,0-.3.2-.5.3-.7,0-.1.1-.3,0-.4-.2-.2-.6,1-1.3,0,0,0,0,0,0-.1-.1-.3,0-.5,0-.8,0-.2-.2-.2-.2-.4-.1-.7.5-.7.9-.7,0-.2,0-.4-.1-.6,0,0,.1-.4.1-.4-.2-.1-.4-.5-.6-.7-.4-.4-.2,0-.2.3,0,0-.2.2-.2.3-.1.3-.8.8-1.1.3-.1-.2,0-.3,0-.5,0-.2,0-.4,0-.6,0-.3.6-.4.9-.5-1.2-.9-3.1-1.9-5.1-1.7"/>
    <path class="cls-1" d="M69.9,52c-1.7,0-3.3-.5-4.6-1.6-1.2-1-2.1-2.3-2.5-3.7-.6-2.1-.3-4.1.6-5.8.6-1.1,1.5-2,2.5-2.7,1.1-.7,2.5-1.1,3.9-1.2,0,0,.1,0,.2,0h0c1.8,0,3.6.7,5,2,1.3,1.2,2.1,2.9,2.3,4.6.2,2.1-.5,3.8-1,4.6-1.2,1.9-3,3.2-5.1,3.5-.5,0-.9.1-1.3.1M70,36.9h0c0,0-.1,0-.2,0-3.2,0-5.4,1.8-6.6,4-.6,1.1-1,2.3-1,3.6,0,.7,0,1.5.3,2.3.8,2.9,3.6,5.4,7.3,5.4s.9,0,1.4-.1c2.4-.4,4.1-1.9,5.2-3.6.6-1,1.1-2.4,1.1-3.9s0-.5,0-.8c-.4-3.6-3.5-6.9-7.6-6.9"/>
  </g>
</svg>