<?xml version="1.0" encoding="utf-8"?>
<!-- Generator: Adobe Illustrator 28.0.0, SVG Export Plug-In . SVG Version: 6.00 Build 0)  -->
<svg version="1.1" id="圖層_1" xmlns="http://www.w3.org/2000/svg" xmlns:xlink="http://www.w3.org/1999/xlink" x="0px" y="0px"
	 viewBox="0 0 750 290" style="enable-background:new 0 0 750 290;" xml:space="preserve">
<style type="text/css">
	.st0{fill:#B50005;}
	.st1{fill:#AE683E;}
</style>
<g>
	<g>
		<polygon class="st0" points="141,179.4 140.4,176.2 133.6,137.2 133,133.7 129.6,134.5 120.1,136.7 117.1,137.4 117.6,140.5 
			124.4,178.9 125,182.1 128.2,181.5 137.8,179.9 		"/>
		<polygon class="st0" points="206.1,187.7 206.1,143.8 253.2,143.8 256.4,143.8 256.4,140.5 256.4,131.2 256.4,127.9 253.2,127.9 
			144.9,127.9 141.6,127.9 141.6,131.2 141.6,140.5 141.6,143.8 144.9,143.8 189.8,143.8 189.8,187.7 137.6,187.7 134.4,187.7 
			134.4,191 134.4,200.9 134.4,204.2 137.6,204.2 259.5,204.2 262.8,204.2 262.8,200.9 262.8,191 262.8,187.7 259.5,187.7 		"/>
		<path class="st0" d="M349.3,168.7l-1.2-2.8l-3.9-8.5l-1.3-2.8l-2.9,1.2l-21.1,8.3v-56.7h21.6h3.2v-3.2v-9.4v-3.2h-3.2H319V41.6
			h23.1h3.2v-3.2v-9.3v-3.2h-3.2h-62h-3.2v3.2v9.3v3.2h3.2h22.6v49.9h-22.6h-3.2v3.2v9.4v3.2h3.2h22.6v62l-24.1,6.9l-3.6,1l1.4,3.4
			l3.7,8.7l1.1,2.6l2.8-0.7c29.4-7.6,50.4-14.7,62.6-21.2L349.3,168.7z"/>
		<path class="st0" d="M129,126l1,3l3-0.8l9.1-2.3l3.2-0.8l-0.9-3.2c-1.9-6.7-6.3-18.2-13.8-36.5l-1.2-2.8l-2.9,1l-9.1,3.2l-3.3,1.2
			l1.4,3.2l5,11.4l-25.8,2.5c17-20.2,28.3-39.4,33.7-57.5l1-3.2l-3.2-0.9l-9.2-2.5l-3-0.8l-1,3c-3,9.1-7.4,18.4-13.3,28.4l-10.9-9.8
			c7.4-13.5,13.1-25,16.8-34.3l1.1-2.9l-2.8-1.3l-8.6-4.1L92,17.8L90.7,21C86,32.5,81.2,42.9,76.3,52.1L69,47.3l-2.8-1.9l-1.7,2.8
			l-5,7.9L57.7,59l2.9,1.7c9.7,5.8,19.6,13.6,30.1,23.9c-5.9,8.1-11.9,15.6-18.2,22.8l-9.8,0.8l-3.8,0.3l0.9,3.7l2.2,9.1l0.7,2.8
			l2.8-0.3l28.9-2.8V207v3.2h3.2h9.6h3.2V207v-87.4l15.8-1.7L129,126z"/>
		<path class="st0" d="M690.8,188.6c-46.4-37.4-73.3-70.7-84.6-105.1c-4.6-13.2-7.3-26.2-8-38.7c0,0.2,0-1.9,0-1.9
			c0,0.1,0.4-9.2,0.4-9.2c0-0.1,0-14.7,0-14.7v-3.2h-3.2h-12.9h-3.2V19v15.2c0,55.3-15.5,96.7-47.3,126.6
			c-11.1,11.2-25,18.7-40.7,26.7l-3.6,1.8l2.5,3.2l7.7,9.6l1.8,2.3l2.5-1.5c30.7-18.6,49.5-34.5,62.8-53.1
			c12.1-18.1,20.5-35.5,25.9-54c9.8,26.9,28.1,53.1,56.7,81.4l0.1,0.1l0.1,0.1l28.5,24.4l2,1.7l2.1-1.7l10.5-8.1l3.3-2.5
			L690.8,188.6z"/>
		<path class="st0" d="M251.3,52.3l-2.9-1.3l-8.8-3.9l-3.5-1.5l-1,3.6c-3.1,11.6-7.8,21.2-14.2,29.4c-2.3,3.1-2.2,6.4,0.2,8.9
			c6,6.7,12.2,16.9,18.9,31l1.6,3.3l3.1-1.9l8.3-5.1l2.7-1.7l-1.6-2.8c-7.6-13.3-13.7-22.8-17.9-27.6c4.8-7.5,9.5-16.8,13.9-27.7
			L251.3,52.3z"/>
		<path class="st0" d="M75.2,134.8l-3.4-0.7l-0.5,3.5c-1.7,13.7-6.5,31.5-14,53l-1.2,3.3l3.4,0.9l9.4,2.5l2.9,0.8l1-2.8
			c8-21.8,12.7-39.8,14.7-54.9l0.3-3l-3-0.6L75.2,134.8z"/>
		<polygon class="st0" points="254.7,41.5 258,41.5 258,38.3 258,29.1 258,25.8 254.7,25.8 138.4,25.8 135.1,25.8 135.1,29.1 
			135.1,38.3 135.1,41.5 138.4,41.5 		"/>
		<path class="st0" d="M182.9,91.2c5.1,5.7,11.2,15.4,17.7,28.1l1.7,3.2l3-2l8-5.2l2.6-1.7l-1.7-2.7c-7.7-12.7-14.2-22.1-19.2-27.8
			c4.3-5.6,9.8-14.4,16.9-27l1.6-2.8l-2.8-1.7l-8.3-4.8l-3.2-1.9l-1.4,3.4c-5.2,12-11,21.7-18,29.7l0.1-0.1
			C175.7,82.5,180.8,88.7,182.9,91.2z"/>
		<path class="st0" d="M173,52.7l-2.9-1.4l-8.6-4.2l-3.3-1.6L157,49c-4.3,12.4-9.7,22.6-16,30.3c-3.6,4.3,1.2,10.7,3,13.1
			c5.2,7.5,10.1,16.7,14.9,28.3l1.4,3.4l3.2-1.9l8.3-4.9l2.7-1.6l-1.4-2.8c-6.8-13.4-12.5-22.9-17.3-29c4.7-6.7,10-16.2,15.7-28.3
			L173,52.7z"/>
		<path class="st0" d="M470.3,11.3l-33.4,31.3l-17.1-14.4l-2.3-1.9h-66.8v34.5l-7.2,6.4l7.2,6.7v54.6h47.8V146h-48.3H347v3.2v9.4
			v3.2h3.2h48.3v25.7h-58.2h-3.2v3.2v10v3.2h3.2h133.1h3.2v-3.2v-10v-3.2h-3.2h-58.7v-25.7h51.2h3.2v-3.2v-9.4V146h-3.2h-51.2v-17.6
			h51V66.9l-3-2.5l-12-10.1l29.6-35.1L470.3,11.3z M413.9,45l10.8,9.1l-10.8,10.2V45z M367.3,111.8V89.1l24.8,22.8H367.3z
			 M367.3,57.5V42.9h31.3V81l-1-0.7L367.3,57.5z M449.2,111.8h-47.3l17.5-20.6l29.9-0.1L449.2,111.8L449.2,111.8z M449.2,75.7h-16.4
			L440,67l9.1,7.6L449.2,75.7L449.2,75.7z"/>
	</g>
	<g>
		<polygon class="st0" points="628.5,186.5 632.5,186.5 632.5,184.8 632.1,184.8 622.3,184.8 622.3,186.5 626.7,186.5 626.7,192.9 
			621.7,192.9 621.7,194.6 626.7,194.6 626.7,203.7 628.5,203.7 628.5,194.6 633.3,194.6 633.3,192.9 628.5,192.9 		"/>
		<path class="st0" d="M617,184.7h-14.5c-0.4,0-0.7,0.3-0.7,0.7v8.6c-0.1,2.4-0.8,5.3-2.3,8.4l-0.1,0.4l1.7,0.6l0.1-0.3
			c0.9-1.8,1.6-3.9,2.1-6.1h12.7v4.3c0,0,0,0.1,0,0.2c-0.2,0.1-1,0.3-4.1-0.3l-0.5-0.1v1.9l0.3,0.1c1.4,0.3,2.6,0.5,3.6,0.5
			c0.9,0,1.6-0.3,2.1-0.7c0.3-0.3,0.5-0.7,0.5-1.2v-16.2C617.7,185,617.4,184.7,617,184.7z M615.9,195.1h-12.4
			c0-0.3,0.1-0.7,0.1-0.7v-2.8h12.3V195.1z M615.9,189.9h-12.3v-3.5h12.3V189.9z"/>
		<polygon class="st0" points="636,184.7 635.6,184.7 634.2,184.7 634.2,199.3 636,199.3 		"/>
		<path class="st0" d="M640.9,183.8h-1.4v17.7c0,0,0,0.1-0.1,0.1c-0.5,0.3-1.6,0.3-4.2-0.3l-0.6-0.1v1.8l0.3,0.1
			c2.7,0.8,4.5,0.8,5.5,0.1c0.5-0.2,0.7-0.7,0.8-1.3v-18L640.9,183.8L640.9,183.8z"/>
	</g>
	<g>
		<g>
			<path class="st1" d="M66.4,263.5h3.9v-31.4h-3.9v-1h13l5.8,20l5.8-20h12.4v1h-3.9v31.4h3.9v1H87.7v-1h3.9v-31.3l-9.5,32.3H81
				l-9.8-32.2v31.3h3.9v1h-8.8V263.5z"/>
			<path class="st1" d="M114,241.4l4.1,12.2h-8.4L114,241.4z M101.5,264.4h9.5v-1h-4.7l3.1-8.9h9l3,8.9h-4.1v1h15.5v-1h-2.8
				l-11.6-32.6h-1.9l-11.4,32.6h-3.7L101.5,264.4L101.5,264.4z"/>
			<path class="st1" d="M131.7,263.5h3.9v-31.4h-3.9v-1h12.7l12.9,21.2v-20.2h-4v-1h8.9v1h-3.9v32.3h-2.9l-18.9-30.9v29.9h3.9v1
				h-8.8L131.7,263.5L131.7,263.5z"/>
			<path class="st1" d="M170.2,241.4l4.1,12.2H166L170.2,241.4z M157.7,264.4h9.5v-1h-4.7l3.1-8.9h9l3,8.9h-4.1v1H189v-1h-2.8
				l-11.6-32.6h-1.9l-11.4,32.6h-3.7V264.4z"/>
			<path class="st1" d="M211.9,230.9h0.9l0.5,9.6h-1c-0.5-1.6-0.9-2.8-1.2-3.4c-0.3-0.7-1.2-1.9-2.5-3.4c-1.3-1.6-3.4-2.4-6.3-2.4
				c-1.4,0-2.8,0.3-3.9,1c-1.2,0.6-2.1,1.7-2.8,3.2s-1,5.6-1,12.3c0,3.4,0.1,6.1,0.3,7.9s0.6,3.7,1.3,5.6c0.7,1.9,2.4,2.8,5.3,2.8
				c1.7,0,2.8-0.5,3.6-1.4c0.8-1,1.1-2.5,1.1-4.7v-6.7h-3.9v-1h15.5v1h-3.4v6.7c-0.4,0.6-0.8,1-1.1,1.4c-0.3,0.4-1,1.1-1.8,2
				c-0.8,1-2.2,1.8-4,2.5c-1.8,0.7-3.7,1.1-5.8,1.1c-5,0-8.8-1.8-11.6-5.4c-2.8-3.6-4.1-7.5-4.1-11.7c0-4.9,1.5-9,4.6-12.4
				c3-3.4,6.7-5,11.1-5c1.7,0,3.1,0.2,4.2,0.6c1.1,0.3,2.5,1.1,4.2,2.3L211.9,230.9z"/>
			<path class="st1" d="M217,263.5h4v-31.4h-4v-1H243l0.5,9.1h-1c-0.4-1.9-1.2-3.8-2.4-5.5c-1.2-1.7-3-2.6-5.4-2.6h-6.1v15.1h0.8
				c0.4,0,0.8,0,1.2,0c0.4,0,1-0.1,1.8-0.3c0.8-0.2,1.4-0.7,2-1.5c0.4-0.6,0.8-1.2,0.9-1.8c0.2-0.6,0.3-1.7,0.5-3h1v14.3h-1
				c-0.1-1.2-0.3-2.1-0.5-2.8c-0.2-0.6-0.6-1.4-1.2-2.4c-0.6-1-2.1-1.5-4.3-1.5h-1.1v15.4h6.1c1,0,2.2-0.3,3.4-1
				c1.2-0.6,2.1-1.4,2.9-2.3c0.8-1,1.2-1.8,1.6-2.5c0.3-0.8,0.7-2,1.1-3.6h0.8l-0.4,10.5H217L217,263.5L217,263.5z"/>
			<path class="st1" d="M256.9,232h4.5c1.5,0,2.7,0.6,3.5,1.7c0.8,1.2,1.2,3,1.2,5.6c0,2.5-0.4,4.3-1.3,5.3
				c-0.9,1.1-2.3,1.7-4.3,1.7H257L256.9,232L256.9,232z M245.2,264.4H261v-1h-4.1v-16.1h3c1.6,0,2.8,0.6,3.6,1.6
				c0.9,1,1.4,2.5,1.4,4.3l0.3,4.1c0,2.4,0.7,4.3,2,5.5c1.4,1.3,3.2,1.9,5.6,1.9c0.8,0,1.5-0.1,2.2-0.2c0.7-0.1,1.5-0.4,2.5-0.8
				l-0.3-0.8c-0.6,0.3-1.2,0.6-1.5,0.6c-0.9,0-1.5-0.3-1.8-1.1c-0.3-0.8-0.5-2.1-0.5-4c0-1.7-0.1-3.2-0.5-4.3
				c-0.3-1.2-0.8-2.2-1.4-3.2c-0.6-1-1.3-1.7-2-2.1c-0.7-0.5-1.4-0.8-2.2-1c-0.8-0.2-1.9-0.4-3.2-0.6c1.4-0.3,2.5-0.5,3.4-0.8
				c0.8-0.3,1.7-0.6,2.6-1.1c1.5-0.8,2.5-1.7,3.2-2.7c0.6-1,1-2.3,1-3.9c0-2.4-1-4.3-2.8-5.6s-4.5-2-7.8-2h-18.2v1h4v31.4h-4v0.9
				H245.2z"/>
		</g>
		<g>
			<path class="st1" d="M287.1,244.4c1.4-0.8,2.5-1.6,3.2-2.3c0.7-0.7,1.3-1.2,1.7-1.6c0.4-0.4,0.8-0.9,1.2-1.3
				c0.4-0.5,0.8-1,1.1-1.4c0.3-0.5,0.8-1.2,1.2-1.9h1v8.6h4v1h-4v14.2c0,1.9,0.6,2.9,1.9,2.9c1.2,0,2.1-1,3-3.1l0.8,0.3
				c-0.4,1.2-0.8,2-1.2,2.5c-0.4,0.6-1,1-1.9,1.6c-1,0.6-2.3,0.8-4,0.8c-3.6,0-5.4-1.4-5.4-4.3v-14.9H287L287.1,244.4L287.1,244.4z"
				/>
			<path class="st1" d="M308.4,253.2c0-3.6,0.3-6,0.8-7.1c0.6-1.1,1.6-1.7,3.2-1.7c1.4,0,2.4,0.5,2.8,1.5c0.3,1,0.6,2.1,0.7,3.2
				c0.1,1.1,0.1,2.7,0.1,4.7c0,1.9-0.1,3.6-0.1,4.9c-0.1,1.3-0.3,2.5-0.6,3.5c-0.3,1-1.3,1.5-3,1.5c-1.7,0-2.6-0.5-3-1.5
				c-0.3-1-0.5-2-0.6-3c-0.1-1-0.1-2.8-0.1-5.2L308.4,253.2L308.4,253.2z M304.5,246.7c-2.1,2-3.2,4.5-3.2,7.4c0,2.9,1,5.4,3.2,7.4
				c2.1,2.1,4.7,3,7.7,3c3,0,5.6-1,7.7-3.1c2.1-2.1,3.2-4.5,3.2-7.4c0-2.9-1-5.4-3.2-7.4c-2.1-2.1-4.6-3-7.6-3
				C309.2,243.6,306.6,244.7,304.5,246.7z"/>
			<path class="st1" d="M339.1,258.5c-0.1,0.5-0.3,1.1-0.7,1.9c-0.3,0.8-0.9,1.4-1.5,2c-0.7,0.6-1.4,0.9-2.1,0.9
				c-0.8,0-1.4-0.3-1.9-0.9c-0.5-0.6-0.8-1.2-0.9-1.7c-0.1-0.6-0.2-1.4-0.2-2.5v-1v-6.3c0-0.3,0-0.6,0-1s0.1-1,0.2-1.7
				c0.2-0.8,0.6-1.4,1.2-2c0.6-0.6,1.1-0.8,1.7-0.8c0.7,0,1.4,0.4,2.1,1.1c0.7,0.8,1.2,1.6,1.7,2.5c0.3,0.9,0.6,1.7,0.6,2.5v5.6
				C339.3,257.5,339.2,258,339.1,258.5z M339.3,247.4c-1-1.4-1.8-2.3-2.7-2.8c-0.8-0.6-1.9-0.8-3.2-0.8c-2.5,0-4.6,1-6.4,3.2
				c-1.8,2.1-2.7,4.7-2.7,7.6c0,2.8,0.9,5.2,2.6,7c1.7,1.9,3.8,2.8,6.3,2.8c2.4,0,4-0.4,4.5-1.3c0.6-0.9,1-1.5,1.2-1.8
				c0.2-0.3,0.3-0.6,0.5-0.9v3.4h9.5v-1h-3v-32.3h-9.8v1h3.1V247.4z"/>
			<path class="st1" d="M361.3,258c0,1-0.3,2-0.9,2.8c-0.6,0.8-1.2,1.2-2.1,1.2c-0.8,0-1.4-0.3-1.8-1.1c-0.4-0.8-0.6-1.7-0.6-3
				c0-1.1,0.2-2,0.7-2.6c0.3-0.6,0.9-1,1.7-1.2c0.8-0.3,1.8-0.5,3-0.5V258z M361.3,252.7l-1.4,0.1c-1.7,0.3-3,0.5-3.7,0.6
				c-0.8,0.1-1.8,0.5-2.9,0.9c-1.1,0.4-1.9,0.9-2.5,1.4c-0.6,0.5-1,1.1-1.2,1.7c-0.3,0.7-0.3,1.3-0.3,1.9c0,1.4,0.5,2.6,1.5,3.6
				c1,0.9,2.3,1.4,3.9,1.4c1.3,0,2.6-0.3,3.7-1c1-0.6,1.9-1.4,2.8-2.6c0.4,1.3,1,2.3,1.7,2.8c0.8,0.6,1.8,0.8,3.2,0.8
				c1.7,0,3.1-0.5,4-1.4l0.7-1l-0.3-0.6c-0.6,0.6-1.1,0.8-1.5,0.8c-0.6,0-0.9-0.3-0.9-1v-1.1v-11.8c0-3-2.8-4.5-8.3-4.5
				c-2.9,0-5.2,0.5-6.7,1.4c-1.7,0.9-2.5,2.2-2.5,3.7c0,0.8,0.3,1.4,0.9,2c0.6,0.6,1.4,0.8,2.3,0.8c0.9,0,1.7-0.3,2.3-0.9
				c0.6-0.6,1-1.3,1-2.1c0-0.6-0.2-1.1-0.6-1.5s-0.6-0.6-0.6-0.8c0-0.1-0.1-0.2-0.1-0.3c0-0.4,0.3-0.8,0.9-1
				c0.6-0.3,1.3-0.4,2.1-0.4c1,0,1.7,0.2,2,0.7c0.3,0.4,0.6,1.2,0.6,2.4v4.9H361.3z"/>
			<path class="st1" d="M368.6,244.4h12.7v1h-3l5,11.4l4.4-11.4h-3.9v-1h7.8v1h-2.8l-11.1,28c-1.4,3.6-3.2,5.3-5.2,5.3
				c-0.9,0-1.7-0.3-2.3-0.9c-0.6-0.6-1-1.3-1-2.2c0-0.8,0.3-1.6,1-2.3c0.7-0.7,1.4-1,2.3-1c0.6,0,1,0.1,1.3,0.3
				c0.3,0.2,0.6,0.5,0.9,0.9c0.3,0.4,0.5,0.7,0.6,0.8c0.1,0.1,0.1,0.1,0.3,0.2c0.3,0,0.5-0.2,0.8-0.6s0.5-0.9,0.8-1.6l3-7.8l-9-19.1
				h-2.3L368.6,244.4L368.6,244.4z"/>
		</g>
	</g>
</g>
</svg>
