<?xml version="1.0" encoding="utf-8"?>
<!-- Generator: Adobe Illustrator 28.1.0, SVG Export Plug-In . SVG Version: 6.00 Build 0)  -->
<svg version="1.1" id="LOGO" xmlns="http://www.w3.org/2000/svg" xmlns:xlink="http://www.w3.org/1999/xlink" x="0px" y="0px"
	 viewBox="0 0 978 425.2" style="enable-background:new 0 0 978 425.2;" xml:space="preserve">
<style type="text/css">
	.st0{fill:#D01126;}
</style>
<g>
	<g>
		<g>
			<g>
				<path d="M366.9,236.3c0.7,0,1,0.3,1,0.9c0,0.6-0.4,0.9-1,0.9h-9.5v24.5c0,0.7-0.3,1-0.9,1s-0.9-0.4-0.9-1V238h-9.4
					c-0.7,0-1-0.3-1-0.9c0-0.6,0.3-0.9,1-0.9L366.9,236.3L366.9,236.3z"/>
				<path d="M387.8,257.4c0,1.8,0.1,3,0.2,3.5c0.2,0.6,0.5,0.9,1.1,0.9c0.7,0,1,0.3,1,0.9s-0.4,0.9-1,0.9c-1.3,0-2.2-0.6-2.5-1.8
					c-0.1-0.5-0.2-0.9-0.3-1.4c-0.4,0.6-0.8,1.1-1.2,1.5c-1.5,1.3-3.9,2-7.2,2c-1.9,0-3.4-0.5-4.4-1.6c-1.1-1-1.6-2.4-1.6-4.2
					c0-1.3,0.4-2.4,1.2-3.3c1-1.1,2.4-1.9,4.4-2.4c2.4-0.6,5.3-1.1,8.6-1.5v1.7c-5.1,0.7-8.4,1.4-10,2.1c-1.7,0.8-2.5,1.9-2.5,3.4
					c0,1.2,0.3,2.1,0.9,2.7c0.8,0.8,2.3,1.3,4.4,1.3c2.7,0,4.6-0.6,5.7-1.6c0.8-0.8,1.2-1.8,1.5-3.1v-0.1v-7.2c0-1.7-0.5-3-1.4-3.7
					c-1-0.8-2.6-1.3-4.6-1.3s-3.5,0.4-4.6,1.1c-1.1,0.7-1.6,1.8-1.6,3.1c0,0.7-0.3,1-0.9,1s-0.9-0.4-0.9-1c0-1.9,0.8-3.3,2.3-4.5
					c1.3-0.9,3.2-1.4,5.7-1.4s4.4,0.6,5.7,1.6c1.3,1.1,2,2.8,2,5.1L387.8,257.4L387.8,257.4z"/>
				<path d="M398.6,236.5c0.3,0.3,0.4,0.6,0.4,1s-0.1,0.8-0.3,1c-0.2,0.2-0.6,0.3-1,0.3s-0.7-0.1-0.9-0.3c-0.3-0.3-0.4-0.6-0.4-1
					s0.1-0.8,0.4-1s0.6-0.3,0.9-0.3C398.1,236.2,398.4,236.3,398.6,236.5z M396.8,244.6c0-0.7,0.3-1,0.9-1s0.9,0.3,0.9,1v18.3
					c0,0.7-0.3,1-0.9,1s-0.9-0.4-0.9-1V244.6z"/>
				<path d="M414.7,247.2c0.2-0.7,0.4-1.3,0.6-1.8c0.2-0.4,0.5-0.6,1.1-0.6s0.9,0.2,1.1,0.6c0.2,0.4,0.4,1,0.6,1.8l4.1,14.4l4.9-17
					c0.1-0.4,0.3-0.7,0.4-1c0.2-0.2,0.4-0.3,0.7-0.2c0.3,0,0.5,0.1,0.7,0.3s0.2,0.5,0.1,0.9l-4.9,17c-0.2,0.6-0.4,1.2-0.7,1.7
					c-0.2,0.5-0.6,0.7-1.2,0.7s-1-0.2-1.1-0.7c-0.2-0.5-0.4-1.1-0.6-1.7l-4.1-14.4l-4.1,14.4c-0.2,0.6-0.4,1.2-0.6,1.7
					s-0.6,0.7-1.1,0.7c-0.6,0-1.1-0.2-1.3-0.7c-0.2-0.5-0.4-1-0.6-1.6l-4.9-17c-0.1-0.3-0.1-0.6,0.1-0.8c0.1-0.3,0.3-0.4,0.6-0.4
					c0.3,0,0.5,0,0.7,0.2s0.4,0.5,0.5,1l4.8,17L414.7,247.2z"/>
				<path d="M448.2,257.4c0,1.8,0.1,3,0.2,3.5c0.2,0.6,0.5,0.9,1.1,0.9c0.7,0,1,0.3,1,0.9s-0.4,0.9-1,0.9c-1.3,0-2.2-0.6-2.5-1.8
					c-0.1-0.5-0.2-0.9-0.3-1.4c-0.4,0.6-0.8,1.1-1.2,1.5c-1.5,1.3-3.9,2-7.2,2c-1.9,0-3.4-0.5-4.4-1.6c-1.1-1-1.6-2.4-1.6-4.2
					c0-1.3,0.4-2.4,1.2-3.3c1-1.1,2.4-1.9,4.4-2.4c2.4-0.6,5.3-1.1,8.6-1.5v1.7c-5.1,0.7-8.4,1.4-9.9,2.1c-1.7,0.8-2.5,1.9-2.5,3.4
					c0,1.2,0.3,2.1,0.9,2.7c0.8,0.8,2.3,1.3,4.4,1.3c2.7,0,4.6-0.6,5.7-1.6c0.8-0.8,1.2-1.8,1.5-3.1v-0.1v-7.2c0-1.7-0.5-3-1.4-3.7
					c-1-0.8-2.6-1.3-4.6-1.3s-3.5,0.4-4.6,1.1c-1.1,0.7-1.6,1.8-1.6,3.1c0,0.7-0.3,1-0.9,1s-0.9-0.4-0.9-1c0-1.9,0.8-3.3,2.3-4.5
					c1.3-0.9,3.2-1.4,5.7-1.4s4.4,0.6,5.7,1.6c1.3,1.1,2,2.8,2,5.1v7.3H448.2z"/>
				<path d="M457.2,244.6c0-0.7,0.3-1,0.9-1s0.9,0.3,0.9,1v2.6c0.8-1.1,1.5-2,2.3-2.5c1.3-0.9,2.9-1.3,4.8-1.3
					c1.4,0,2.6,0.3,3.7,0.9c1,0.5,1.8,1.2,2.4,2.2c0.7,1.1,1.1,2.7,1.1,4.9v11.4c0,0.7-0.3,1-0.9,1s-0.9-0.4-0.9-1v-11.4
					c0-2.2-0.5-3.7-1.5-4.7c-1-1.1-2.7-1.6-4.8-1.6c-1.4,0-2.5,0.3-3.4,0.9c-1.1,0.7-1.9,1.6-2.3,2.6c-0.4,0.9-0.6,1.9-0.7,3.2v11.1
					c0,0.7-0.3,1-0.9,1s-0.9-0.4-0.9-1v-10v-8.3H457.2z"/>
				<path d="M494.8,236.3h7.8c4.3,0,7.5,1.2,9.5,3.5c2.1,2.4,3.1,5.4,3.1,9.2c0,4.9-1,8.5-3.1,11.1c-1.9,2.4-5.1,3.6-9.7,3.6H495
					c-1.2,0-1.8-0.6-1.8-1.7v-24C493.2,236.9,493.8,236.3,494.8,236.3z M494.9,262h7.7c3.9,0,6.7-1,8.4-3.1c1.7-2.1,2.6-5.4,2.6-9.9
					c0-3.2-0.9-5.9-2.7-8.1c-1.6-1.9-4.4-2.8-8.3-2.8h-7.8V262H494.9z"/>
				<path d="M524.3,236.5c0.3,0.3,0.4,0.6,0.4,1s-0.1,0.8-0.3,1s-0.5,0.3-1,0.3c-0.4,0-0.7-0.1-0.9-0.3c-0.3-0.3-0.4-0.6-0.4-1
					s0.2-0.8,0.4-1c0.3-0.2,0.6-0.3,0.9-0.3C523.7,236.2,524,236.3,524.3,236.5z M522.5,244.6c0-0.7,0.3-1,0.9-1
					c0.6,0,0.9,0.3,0.9,1v18.3c0,0.7-0.3,1-0.9,1c-0.6,0-0.9-0.4-0.9-1V244.6z"/>
				<path d="M530.9,248.4c0.7-1.5,1.7-2.7,2.9-3.6c1.3-0.9,2.9-1.4,4.8-1.4c2.3,0,4.1,0.9,5.4,2.5c0.6,0.8,1.1,1.6,1.4,2.3v-3.8
					c0-0.7,0.3-1,0.9-1c0.6,0,0.9,0.3,0.9,1v15.1c0,1,0,2.2,0,3.4c0,2.1-0.4,3.7-1,4.8c-0.8,1.3-1.8,2.3-3,2.9s-2.9,0.9-5,0.9
					c-2,0-3.6-0.4-4.9-1.2c-1.4-0.9-2.4-2.2-2.8-4.1c-0.2-0.7,0.1-1.1,0.7-1.2c0.5-0.1,0.8,0.3,1,1.2c0.4,1.1,1.1,2,2.1,2.6
					s2.3,0.9,4,0.9c2.4,0,4.2-0.6,5.4-1.7s1.9-3,1.9-5.4c0-1.2,0-2.3,0-3.2v-0.7c-0.3,0.6-0.8,1.5-1.4,2.4c-1.2,1.7-3,2.6-5.3,2.6
					c-1.8,0-3.4-0.4-4.6-1.2c-1.1-0.7-2.1-1.7-2.9-3.2c-0.8-1.5-1.2-3.4-1.2-5.9C529.9,251.5,530.3,249.8,530.9,248.4z M531.7,253.7
					c0,2.7,0.7,4.8,2,6.3c1.3,1.4,2.9,2.2,5,2.2c2,0,3.6-0.8,4.9-2.5c1-1.3,1.4-3.2,1.4-5.8c0-2.9-0.6-5.1-1.9-6.7
					c-1-1.4-2.5-2-4.4-2c-2.2,0-3.9,0.8-5.1,2.3C532.3,249,531.7,251.1,531.7,253.7z"/>
				<path d="M555.4,236.5c0.3,0.3,0.4,0.6,0.4,1s-0.1,0.8-0.3,1s-0.5,0.3-1,0.3c-0.4,0-0.7-0.1-0.9-0.3c-0.3-0.3-0.4-0.6-0.4-1
					s0.1-0.8,0.4-1c0.3-0.2,0.6-0.3,0.9-0.3C554.9,236.2,555.2,236.3,555.4,236.5z M553.7,244.6c0-0.7,0.3-1,0.9-1s0.9,0.3,0.9,1
					v18.3c0,0.7-0.3,1-0.9,1c-0.6,0-0.9-0.4-0.9-1V244.6z"/>
				<path d="M566.3,258.8c0,1.3,0.2,2.2,0.6,2.8c0.4,0.6,1.9,0.7,4.6,0.4c0.8-0.1,1.2,0,1.3,0.5c0.2,0.6-0.1,1-0.7,1.2
					c-1.1,0.2-2.3,0.2-3.6,0.2s-2.3-0.4-2.8-1.1c-0.7-0.9-1-2.2-1-4v-12.4h-2.9c-0.7,0-1-0.3-1-0.9c0-0.6,0.3-0.9,1-0.9h2.9v-4.8
					c0-0.7,0.3-1,0.9-1c0.6,0,0.9,0.3,0.9,1v4.8h5c0.7,0,1,0.3,1,0.9c0,0.6-0.4,0.9-1,0.9h-5v12.4H566.3z"/>
				<path d="M592.5,257.4c0,1.8,0.1,3,0.2,3.5c0.2,0.6,0.5,0.9,1.1,0.9c0.7,0,1,0.3,1,0.9s-0.4,0.9-1,0.9c-1.3,0-2.2-0.6-2.5-1.8
					c-0.1-0.5-0.2-0.9-0.3-1.4c-0.4,0.6-0.8,1.1-1.2,1.5c-1.5,1.3-3.9,2-7.2,2c-1.9,0-3.4-0.5-4.4-1.6c-1.1-1-1.6-2.4-1.6-4.2
					c0-1.3,0.4-2.4,1.2-3.3c1-1.1,2.4-1.9,4.4-2.4c2.4-0.6,5.3-1.1,8.6-1.5v1.7c-5.1,0.7-8.4,1.4-10,2.1c-1.7,0.8-2.5,1.9-2.5,3.4
					c0,1.2,0.3,2.1,0.9,2.7c0.8,0.8,2.3,1.3,4.4,1.3c2.7,0,4.6-0.6,5.7-1.6c0.8-0.8,1.2-1.8,1.5-3.1v-0.1v-7.2c0-1.7-0.5-3-1.4-3.7
					c-1-0.8-2.5-1.3-4.6-1.3c-2,0-3.5,0.4-4.6,1.1c-1.1,0.7-1.6,1.8-1.6,3.1c0,0.7-0.3,1-0.9,1c-0.6,0-0.9-0.4-0.9-1
					c0-1.9,0.8-3.3,2.3-4.5c1.3-0.9,3.2-1.4,5.7-1.4s4.4,0.6,5.7,1.6c1.3,1.1,2,2.8,2,5.1L592.5,257.4L592.5,257.4z"/>
				<path d="M601.5,237.1c0-0.7,0.3-1,0.9-1c0.6,0,0.9,0.3,0.9,1v25.7c0,0.7-0.3,1-0.9,1c-0.6,0-0.9-0.4-0.9-1V237.1z"/>
				<path d="M623.5,238c0-1.1,0.6-1.7,1.7-1.7h16.7c0.7-0.1,1.1,0.2,1.1,0.8s-0.4,0.9-1.1,0.9h-16.7v10.8h15.6c0.7-0.1,1,0.2,1,0.8
					s-0.4,0.9-1,0.9h-15.6v11.3h16.7c0.7-0.1,1.1,0.2,1.1,0.9c0,0.6-0.4,0.9-1.1,0.9h-16.7c-1.1,0-1.7-0.6-1.7-1.7V238z"/>
				<path d="M650.1,244.6c0-0.7,0.3-1,0.9-1c0.6,0,0.9,0.3,0.9,1v2.6c0.8-1.1,1.5-2,2.3-2.5c1.3-0.9,2.9-1.3,4.8-1.3
					c1.4,0,2.6,0.3,3.7,0.9c1,0.5,1.8,1.2,2.4,2.2c0.7,1.1,1.1,2.7,1.1,4.9v11.4c0,0.7-0.3,1-0.9,1c-0.6,0-0.9-0.4-0.9-1v-11.4
					c0-2.2-0.5-3.7-1.5-4.7c-1.1-1.1-2.7-1.6-4.8-1.6c-1.3,0-2.5,0.3-3.4,0.9c-1.1,0.7-1.9,1.6-2.3,2.6c-0.4,0.9-0.6,1.9-0.7,3.2
					v11.1c0,0.7-0.3,1-0.9,1c-0.6,0-0.9-0.4-0.9-1v-10v-8.3H650.1z"/>
				<path d="M676.8,258.8c0,1.3,0.2,2.2,0.6,2.8c0.4,0.6,1.9,0.7,4.6,0.4c0.8-0.1,1.2,0,1.3,0.5c0.2,0.6-0.1,1-0.7,1.2
					c-1.1,0.2-2.3,0.2-3.6,0.2s-2.3-0.4-2.8-1.1c-0.7-0.9-1-2.2-1-4v-12.4h-2.9c-0.7,0-1-0.3-1-0.9c0-0.6,0.3-0.9,1-0.9h2.9v-4.8
					c0-0.7,0.3-1,0.9-1s0.9,0.3,0.9,1v4.8h5c0.7,0,1,0.3,1,0.9c0,0.6-0.4,0.9-1,0.9h-5v12.4H676.8z"/>
				<path d="M691.5,260.2c1.2,1.4,3.1,2.1,5.6,2.1c1.4,0,2.6-0.4,3.6-1.2c0.9-0.7,1.5-1.5,1.8-2.4c0.3-0.8,0.6-1.3,0.9-1.3
					c0.4,0,0.7,0,0.9,0.3c0.3,0.3,0.3,0.7,0.2,1.1c-0.5,1.6-1.3,2.9-2.6,3.9c-1.2,0.9-2.8,1.4-4.7,1.4c-3.2,0-5.5-0.9-7-2.7
					c-1.6-1.9-2.5-4.3-2.5-7.3c0-3.4,0.9-6.1,2.6-7.9c1.6-1.8,3.7-2.6,6.2-2.6c2.7,0,4.9,1,6.5,3c1.4,1.8,2.1,3.8,2.1,6
					c0,1.2-0.6,1.9-1.8,1.9h-13.8C689.4,256.8,690.1,258.7,691.5,260.2z M703.1,252.6c0-1.8-0.6-3.5-1.7-4.9c-1.3-1.6-3-2.5-5.1-2.5
					c-2,0-3.6,0.7-4.9,2.1c-1.1,1.2-1.8,3-2,5.3L703.1,252.6L703.1,252.6z"/>
				<path d="M710.8,244.6c0-0.7,0.3-1,0.9-1c0.6,0,0.9,0.3,0.9,1v3.9c0.3-0.5,0.6-0.9,0.9-1.4c1.7-2.4,3.8-3.7,6.3-3.7
					c1.8,0,3.4,0.6,4.6,1.8c0.6,0.6,0.7,1.1,0.3,1.5s-0.9,0.3-1.5-0.2c-1-0.9-2.2-1.4-3.6-1.4c-1.7,0-3.3,0.9-4.8,2.6
					c-1.3,1.5-2.1,2.9-2.2,4.1v10.9c0,0.7-0.3,1-0.9,1c-0.6,0-0.9-0.4-0.9-1v-10.5V244.6z"/>
				<path d="M729.6,243.5c0.6,0,0.9,0.3,0.9,1v3c0.3-0.4,0.6-0.9,1-1.4c1.5-1.8,3.7-2.7,6.5-2.7c2.1,0,3.9,0.9,5.6,2.6
					c1.6,1.6,2.3,4.1,2.3,7.2c0,3.8-0.9,6.6-2.7,8.3c-1.5,1.5-3.4,2.3-5.7,2.3c-2.4,0-4.4-0.8-5.9-2.3c-0.5-0.5-0.9-1-1.1-1.6v10
					c0,0.7-0.3,1-0.9,1c-0.6,0-0.9-0.4-0.9-1v-25.4C728.7,243.9,729,243.5,729.6,243.5z M732.7,247.1c-1.3,1.6-2,3.8-2,6.7
					c0,2.9,0.7,5.1,2,6.6c1.1,1.3,2.6,1.9,4.4,1.9c1.9,0,3.6-0.7,4.9-2c1.4-1.5,2.2-3.8,2.2-7c0-2.4-0.7-4.5-2.2-6.2
					c-1.2-1.4-2.8-2.1-5-2.1C735.3,245.1,733.8,245.8,732.7,247.1z"/>
				<path d="M751.5,244.6c0-0.7,0.3-1,0.9-1c0.6,0,0.9,0.3,0.9,1v3.9c0.3-0.5,0.6-0.9,0.9-1.4c1.7-2.4,3.8-3.7,6.3-3.7
					c1.8,0,3.4,0.6,4.6,1.8c0.6,0.6,0.7,1.1,0.3,1.5s-0.9,0.3-1.5-0.2c-1-0.9-2.2-1.4-3.6-1.4c-1.7,0-3.3,0.9-4.8,2.6
					c-1.3,1.5-2.1,2.9-2.2,4.1v10.9c0,0.7-0.3,1-0.9,1c-0.6,0-0.9-0.4-0.9-1v-10.5V244.6z"/>
				<path d="M771.3,236.5c0.3,0.3,0.4,0.6,0.4,1s-0.1,0.8-0.3,1s-0.5,0.3-1,0.3c-0.4,0-0.7-0.1-0.9-0.3c-0.3-0.3-0.4-0.6-0.4-1
					s0.2-0.8,0.4-1s0.6-0.3,0.9-0.3C770.8,236.2,771.1,236.3,771.3,236.5z M769.5,244.6c0-0.7,0.3-1,0.9-1c0.6,0,0.9,0.3,0.9,1v18.3
					c0,0.7-0.3,1-0.9,1c-0.6,0-0.9-0.4-0.9-1V244.6z"/>
				<path d="M785.2,243.5c1.3,0,2.5,0.2,3.6,0.6c1.1,0.4,1.9,0.9,2.4,1.6c0.6,0.7,0.9,1.6,0.9,2.8c0,0.7-0.3,1-0.9,1
					c-0.6,0-0.9-0.4-0.9-1c0-1-0.5-1.7-1.4-2.4c-1-0.6-2.2-1-3.8-1c-1.8,0-3.3,0.4-4.4,1.1c-1,0.7-1.5,1.6-1.5,2.7
					c0,1,0.8,1.8,2.4,2.3c2.6,1,4.8,1.7,6.6,2.3c1.8,0.5,3.1,1.2,3.8,1.9c0.8,0.7,1.1,1.7,1.1,2.9c0,1.1-0.3,2.1-1,3
					c-0.6,0.8-1.5,1.5-2.7,2c-1.1,0.5-2.5,0.8-4.3,0.8s-3.3-0.2-4.5-0.7c-1.1-0.5-2.1-1.2-2.7-2.2c-0.7-1.1-1-2.1-1-3.1
					c0-0.7,0.3-1,0.9-1s0.9,0.3,0.9,1c0,1.2,0.6,2.2,1.7,3.1c1.1,0.8,2.7,1.2,4.8,1.2s3.8-0.5,4.9-1.5c0.9-0.8,1.4-1.7,1.4-2.7
					c0-1.1-1-2-2.9-2.6c-2.4-0.8-4.6-1.6-6.3-2.2c-1.6-0.6-2.8-1.1-3.4-1.7c-0.8-0.7-1.2-1.6-1.2-2.7c0-1.2,0.3-2.1,1-2.8
					c0.7-0.8,1.6-1.4,2.6-1.8C782.2,243.7,783.6,243.5,785.2,243.5z"/>
				<path d="M801.8,260.2c1.2,1.4,3.1,2.1,5.6,2.1c1.4,0,2.6-0.4,3.6-1.2c0.9-0.7,1.5-1.5,1.7-2.4c0.3-0.8,0.6-1.3,0.9-1.3
					c0.4,0,0.7,0,0.9,0.3c0.3,0.3,0.3,0.7,0.2,1.1c-0.5,1.6-1.3,2.9-2.6,3.9c-1.2,0.9-2.8,1.4-4.7,1.4c-3.2,0-5.5-0.9-7-2.7
					c-1.6-1.9-2.5-4.3-2.5-7.3c0-3.4,0.9-6.1,2.6-7.9c1.6-1.8,3.7-2.6,6.2-2.6c2.7,0,4.9,1,6.5,3c1.4,1.8,2.1,3.8,2.1,6
					c0,1.2-0.6,1.9-1.8,1.9h-13.8C799.7,256.8,800.4,258.7,801.8,260.2z M813.4,252.6c0-1.8-0.6-3.5-1.7-4.9c-1.3-1.6-3-2.5-5.1-2.5
					c-2,0-3.6,0.7-4.9,2.1c-1.1,1.2-1.8,3-2,5.3L813.4,252.6L813.4,252.6z"/>
				<path d="M855.4,263.6c-0.1,0.2-0.4,0.3-0.7,0.4c-0.3,0-0.5-0.1-0.6-0.3c-0.2-0.2-0.3-0.5-0.4-0.9l-3-7.4h-13.8l-2.9,7.4
					c-0.2,0.5-0.3,0.8-0.5,1c-0.1,0.2-0.4,0.3-0.7,0.2c-0.3,0-0.6-0.2-0.7-0.4c-0.1-0.3-0.1-0.5,0-0.8l10-24.7
					c0.2-0.5,0.3-0.9,0.5-1.2c0.2-0.6,0.7-0.9,1.2-0.9s0.9,0.3,1.1,0.7c0.2,0.4,0.4,0.9,0.6,1.3l9.9,24.7
					C855.6,263.1,855.6,263.3,855.4,263.6z M837.6,253.7H850l-6.2-15.6L837.6,253.7z"/>
				<path d="M859.7,237.1c0-0.7,0.3-1,0.9-1c0.6,0,0.9,0.3,0.9,1v25.7c0,0.7-0.3,1-0.9,1c-0.6,0-0.9-0.4-0.9-1V237.1z"/>
				<path d="M868.4,237.1c0-0.7,0.3-1,0.9-1c0.6,0,0.9,0.3,0.9,1v25.7c0,0.7-0.3,1-0.9,1c-0.6,0-0.9-0.4-0.9-1V237.1z"/>
				<path d="M878.8,236.5c0.3,0.3,0.4,0.6,0.4,1s-0.1,0.8-0.3,1s-0.5,0.3-1,0.3c-0.4,0-0.7-0.1-0.9-0.3c-0.3-0.3-0.4-0.6-0.4-1
					s0.1-0.8,0.4-1c0.3-0.2,0.6-0.3,0.9-0.3C878.3,236.2,878.6,236.3,878.8,236.5z M877.1,244.6c0-0.7,0.3-1,0.9-1
					c0.6,0,0.9,0.3,0.9,1v18.3c0,0.7-0.3,1-0.9,1c-0.6,0-0.9-0.4-0.9-1V244.6z"/>
				<path d="M900.1,257.4c0,1.8,0.1,3,0.2,3.5c0.2,0.6,0.5,0.9,1.1,0.9c0.7,0,1,0.3,1,0.9s-0.4,0.9-1,0.9c-1.3,0-2.2-0.6-2.5-1.8
					c-0.1-0.5-0.2-0.9-0.3-1.4c-0.4,0.6-0.8,1.1-1.2,1.5c-1.5,1.3-3.9,2-7.2,2c-1.9,0-3.4-0.5-4.4-1.6c-1.1-1-1.6-2.4-1.6-4.2
					c0-1.3,0.4-2.4,1.2-3.3c1-1.1,2.4-1.9,4.4-2.4c2.4-0.6,5.3-1.1,8.6-1.5v1.7c-5.1,0.7-8.4,1.4-10,2.1c-1.7,0.8-2.5,1.9-2.5,3.4
					c0,1.2,0.3,2.1,0.9,2.7c0.8,0.8,2.3,1.3,4.4,1.3c2.7,0,4.6-0.6,5.7-1.6c0.8-0.8,1.2-1.8,1.5-3.1v-0.1v-7.2c0-1.7-0.5-3-1.4-3.7
					c-1-0.8-2.6-1.3-4.6-1.3s-3.5,0.4-4.6,1.1c-1.1,0.7-1.6,1.8-1.6,3.1c0,0.7-0.3,1-0.9,1c-0.6,0-0.9-0.4-0.9-1
					c0-1.9,0.8-3.3,2.3-4.5c1.3-0.9,3.2-1.4,5.7-1.4s4.4,0.6,5.7,1.6c1.3,1.1,2,2.8,2,5.1L900.1,257.4L900.1,257.4z"/>
				<path d="M909.1,244.6c0-0.7,0.3-1,0.9-1c0.6,0,0.9,0.3,0.9,1v2.6c0.8-1.1,1.5-2,2.3-2.5c1.3-0.9,2.9-1.3,4.8-1.3
					c1.4,0,2.6,0.3,3.7,0.9c1,0.5,1.8,1.2,2.4,2.2c0.7,1.1,1.1,2.7,1.1,4.9v11.4c0,0.7-0.3,1-0.9,1c-0.6,0-0.9-0.4-0.9-1v-11.4
					c0-2.2-0.5-3.7-1.5-4.7c-1.1-1.1-2.7-1.6-4.8-1.6c-1.4,0-2.5,0.3-3.4,0.9c-1.1,0.7-1.9,1.6-2.3,2.6c-0.4,0.9-0.6,1.9-0.7,3.2
					v11.1c0,0.7-0.3,1-0.9,1c-0.6,0-0.9-0.4-0.9-1v-10v-8.3H909.1z"/>
				<path d="M933.4,246.1c1.7-1.8,3.8-2.6,6.4-2.6c2.6,0,4.7,0.7,6.1,2.1c1.2,1.1,1.9,2.5,2.2,4.2c0.1,0.8-0.2,1.2-0.9,1.2
					c-0.5,0-0.8-0.4-1-1.2c-0.2-1.1-0.6-2-1.3-2.6c-1.2-1.3-3-1.9-5.2-1.9c-2.1,0-3.8,0.7-5.2,2.1c-1.5,1.5-2.2,3.8-2.2,6.9
					c0,2.5,0.6,4.4,1.7,5.7c1.4,1.6,3.3,2.4,5.7,2.4c1.8,0,3.2-0.5,4.4-1.4c1.1-0.9,1.8-2,2.1-3.3c0.1-0.7,0.3-1,0.6-1.1
					s0.7-0.1,1.1,0.2c0.2,0.2,0.3,0.5,0.2,1c-0.4,2-1.4,3.6-3,4.8c-1.4,1.1-3.2,1.6-5.3,1.6c-3.1,0-5.4-0.9-6.9-2.7
					c-1.5-1.8-2.2-4.1-2.2-7C930.7,250.7,931.6,248,933.4,246.1z"/>
				<path d="M956.6,260.2c1.2,1.4,3.1,2.1,5.6,2.1c1.4,0,2.6-0.4,3.6-1.2c0.9-0.7,1.5-1.5,1.8-2.4c0.3-0.8,0.6-1.3,0.9-1.3
					c0.4,0,0.7,0,0.9,0.3c0.3,0.3,0.3,0.7,0.2,1.1c-0.5,1.6-1.3,2.9-2.6,3.9c-1.2,0.9-2.8,1.4-4.7,1.4c-3.2,0-5.5-0.9-7-2.7
					c-1.6-1.9-2.5-4.3-2.5-7.3c0-3.4,0.9-6.1,2.6-7.9c1.6-1.8,3.7-2.6,6.2-2.6c2.7,0,4.9,1,6.5,3c1.4,1.8,2.1,3.8,2.1,6
					c0,1.2-0.6,1.9-1.8,1.9h-13.8C954.5,256.8,955.2,258.7,956.6,260.2z M968.3,252.6c0-1.8-0.6-3.5-1.7-4.9c-1.3-1.6-3-2.5-5.1-2.5
					c-2,0-3.6,0.7-4.9,2.1c-1.1,1.2-1.8,3-2,5.3L968.3,252.6L968.3,252.6z"/>
			</g>
		</g>
	</g>
	<g>
		<path d="M376.1,163.5h24.6v4.6h-24.6v2h19.4v4.4h-45.7v-4.4h18.8v-2h-23.9v-4.6h23.9v-3.2h7.5L376.1,163.5L376.1,163.5z
			 M376.1,211.1v2h24.2v5.1h-55.2v-5.1h23.4v-2h-17.3v-4.5h17.3v-1.9c-1.4,0-4.4,0-8.9,0.1c-4.6,0.1-7.8,0.1-9.9,0.1l-0.3-4.5
			c1.8,0,4.9,0.1,9.3,0.1c0.7-1,1.2-1.8,1.5-2.2h-8.3v-1h-6.6v-9.5h54.5v9.5h-7v-4.8H352v1.9h40.5v4H388c3.3,1.8,5.9,3.5,7.8,5
			l-4,3.3h2.7v4.5h-18.4V211.1z M352,176.5h41.5v9.5H352V176.5z M386.1,182.3v-2.2h-27.2v2.2H386.1z M378.7,198.3h-10.3
			c-0.1,0.2-0.3,0.4-0.6,0.7c-0.3,0.3-0.5,0.6-0.7,0.8s-0.4,0.5-0.6,0.7c6.6,0,11.5,0,15-0.1c-1-0.6-2.2-1.2-3.4-1.7L378.7,198.3z
			 M376.1,204.6v2h15c-0.9-0.7-1.9-1.5-3.1-2.2c-1.3,0-3.3,0.1-5.9,0.1C379.3,204.6,377.3,204.6,376.1,204.6z"/>
		<path d="M438,183.7l-4.5,5.7c-1.9-2.1-5-4.2-9.1-6.5l4.1-5.3C432.7,179.7,435.9,181.7,438,183.7z M439.2,167.5l-4.6,5.7
			c-1.8-2.1-4.8-4.5-8.8-6.9l4.3-5.1C434.5,163.6,437.5,165.7,439.2,167.5z M432.6,218.7l-6.7-3.8c3-6.6,5.6-13.3,7.8-20.3l5.9,3.8
			C437.3,206.2,434.9,212.9,432.6,218.7z M444.1,192.3v-8.7c-0.8,3.2-1.9,5.9-3.1,8.1c-1.3-0.8-2.7-1.4-4-2c1.2-1.9,2.2-4.7,2.9-8.2
			l4.2,0.9V180c-1.1,0.1-3,0.2-5.8,0.4l-0.5-4.5l3.8-0.1c1-1.2,1.6-1.9,1.8-2.2c-1.7-1.8-3.4-3.3-5-4.5l2.3-3.6
			c0.1,0.1,0.3,0.2,0.5,0.3s0.4,0.2,0.5,0.3c1.3-2.3,2.2-4.3,2.8-5.9l4.3,2.1c-0.5,0.9-1.3,2.1-2.3,3.7c-1,1.6-1.6,2.5-1.6,2.5
			c0.1,0.1,0.4,0.3,0.7,0.6c0.3,0.3,0.6,0.5,0.7,0.6c0.2-0.4,0.6-0.8,0.9-1.4c0.4-0.6,0.7-1.1,1-1.5s0.5-0.8,0.7-1.2l3.8,2.1v-1.1
			h15.1v1.1l1.7-2.2l0.8,0.6c1.5-2.8,2.5-4.7,2.9-5.8l4.3,2c-0.4,0.5-1.1,1.6-2,3.1c-1,1.5-1.7,2.6-2.2,3.3c0.5,0.5,1,0.9,1.4,1.4
			c1.8-2.5,2.8-4.1,3.2-4.8l4.1,2.3c-3,3.7-5.2,6.3-6.7,8l3.5-0.1c-0.4-0.9-0.7-1.6-0.9-2l3.6-1.5c1.5,2.7,2.5,5.2,2.9,7.5l-3.8,1.7
			c0-0.3-0.1-0.8-0.3-1.5l-2.5,0.2v12.4H473v-8.7c-0.7,2.8-1.6,5.5-2.9,7.9c-0.7-0.6-1.9-1.2-3.4-1.9v2.1h-12.1v-9.5h12.1v6.2
			c0.9-1.8,1.6-4.1,2.2-6.9l4.1,0.9v-2.3l-5.4,0.3l-0.4-4.5l3-0.1c0.1-0.2,0.4-0.5,0.8-0.9c0.4-0.5,0.7-0.8,0.9-1
			c-1.2-1.6-2.5-2.9-3.8-4.1v0.7H453v-2.3c-2.4,3.1-4.4,5.5-5.8,7.2l2.7-0.1c-0.2-0.7-0.4-1.3-0.6-1.6l3.2-1.2
			c1.2,2.6,1.9,5.1,2.2,7.3l-3.4,1.3c-0.1-0.9-0.2-1.4-0.2-1.7l-2,0.2v12.6L444.1,192.3L444.1,192.3z M449.9,205.8h31.6
			c-0.1,1.2-0.2,2.1-0.4,2.7c-0.9,4.8-2.2,7.9-3.8,9.2c-1.4,1-3.3,1.5-5.9,1.7c-2,0-5.3,0-9.8-0.1c-0.1-1.8-0.8-3.6-2-5.5
			c2.9,0.3,6.1,0.4,9.6,0.4c1.3,0,2.2-0.2,2.7-0.5c0.7-0.5,1.3-1.6,1.8-3.3h-24.9c-0.2,0.8-0.4,1.4-0.6,1.8l-6.8-0.9
			c1.2-3.6,2.3-7.5,3.1-11.8h27v-2h-28.9v-4.3h35.9v10.5h-28.1L449.9,205.8z M454.3,188.4l-3.8,1.1c-0.2-1.7-0.8-4-1.5-6.9l3.6-0.8
			C453.4,184.4,454,186.6,454.3,188.4z M466.6,172.2v3.4h-12.1v-3.4H466.6z M454.6,180.5v-3.4h12.1v3.4H454.6z M466,161.4v3.6h-11
			v-3.6H466z M462,188.3v-2.8h-3.2v2.8H462z M477.9,182.6l3.8-1.1c1.4,3.4,2.4,6.1,2.8,8l-3.9,1.3
			C480.1,188.4,479.2,185.7,477.9,182.6z"/>
		<path d="M565.9,178.9h-3.3c-1.2,10-3.3,18.1-6.2,24.2c2.6,4.7,5.9,8.2,9.8,10.6c-2,1.7-3.6,3.7-4.9,6c-3.6-2.4-6.7-5.6-9.2-9.5
			c-2.9,3.8-6.5,7-10.8,9.6c-0.4-1.1-1.5-2.8-3.2-5.3l-4.4,4.3c-1.7-1.2-3.9-2.6-6.7-4.1c-3.8,2.2-9.1,3.9-16,5
			c-0.4-1.9-1.3-3.9-2.7-5.7c5.1-0.5,9.1-1.3,12-2.4c-0.4-0.1-0.9-0.3-1.7-0.7c-0.8-0.3-1.3-0.6-1.7-0.7l-0.6,0.8l-6-1.5
			c1.9-2.8,3-4.7,3.6-5.6l-6.8,0.1l-0.2-5.6c4.3,0,7.7,0,10.1-0.1c0.2-0.3,0.5-0.8,0.8-1.5s0.5-1,0.6-1.1h-9V184h11.2v-2h-10v-6.7
			h-4V170h4v-6.6h10v-3.1h6.4v3.1h10.5v6.6h4.1v5.3h-4.1v6.7H527v2h11.8v2c3.3-6.1,5.5-14.7,6.8-25.7l7.1,0.9
			c-0.4,3.2-0.9,6.7-1.7,10.6h14.8v7.1H565.9z M515.7,188.6v2.7h5v-2.7H515.7z M520.7,168.2H517v2.3h3.7V168.2z M517,177.4h3.7V175
			H517V177.4z M520.9,203.8l-1.1,1.8c1.2,0.4,3.3,1.2,6.2,2.4c1.2-1.2,2.1-2.7,2.8-4.3L520.9,203.8z M541.6,203.3l-5.8,0.1
			c-0.9,2.8-2.1,5.2-3.8,7.2c1.5,0.7,3.3,1.7,5.3,2.8c4.7-2.5,8.4-6,11.2-10.5c-1.5-3.6-2.8-7.7-3.8-12.3c-0.7,1.4-1.5,2.8-2.5,4.2
			c-0.6-0.9-1.7-2.1-3.3-3.8v4.7h-14l0.6,0.1l-1.3,2.3c1.9,0,4.8,0,8.7-0.1c4-0.1,6.9-0.1,9-0.2L541.6,203.3z M531.1,168.2h-4v2.3h4
			V168.2z M527.1,177.4h4V175h-4V177.4z M532.3,188.6H527v2.7h5.3V188.6z M555.5,178.9h-6.2l-0.1,0.4c0.9,5.8,2,10.8,3.4,14.8
			C553.8,189.8,554.8,184.8,555.5,178.9z"/>
		<path d="M602.8,160.5l7,2.3c-1.7,4.2-3.7,8.2-5.9,12.2v44.3h-7.2v-33.5c-1.9,2.4-3.6,4.4-5.2,6c-0.3-0.9-0.9-2.3-1.8-4
			c-0.9-1.7-1.6-3-2.2-3.9c3-2.8,5.9-6.3,8.6-10.5C598.9,169.3,601.1,165,602.8,160.5z M635.2,209.7H648v7.1h-40.9v-7.1h20.8
			c3-9.3,5-18.8,6.1-28.3l8.2,1.3C640.2,192.7,637.8,201.7,635.2,209.7z M608.4,171.8h14.9v-10.6h7.6v10.6h15.8v7.2h-38.3V171.8z
			 M624,206.1l-7.5,1.6c-0.1-3.1-0.5-7-1.2-11.7s-1.6-9-2.6-13l6.8-1.2C622.1,190.9,623.5,199,624,206.1z"/>
		<path d="M695.6,160.1h7.7c3.4,4.9,7.5,9.4,12.4,13.5s9.9,7.2,15,9.4c-1.5,1.5-3.2,3.8-5.1,6.8c-4.9-2.7-9.8-6.2-14.6-10.3
			c-4.8-4.2-8.6-8.2-11.3-12.1c-2.6,3.9-6.2,7.9-10.8,12s-9.4,7.6-14.6,10.4c-1.1-2-2.7-4-4.8-6.1c5.3-2.7,10.3-6.3,15-10.8
			C689.5,168.7,693.1,164.3,695.6,160.1z M704.4,198.3V211H727v6.8h-53.8V211h6.9v-22h7.4v22h9v-32.9h7.9v13.6h16.9v6.6L704.4,198.3
			L704.4,198.3z"/>
		<path d="M810.3,205.1h-18.4c5.6,3.4,12.2,5.7,20,6.9c-1.9,1.8-3.5,4.1-5.1,6.9c-8.3-2.1-15.4-5.7-21.3-10.7v11.4h-7.4v-11
			c-5.9,4.7-13,8.1-21.2,10.3c-1.4-2.4-3-4.5-4.8-6.3c7.9-1.6,14.6-4.1,20-7.4H754V199h24.2v-2.8H760v-5.4h18.2V188h-21.5v-5.9h12.1
			c-0.5-1.5-1.2-3.1-2.2-4.9l0.7-0.1h-13.2V171h8.5c-0.7-1.9-2-4.6-4-7.8l6.5-2.2c2.3,3.3,3.9,6.3,4.8,8.9l-3.1,1.2h5.7v-10.3h7
			v10.3h4.7v-10.3h7.1v10.3h5.6l-2.3-0.7c1.6-2.6,2.9-5.6,4-9.1l7.9,1.9c-0.3,0.5-1,1.7-2.2,3.7s-2.1,3.4-2.7,4.3h8.2v6.1h-11.9
			c-0.4,0.7-1.4,2.4-3,5.1h12.4v5.9h-22v2.8h19v5.4h-19v2.8H810v5.8H810.3z M789.8,176.8h-15.1c1.1,2.1,1.8,3.7,2.2,4.9l-1,0.2h11.8
			C788.4,180.1,789.2,178.4,789.8,176.8z"/>
		<path d="M836.5,197.4l5.8,0.9c-0.6,6.6-1.9,12-3.8,16.3c-1.7-1.1-3.5-2-5.3-2.5C834.8,208.9,835.9,204,836.5,197.4z M852.5,193.1
			l-3.3,0.2v26.1H843v-25.7l-8.3,0.7l-0.7-6.6c0.4,0,1.2,0,2.3-0.1s2-0.1,2.7-0.2c1.1-1.5,1.9-2.7,2.5-3.6c-1.5-2.6-4-5.7-7.3-9.2
			l3.6-4.9c0.3,0.3,0.8,0.8,1.5,1.5c1.9-3.6,3.4-7.3,4.5-11l6.4,2.2c-3.2,6.1-5.5,10.4-7.1,12.9c0.8,1,1.5,1.9,2,2.6
			c1.8-2.9,3.6-6.3,5.4-10.3l5.9,2.7c-2.6,4.2-5.2,8.2-7.9,12.1l4.9-2c2.7,5.3,4.4,9.9,5.1,13.8l-5.3,2.2
			C853.1,195.5,852.9,194.3,852.5,193.1z M845.2,187.3l5.3-0.3c-0.5-1.3-1.1-2.8-1.9-4.4C847.6,184.1,846.5,185.7,845.2,187.3z
			 M849.6,198.6l4.9-1.4c1.8,3.9,2.9,7.7,3.3,11.4l-5.3,1.7C852.2,206.6,851.3,202.7,849.6,198.6z M860.4,217.6l-5.4-2.9
			c2.6-2.7,4.2-6.9,4.8-12.7l5.9,1.4C864.8,210.4,863,215.1,860.4,217.6z M874.3,213.2h3.6c0.6,0,1-0.3,1.2-0.8
			c0.2-0.6,0.4-1.8,0.4-3.8c1.3,1.1,3.2,1.9,5.7,2.4c-0.3,3.2-1,5.3-1.9,6.5c-0.9,1.1-2.5,1.7-4.6,1.7h-5.4c-2.8,0-4.6-0.5-5.5-1.6
			s-1.4-3.1-1.4-6.1v-10h6c-2.2-1.6-3.9-2.7-5.3-3.4l2.6-2.2h-11.2v-29.6h12c0.7-2.1,1.2-4.1,1.5-6l8.3,1.1
			c-0.7,1.6-1.5,3.3-2.3,4.9h13.3v29.6h-16.9c3.5,2.1,5.9,3.9,7.3,5.5l-4.7,4.1c-1.2-1.4-2.6-2.6-4.3-3.8v9.8c0,0.7,0.1,1.2,0.3,1.4
			C873.3,213.1,873.7,213.2,874.3,213.2z M864.5,171.7v18.7h5.1c-0.8-1.1-1.5-1.9-2.1-2.4c2.5-0.9,4.7-2.3,6.7-4.2l-2.6-1.7
			c-1.2,1.4-2.4,2.5-3.6,3.3c-0.9-1.3-2.1-2.3-3.4-3c1.3-1,2.3-1.9,3-2.6c-0.1,0-1.1-0.5-2.9-1.4l3.3-3.2c0.5,0.2,1.3,0.7,2.3,1.2
			c1.2-1.8,2-3.4,2.5-4.9h-8.3V171.7z M885.2,190.4v-18.7h-10.4l2.7,0.4c-0.5,1.2-0.8,1.9-0.8,2h4l0.9-0.2l3.1,1.2
			c-0.8,2.7-2,5.3-3.7,7.8c1.5,0.9,2.7,1.8,3.7,2.7l-3.3,3.6c-0.9-0.9-2.1-1.8-3.3-2.7c-1.6,1.6-3.3,2.9-5.3,4h12.4V190.4z
			 M878.8,177.6h-4l-0.2,0.4c-0.2,0.3-0.3,0.5-0.4,0.6c1.3,0.7,2.3,1.3,2.9,1.7C877.7,179.5,878.3,178.6,878.8,177.6z M882.1,203.7
			l5.4-2.6c3.3,4.6,5.6,9.1,6.7,13.6l-5.7,2.8c-0.5-1.9-1.3-4.2-2.4-6.8C884.8,208,883.5,205.7,882.1,203.7z"/>
		<path d="M941.6,160.4h7.1c3.5,3.3,7.6,6.1,12.4,8.5c4.8,2.4,9.7,4.3,14.7,5.5c-1.2,1.2-2.6,3.3-4.3,6.2c-1.8-0.6-3-1.1-3.6-1.3
			v16.5H924v-16.6c-0.9,0.4-2.4,0.9-4.3,1.5c-1.3-2.5-2.6-4.5-3.9-5.9c5.1-1.5,10-3.6,14.8-6.3C935.3,166,939,163.2,941.6,160.4z
			 M925.4,178.7h40.7c-3.2-1.3-6.2-2.8-9.2-4.5v2.2h-22.2V174C932.3,175.5,929.2,177,925.4,178.7z M927.4,219.5v-21.6h37.2v21.4
			h-7.7v-1.5h-22.1v1.7L927.4,219.5L927.4,219.5z M930.2,191.2h4.4c-0.3-2.1-1-4.2-2.2-6.6l4.9-1.4h-7.1L930.2,191.2L930.2,191.2z
			 M956.9,202.9h-22.1v2.5h22.1V202.9z M934.8,212.9h22.1v-2.5h-22.1V212.9z M942.5,191.2v-8h-4.9c1.3,2.5,2.2,4.8,2.5,6.8l-4.1,1.2
			H942.5z M938.7,171.5h13.8c-2.8-1.8-5.2-3.6-7-5.3C943.9,167.8,941.6,169.5,938.7,171.5z M953.2,183.3h-4.6v8h5.8l-3.7-1
			C951.8,187.6,952.6,185.3,953.2,183.3z M961.3,191.2v-8h-6.9l4.9,1.2c-1.3,2.7-2.5,4.9-3.5,6.7h5.5V191.2z"/>
	</g>
	<g>
		<g>
			<path d="M75.2,178H48.6v85.2H28.7V178H2.2v-18h73V178z"/>
			<path d="M234.2,263.2h-67V160.1h67v18h-47.1v24.2h40.1v18h-40.1v25.1h47.1L234.2,263.2L234.2,263.2z"/>
			<path d="M260.4,263.2h-20.7l37-103.2h15.6l37.1,103.2h-20.7l-6-18.3h-28.2l5.5-17h17.5l-12.4-37.5L260.4,263.2z"/>
		</g>
		<g>
			<path class="st0" d="M130.6,228.6h1.2v-35.7c0-0.2-0.1-0.4-0.4-0.5l-34.3-14.6c-0.2-0.1-0.4-0.1-0.5,0.1
				c-0.2,0.1-0.3,0.3-0.3,0.5v89.3h1.2v-88.4l33.2,14.1L130.6,228.6L130.6,228.6z"/>
			<path class="st0" d="M134,230h1.2v-40.4c0-0.2-0.1-0.4-0.4-0.5c-41.3-17.5-41.3-17.5-41.4-17.5c-0.3,0-0.6,0.3-0.6,0.6v94H94
				v-93.1c5.4,2.3,36.3,15.4,40,17V230z"/>
			<path class="st0" d="M137.5,231.5h1.2v-45c0-0.2-0.1-0.4-0.4-0.5c-48.2-20.4-48.2-20.4-48.3-20.4c-0.3,0-0.6,0.3-0.6,0.6v98.6
				h1.2v-97.7c5.9,2.5,42.8,18.2,46.9,19.9C137.5,191.2,137.5,231.2,137.5,231.5z"/>
			<path class="st0" d="M155.8,177.4L155.8,177.4c0-0.1,0-0.2-0.1-0.3l0,0c-0.1-0.1-0.2-0.2-0.3-0.3l-54.9-23.3
				c-0.1-0.1-0.3-0.1-0.5,0l-13.7,5.8c-0.1,0.1-0.2,0.1-0.3,0.3l0,0c0,0.1-0.1,0.2-0.1,0.3l0,0l0,0v103.3h1.2V160.8l53.8,22.8v46.3
				v2.6l-26.3,11.2v-52.6l12.5,5.3v30.7h1.2v-31c0-0.2-0.1-0.4-0.4-0.5l-13.7-5.8l0,0l-13.7-5.8c-0.1,0-0.2-0.1-0.3,0
				c-0.1,0-0.2,0-0.3,0.1c-0.2,0.1-0.3,0.3-0.3,0.5V269c0,0.2,0.1,0.4,0.3,0.5c0.1,0.1,0.2,0.1,0.3,0.1c0.1,0,0.2,0,0.2,0l54.9-23.3
				c0.2-0.1,0.4-0.3,0.4-0.5L155.8,177.4L155.8,177.4z"/>
		</g>
	</g>
</g>
</svg>
