<?xml version="1.0" encoding="utf-8"?>
<!-- Generator: Adobe Illustrator 28.1.0, SVG Export Plug-In . SVG Version: 6.00 Build 0)  -->
<svg version="1.1" id="圖層_1" xmlns="http://www.w3.org/2000/svg" xmlns:xlink="http://www.w3.org/1999/xlink" x="0px" y="0px"
	 viewBox="0 0 978 425.2" style="enable-background:new 0 0 978 425.2;" xml:space="preserve">
<style type="text/css">
	.st0{fill:url(#SVGID_1_);}
	.st1{fill:#EFA422;}
	.st2{fill:url(#SVGID_00000048499768721186942700000007718993130792281988_);}
	.st3{fill:url(#SVGID_00000047031376869782514970000018043032572990551681_);}
	.st4{fill-rule:evenodd;clip-rule:evenodd;fill:#E12A77;}
	.st5{fill-rule:evenodd;clip-rule:evenodd;fill:#E46699;}
	
		.st6{clip-path:url(#SVGID_00000121237638193993809890000017397174355187572385_);fill:url(#SVGID_00000111164296691869143230000004113231976532538012_);}
	.st7{clip-path:url(#SVGID_00000044180172424445414660000015622527978252965294_);fill:#E32D21;}
	.st8{clip-path:url(#SVGID_00000078734959097891055270000014524677415452694935_);fill:#EC8989;}
	.st9{clip-path:url(#SVGID_00000067919423655292496920000015213349886963674274_);}
	.st10{fill:#E32920;}
	.st11{clip-path:url(#SVGID_00000111155653933995272080000005343957229574240699_);fill:#E23146;}
</style>
<g>
	<g>
		
			<linearGradient id="SVGID_1_" gradientUnits="userSpaceOnUse" x1="240.5368" y1="692.2283" x2="240.5368" y2="402.7967" gradientTransform="matrix(1 0 0 1 0 -398.2678)">
			<stop  offset="0" style="stop-color:#0094CF"/>
			<stop  offset="1" style="stop-color:#46BACC"/>
		</linearGradient>
		<path class="st0" d="M334.1,67.5V4.5H147v63.1h70.8V294h70.8V67.5H334.1z"/>
	</g>
	<g>
		<path class="st1" d="M422.6,293.6V115.8h-66.3v177.7L422.6,293.6L422.6,293.6L422.6,293.6z M422.6,70.5V4.9h-66.3v65.8L422.6,70.5
			L422.6,70.5z"/>
	</g>
	
		<linearGradient id="SVGID_00000142137062119396494790000016956259048929846688_" gradientUnits="userSpaceOnUse" x1="547.1323" y1="691.8917" x2="547.1323" y2="402.6284" gradientTransform="matrix(1 0 0 1 0 -398.2678)">
		<stop  offset="0" style="stop-color:#E23638"/>
		<stop  offset="1" style="stop-color:#EA7F23"/>
	</linearGradient>
	<path style="fill:url(#SVGID_00000142137062119396494790000016956259048929846688_);" d="M545.4,293.6l21.5-65.1l-53.5,0.5v-50.5
		h69.8l24.9-63.1h-94.7v-48h112.9L652,4.4H442.3v289.3H545.4z"/>
	<g>
		
			<linearGradient id="SVGID_00000047040331010857069760000003809087628162451345_" gradientUnits="userSpaceOnUse" x1="693.8674" y1="691.8917" x2="693.8674" y2="402.6284" gradientTransform="matrix(1 0 0 1 0 -398.2678)">
			<stop  offset="0" style="stop-color:#009FD9"/>
			<stop  offset="1" style="stop-color:#8DC8BD"/>
		</linearGradient>
		<path style="fill:url(#SVGID_00000047040331010857069760000003809087628162451345_);" d="M826.6,293.6L721,4.4h-54.7L561.1,293.6
			h74l14.5-44.4h88.7l14.1,44.4H826.6z M719.8,190.1h-50.1l25.9-76.7L719.8,190.1z"/>
	</g>
	<g>
		<path class="st4" d="M442.8,68.6h70v43.9h98.9l-29.6,67.8H513V228h-70 M422.4,180.2h-66.3v-64.4h66.3V180.2L422.4,180.2z"/>
	</g>
	<path class="st5" d="M334.1,67.5h-45.4v84.3c-20.7,13.3-44.9,21.5-70.8,23.2V67.5H147V4.4h187.1V67.5z"/>
	<g>
		<g>
			<g>
				<g>
					<g>
						<defs>
							<circle id="SVGID_00000103246110849249382230000004026335954723724469_" cx="828.3" cy="241.1" r="138.7"/>
						</defs>
						<clipPath id="SVGID_00000164503416848284081800000006112616639427976621_">
							<use xlink:href="#SVGID_00000103246110849249382230000004026335954723724469_"  style="overflow:visible;"/>
						</clipPath>
						
							<linearGradient id="SVGID_00000079465977489889866440000004043037783098206116_" gradientUnits="userSpaceOnUse" x1="581.4603" y1="712.2529" x2="806.0221" y2="487.691" gradientTransform="matrix(1 0 0 1 0 -398.2678)">
							<stop  offset="0" style="stop-color:#D7217F"/>
							<stop  offset="1" style="stop-color:#E46F9E"/>
						</linearGradient>
						
							<path style="clip-path:url(#SVGID_00000164503416848284081800000006112616639427976621_);fill:url(#SVGID_00000079465977489889866440000004043037783098206116_);" d="
							M826.6,293.6L721,4.4h-54.7L561.1,293.6h74l14.5-44.4h88.7l14.1,44.4H826.6z M719.8,190.1h-50.1l25.9-76.7L719.8,190.1z"/>
					</g>
				</g>
			</g>
		</g>
	</g>
	<g>
		<g>
			<g>
				<g>
					<g>
						<defs>
							<circle id="SVGID_00000124840010082074102530000014605071199076293258_" cx="501.8" cy="323.8" r="149.6"/>
						</defs>
						<clipPath id="SVGID_00000128450610837148423950000011839618896820121256_">
							<use xlink:href="#SVGID_00000124840010082074102530000014605071199076293258_"  style="overflow:visible;"/>
						</clipPath>
						
							<rect x="356.1" y="4.9" style="clip-path:url(#SVGID_00000128450610837148423950000011839618896820121256_);fill:#E32D21;" width="66.3" height="65.8"/>
					</g>
				</g>
			</g>
		</g>
		<g>
			<g>
				<g>
					<g>
						<defs>
							<circle id="SVGID_00000050643879281694745270000007466873210181708933_" cx="501.8" cy="323.8" r="149.6"/>
						</defs>
						<clipPath id="SVGID_00000026138052893827495530000016288762106866167179_">
							<use xlink:href="#SVGID_00000050643879281694745270000007466873210181708933_"  style="overflow:visible;"/>
						</clipPath>
						
							<rect x="356.1" y="115.8" style="clip-path:url(#SVGID_00000026138052893827495530000016288762106866167179_);fill:#EC8989;" width="66.3" height="177.7"/>
					</g>
				</g>
			</g>
		</g>
	</g>
	<g>
		<g>
			<g>
				<g>
					<g>
						<defs>
							<circle id="SVGID_00000085933251868579994030000005917137492042203270_" cx="501.8" cy="323.8" r="149.6"/>
						</defs>
						<clipPath id="SVGID_00000148628926371188212020000008057564672215210649_">
							<use xlink:href="#SVGID_00000085933251868579994030000005917137492042203270_"  style="overflow:visible;"/>
						</clipPath>
						<g style="clip-path:url(#SVGID_00000148628926371188212020000008057564672215210649_);">
							<polygon class="st10" points="513.1,229 513.1,180.2 582.1,180.2 582.6,178.4 583,178.4 586.2,170.8 611.6,112.4 
								513.1,112.4 513.1,67.5 626.2,67.5 651.8,4.4 442.3,4.4 442.3,293.6 545.4,293.6 566.7,228.5 							"/>
						</g>
					</g>
				</g>
			</g>
		</g>
	</g>
	<g>
		<g>
			<g>
				<g>
					<g>
						<defs>
							<circle id="SVGID_00000099635196458507757600000002148898068616364952_" cx="501.8" cy="323.8" r="149.6"/>
						</defs>
						<clipPath id="SVGID_00000065053112307251586050000018097722430422046339_">
							<use xlink:href="#SVGID_00000099635196458507757600000002148898068616364952_"  style="overflow:visible;"/>
						</clipPath>
						<path style="clip-path:url(#SVGID_00000065053112307251586050000018097722430422046339_);fill:#E23146;" d="M442.3,229.7v63.9
							h103.2l21.5-65.1l-53.5,0.5"/>
					</g>
				</g>
			</g>
		</g>
	</g>
	<g>
		<path d="M153.7,331h5.9v25.2h5.2V331h5.9v-4.4h-17V331z"/>
		<path d="M177.9,340.6c0-1.3,0.2-2,0.5-2.4c0.3-0.5,1.2-0.7,2-0.7s1.5,0.2,1.9,0.5c0.3,0.3,0.5,0.8,0.5,1.7s-0.3,1.5-0.8,1.9
			c-0.5,0.5-1.5,0.8-2.5,1.3c-2.2,1-3.9,2-4.7,3c-1,1-1.5,2.5-1.5,4.5c0,4.4,1.9,6.6,5.6,6.6c0.8,0,1.5-0.2,2.2-0.7
			c0.8-0.5,1.5-1.3,2-2.4c0,0.3,0,0.5,0,0.8c0,0.7,0.2,1.3,0.3,1.9h4.5c-0.3-1-0.3-2-0.3-3v-13.5c0-2.2-0.5-3.9-1.7-4.9
			c-1.2-1-2.7-1.5-5.2-1.5s-4.4,0.5-5.6,1.7c-1.2,1-1.9,2.9-1.9,5.6L177.9,340.6L177.9,340.6L177.9,340.6z M182.7,349.5
			c0,2.2-0.8,3.4-2.4,3.4c-1.5,0-2.2-1-2.2-2.9c0-1,0.2-1.7,0.3-2c0.2-0.5,0.8-1,1.5-1.5l2.9-2v5H182.7z"/>
		<path d="M192.7,356.2h4.9v-22h-4.9V356.2z M192.7,331.1h4.9v-4.7h-4.9V331.1z"/>
		<path d="M204.9,356.2h5.4l2-13l2,13h5.2l4.4-22H219l-2.2,17.2l-2.7-17.2h-4l-2.5,17.2l-2.2-17.2h-5l0,0l0,0l0,0L204.9,356.2z"/>
		<path d="M231.1,340.6c0-1.3,0.2-2,0.5-2.4c0.3-0.5,1.2-0.7,2-0.7s1.5,0.2,1.9,0.5c0.3,0.3,0.5,0.8,0.5,1.7s-0.3,1.5-0.8,1.9
			c-0.5,0.5-1.5,0.8-2.5,1.3c-2.2,1-3.9,2-4.7,3c-1,1-1.5,2.5-1.5,4.5c0,4.4,1.9,6.6,5.6,6.6c0.8,0,1.5-0.2,2.2-0.7
			c0.8-0.5,1.5-1.3,2-2.4c0,0.3,0,0.5,0,0.8c0,0.7,0.2,1.3,0.3,1.9h4.5c-0.3-1-0.3-2-0.3-3v-13.5c0-2.2-0.5-3.9-1.7-4.9
			c-1.2-1-2.7-1.5-5.2-1.5c-2.5,0-4.4,0.5-5.6,1.7c-1.2,1-1.9,2.9-1.9,5.6L231.1,340.6L231.1,340.6L231.1,340.6z M235.8,349.5
			c0,2.2-0.8,3.4-2.4,3.4s-2.2-1-2.2-2.9c0-1,0.2-1.7,0.3-2c0.2-0.5,0.8-1,1.5-1.5l2.7-2L235.8,349.5L235.8,349.5L235.8,349.5z"/>
		<path d="M250.1,356.2v-14.8c0-2.5,0.8-4,2.4-4c0.8,0,1.3,0.3,1.7,0.8c0.3,0.5,0.5,1.5,0.5,2.7v15.1h4.9v-17.2
			c0-1.9-0.5-3.2-1.3-4.2c-0.8-1-2-1.5-3.4-1.5c-2,0-3.5,1-4.4,3v-2.5h-4.9v22h4.5C250.1,355.9,250.1,356.2,250.1,356.2z"/>
		<path d="M273.5,356.2h5.2v-29.4h-5.2V356.2z"/>
		<path d="M288.2,356.2v-14.8c0-2.5,0.8-4,2.4-4c0.8,0,1.3,0.3,1.7,0.8s0.5,1.5,0.5,2.7v15.1h4.9v-17.2c0-1.9-0.5-3.2-1.3-4.2
			c-0.8-1-2-1.5-3.4-1.5c-2,0-3.5,1-4.4,3v-2.5h-4.9v22h4.5V356.2L288.2,356.2z"/>
		<path d="M302,337.9v14.8c0,1.5,0.3,2.4,1.2,3c0.8,0.7,1.9,1,3.2,1c0.8,0,1.9,0,2.4-0.2v-4.2c-0.3,0-0.5,0-0.7,0
			c-0.7,0-1-0.2-1.2-0.5c-0.2-0.3-0.2-0.7-0.2-1v-13.1h2V334h-2V328H302v6.1h-2v3.7h2V337.9z"/>
		<path d="M326,346.3v-3.5c0-3.9-0.7-6.4-1.9-7.6c-1.3-1.2-3-1.9-5.6-1.9c-4.7,0-7.1,2.7-7.1,8.2v5.9c0,3.2,0.7,5.6,1.9,6.9
			c1.3,1.5,3.2,2,5.9,2c4.4,0,6.6-2.7,6.6-8.1H321v1c0,2-0.8,3-2.2,3c-0.8,0-1.5-0.3-2-0.8c-0.3-0.5-0.7-1.5-0.7-2.5v-3.2l0,0l0,0
			h9.8L326,346.3L326,346.3z M316.6,340.9c0-1.3,0.2-2,0.5-2.7c0.3-0.5,1-0.8,1.9-0.8s1.5,0.2,2,0.7c0.3,0.3,0.7,1.2,0.7,2v2h-4.7
			l0,0L316.6,340.9L316.6,340.9z"/>
		<path d="M335.3,356.2v-13.1c0-2.4,1.3-3.7,3.9-3.7c0.3,0,0.7,0,1,0v-5.9c-1.3,0-2.2,0.3-3,1.2s-1.5,2-2,3.2V334h-4.7v22l0,0
			L335.3,356.2L335.3,356.2L335.3,356.2z"/>
		<path d="M347.6,356.2v-14.8c0-2.5,0.8-4,2.4-4c0.8,0,1.3,0.3,1.7,0.8s0.5,1.5,0.5,2.7v15.1h4.9v-17.2c0-1.9-0.5-3.2-1.3-4.2
			c-0.8-1-2-1.5-3.4-1.5c-2,0-3.5,1-4.4,3v-2.5H343v22h4.5V356.2L347.6,356.2z"/>
		<path d="M375.2,346.3v-3.5c0-3.9-0.7-6.4-1.9-7.6c-1.3-1.2-3-1.9-5.6-1.9c-4.7,0-7.1,2.7-7.1,8.2v5.9c0,3.2,0.7,5.6,1.9,6.9
			c1.3,1.5,3.2,2,5.9,2c4.4,0,6.6-2.7,6.6-8.1h-4.9v1c0,2-0.8,3-2.2,3c-0.8,0-1.5-0.3-2-0.8c-0.3-0.5-0.7-1.5-0.7-2.5v-3.2l0,0l0,0
			h9.8L375.2,346.3L375.2,346.3z M365.6,340.9c0-1.3,0.2-2,0.5-2.7c0.3-0.5,1-0.8,1.9-0.8c1,0,1.5,0.2,2,0.7c0.3,0.3,0.7,1.2,0.7,2
			v2h-4.7l0,0L365.6,340.9L365.6,340.9z"/>
		<path d="M379.7,337.9v14.8c0,1.5,0.3,2.4,1.2,3c0.8,0.7,1.9,1,3.2,1c0.8,0,1.9,0,2.5-0.2v-4.2c-0.3,0-0.5,0-0.7,0
			c-0.7,0-1-0.2-1.2-0.5c-0.2-0.3-0.2-0.7-0.2-1v-13.1h2V334h-2V328h-4.9v6.1h-2v3.7h2V337.9z"/>
		<path d="M402.9,340.6c0-1.3,0.2-2,0.5-2.4c0.3-0.5,1.2-0.7,2-0.7s1.5,0.2,1.9,0.5c0.3,0.3,0.5,0.8,0.5,1.7s-0.3,1.5-0.8,1.9
			c-0.5,0.5-1.5,0.8-2.5,1.3c-2.2,1-3.9,2-4.7,3c-1,1-1.5,2.5-1.5,4.5c0,4.4,1.9,6.6,5.6,6.6c0.8,0,1.5-0.2,2.2-0.7
			c0.8-0.5,1.5-1.3,2-2.4c0,0.3,0,0.5,0,0.8c0,0.7,0.2,1.3,0.3,1.9h4.5c-0.3-1-0.3-2-0.3-3v-13.5c0-2.2-0.5-3.9-1.7-4.9
			c-1.2-1-2.7-1.5-5.2-1.5c-2.4,0-4.4,0.5-5.6,1.7c-1.2,1-1.9,2.9-1.9,5.6L402.9,340.6L402.9,340.6L402.9,340.6z M407.8,349.5
			c0,2.2-0.8,3.4-2.4,3.4c-1.5,0-2.2-1-2.2-2.9c0-1,0.2-1.7,0.3-2c0.2-0.5,0.8-1,1.5-1.5l2.9-2v5H407.8z"/>
		<path d="M422.1,356.2v-14.8c0-2.5,0.8-4,2.4-4c0.8,0,1.3,0.3,1.7,0.8s0.5,1.5,0.5,2.7v15.1h4.9v-17.2c0-1.9-0.5-3.2-1.3-4.2
			c-0.8-1-2-1.5-3.4-1.5c-2,0-3.5,1-4.4,3v-2.5h-4.9v22h4.5L422.1,356.2L422.1,356.2z"/>
		<path d="M440.4,333.5c-1.7,0-2.7,0.7-3.7,1.9c-0.8,1.2-1.3,3.2-1.3,6.2v7.6c0,2.9,0.5,4.9,1.3,5.9c1,1.2,2,1.7,3.9,1.7
			c2,0,3.2-1,4-3v2.4h4.9v-29.4h-4.9v9.6C444,334.5,442.5,333.5,440.4,333.5L440.4,333.5z M440.3,340.4c0-2,0.7-2.9,2-2.9
			c1.7,0,2.2,1.3,2.2,4v7.1c0,2.9-0.8,4.4-2.4,4.4c-1.3,0-2-1.2-2-3.5v-8.1L440.3,340.4L440.3,340.4L440.3,340.4z"/>
		<path d="M478.1,356.2v-4.4h-9.6v-9.1h8.8v-4.4h-8.8V331h9.6v-4.4h-14.6v29.4h14.6V356.2z"/>
		<path d="M481.3,346.3h8.8v-4.5h-8.8V346.3z"/>
		<path d="M504.9,350.8c-0.5,1-1.2,1.5-2,1.5c-1.2,0-2-0.5-2.7-1.5c-0.7-1-1-2.5-1-4.7v-9.6c0-4,1.3-6.1,3.7-6.1c1,0,1.7,0.5,2,1.3
			c0.3,0.8,0.5,2.2,0.5,4h5c0-3.4-0.7-5.9-2-7.4c-1.3-1.7-3.2-2.4-6.1-2.4c-3,0-5.2,1-6.6,2.7c-1.3,1.9-2,5-2,9.8v6.2
			c0,4.4,0.7,7.4,2,9.4s3.7,2.7,7.1,2.7c2.9,0,4.9-1,6.1-2.9c1.2-2,1.9-4.7,1.9-8.1h-5.2C505.6,348.1,505.4,350,504.9,350.8
			L504.9,350.8z"/>
		<path d="M515.8,354.5c1,1.5,2.9,2,5.9,2c2.7,0,4.7-0.7,5.7-2c1-1.5,1.7-4.2,1.7-8.6v-2.5c0-3.9-0.5-6.4-1.7-7.9
			c-1.2-1.5-2.9-2-5.6-2c-2.4,0-4.4,0.7-5.6,2c-1.3,1.3-1.9,4.2-1.9,8.6v2.5C514.3,350.3,514.8,353.2,515.8,354.5L515.8,354.5z
			 M519.7,338.2c0.5-0.5,1.2-0.8,2-0.8c1.7,0,2.4,1.2,2.4,3.5v8.2c0,1.5-0.2,2.4-0.5,2.9c-0.3,0.5-1,0.8-2,0.8c-1,0-1.7-0.2-2-0.7
			c-0.3-0.5-0.5-1.5-0.5-3v-8.1C519.2,339.6,519.4,338.7,519.7,338.2L519.7,338.2z"/>
		<path d="M533.2,356.2h4.9v-14.8c0-1.7,0.2-2.7,0.7-3.2c0.3-0.5,1-0.8,1.9-0.8c1,0,1.5,0.3,1.9,0.8c0.3,0.5,0.5,1.5,0.5,2.7v15.1
			h4.9v-14.5c0-1.5,0.2-2.5,0.7-3.2c0.3-0.7,1.2-1,2-1s1.3,0.3,1.7,1c0.3,0.7,0.5,1.7,0.5,2.9v14.8h4.9v-17.8c0-1.5-0.5-2.5-1.5-3.5
			c-1-0.8-2-1.3-3.7-1.3c-1.3,0-2.4,0.3-3.2,1c-0.8,0.7-1.3,1.3-1.7,2c-0.2-0.8-0.5-1.7-1.3-2c-0.8-0.7-1.9-1-3-1
			c-2.2,0-3.9,1-4.9,3v-2.5h-4.9v22.4H533.2z"/>
		<path d="M561.9,356.2h4.9v-14.8c0-1.7,0.2-2.7,0.7-3.2c0.3-0.5,1-0.8,1.9-0.8c1,0,1.5,0.3,1.9,0.8c0.3,0.5,0.5,1.5,0.5,2.7v15.1
			h4.9v-14.5c0-1.5,0.2-2.5,0.7-3.2c0.3-0.7,1.2-1,2-1s1.3,0.3,1.7,1c0.3,0.7,0.5,1.7,0.5,2.9v14.8h4.9v-17.8c0-1.5-0.5-2.5-1.5-3.5
			c-1-0.8-2-1.3-3.7-1.3c-1.3,0-2.4,0.3-3.2,1c-0.8,0.7-1.3,1.3-1.7,2c-0.2-0.8-0.5-1.7-1.3-2c-0.8-0.7-1.9-1-3-1
			c-2.2,0-3.9,1-4.9,3v-2.5h-4.9v22.4H561.9z"/>
		<path d="M604.3,346.3v-3.5c0-3.9-0.7-6.4-1.9-7.6c-1.3-1.2-3-1.9-5.6-1.9c-4.7,0-7.1,2.7-7.1,8.2v5.9c0,3.2,0.7,5.6,1.9,6.9
			c1.3,1.5,3.2,2,5.9,2c4.4,0,6.6-2.7,6.6-8.1h-4.9v1c0,2-0.8,3-2.2,3c-0.8,0-1.5-0.3-2-0.8c-0.3-0.5-0.7-1.5-0.7-2.5v-3.2l0,0l0,0
			h9.8v0.5H604.3z M594.8,340.9c0-1.3,0.2-2,0.5-2.7c0.3-0.5,1-0.8,1.9-0.8s1.5,0.2,2,0.7c0.3,0.3,0.7,1.2,0.7,2v2h-5l0,0V340.9z"/>
		<path d="M613.6,356.2v-13.1c0-2.4,1.3-3.7,3.9-3.7c0.3,0,0.7,0,1,0v-5.9c-1.3,0-2.2,0.3-3,1.2s-1.5,2-2,3.2V334h-4.7v22l0,0
			L613.6,356.2L613.6,356.2z"/>
		<path d="M629.1,349.3c0,2.2-0.5,3.5-1.7,3.5c-1.3,0-2-1.2-2-3.5v-7.6v-0.8c0-2.4,0.7-3.5,1.9-3.5c1.2,0,1.9,0.7,1.9,2v2.4h4.9
			v-1.9c0-2-0.5-3.5-1.7-4.7c-1.2-1.2-2.7-1.9-5-1.9c-4.4,0-6.4,2.5-6.4,7.9v7.4c0,5.4,2.2,8.1,6.6,8.1c4.4,0,6.6-2.4,6.6-7.1v-2.2
			h-4.9l0,0l0,0V349.3L629.1,349.3z"/>
		<path d="M651.5,346.3v-3.5c0-3.9-0.7-6.4-1.9-7.6c-1.3-1.2-3-1.9-5.6-1.9c-4.7,0-7.1,2.7-7.1,8.2v5.9c0,3.2,0.7,5.6,1.9,6.9
			c1.3,1.5,3.2,2,5.9,2c4.4,0,6.6-2.7,6.6-8.1h-4.9v1c0,2-0.8,3-2.2,3c-0.8,0-1.5-0.3-2-0.8c-0.3-0.5-0.7-1.5-0.7-2.5v-3.2l0,0l0,0
			h9.8L651.5,346.3L651.5,346.3z M641.9,340.9c0-1.3,0.2-2,0.5-2.7c0.3-0.5,1-0.8,1.9-0.8c1,0,1.5,0.2,2,0.7c0.3,0.3,0.7,1.2,0.7,2
			v2h-4.7l0,0L641.9,340.9L641.9,340.9z"/>
		<path d="M668.6,356.2l1.5-7.6h5.9l1.3,7.6h5.6l-6.2-29.4h-6.9l-6.6,29.4l0,0l0,0H668.6z M673.2,332.2l2,12.1h-4.4l0,0l0,0l0,0
			L673.2,332.2z"/>
		<path d="M684.3,349.8c0,4.7,2.2,6.9,6.9,6.9c4.5,0,6.7-2,6.7-6.4c0-2.2-1.2-4.2-3.4-5.9l-3.5-2.5c-0.8-0.5-1.3-1-1.7-1.5
			c-0.3-0.3-0.5-0.8-0.5-1.5c0-1.3,0.7-1.9,2-1.9c0.7,0,1.2,0.2,1.7,0.5c0.3,0.3,0.7,1.3,0.7,2.9h4.9c0-2.5-0.5-4.4-1.7-5.7
			c-1.2-1.2-2.7-1.9-5.2-1.9c-4.7,0-6.9,1.9-6.9,5.4c0,2.7,1.2,5,3.5,6.7l2.7,2c0.8,0.7,1.5,1.2,2,1.5c0.5,0.5,0.8,1,0.8,1.9
			c0,1.3-0.7,2-2,2c-1.3,0-2-1-2-2.7c0-0.5,0-0.8,0-1.3h-4.9l0,0l0,0C684.3,349,684.3,349.3,684.3,349.8L684.3,349.8z"/>
		<path d="M700.8,349.8c0,4.7,2.2,6.9,6.9,6.9c4.5,0,6.7-2,6.7-6.4c0-2.2-1.2-4.2-3.4-5.9l-3.5-2.5c-0.8-0.5-1.3-1-1.7-1.5
			c-0.3-0.3-0.5-0.8-0.5-1.5c0-1.3,0.7-1.9,2-1.9c0.7,0,1.2,0.2,1.7,0.5c0.3,0.3,0.7,1.3,0.7,2.9h4.9c0-2.5-0.5-4.4-1.7-5.7
			c-1.2-1.2-2.7-1.9-5.2-1.9c-4.7,0-6.9,1.9-6.9,5.4c0,2.7,1.2,5,3.5,6.7l2.7,2c0.8,0.7,1.5,1.2,2,1.5c0.5,0.5,0.8,1,0.8,1.9
			c0,1.3-0.7,2-2,2c-1.3,0-2-1-2-2.7c0-0.5,0-0.8,0-1.3h-5l0,0l0,0C700.8,349,700.8,349.3,700.8,349.8L700.8,349.8z"/>
		<path d="M719.4,354.5c1,1.5,2.9,2,5.9,2c2.7,0,4.7-0.7,5.7-2c1-1.5,1.7-4.2,1.7-8.6v-2.5c0-3.9-0.5-6.4-1.7-7.9
			c-1.2-1.5-2.9-2-5.6-2c-2.4,0-4.4,0.7-5.6,2c-1.3,1.3-1.9,4.2-1.9,8.6v2.5C717.9,350.3,718.4,353.2,719.4,354.5L719.4,354.5z
			 M723.3,338.2c0.5-0.5,1.2-0.8,2-0.8c1.7,0,2.4,1.2,2.4,3.5v8.2c0,1.5-0.2,2.4-0.5,2.9c-0.3,0.5-1,0.8-2,0.8s-1.7-0.2-2-0.7
			c-0.3-0.5-0.5-1.5-0.5-3v-8.1C722.8,339.6,723,338.7,723.3,338.2L723.3,338.2z"/>
		<path d="M744.5,349.3c0,2.2-0.5,3.5-1.7,3.5c-1.3,0-2-1.2-2-3.5v-7.6v-0.8c0-2.4,0.7-3.5,1.9-3.5c1.2,0,1.9,0.7,1.9,2v2.4h4.9
			v-1.9c0-2-0.5-3.5-1.7-4.7c-1.2-1.2-2.7-1.9-5-1.9c-4.4,0-6.4,2.5-6.4,7.9v7.4c0,5.4,2.2,8.1,6.6,8.1c4.4,0,6.6-2.4,6.6-7.1v-2.2
			h-4.9l0,0l0,0V349.3L744.5,349.3z"/>
		<path d="M753.6,356.2h4.9v-22h-4.9V356.2z M753.6,331.1h4.9v-4.7h-4.9V331.1z"/>
		<path d="M767.2,340.6c0-1.3,0.2-2,0.5-2.4c0.3-0.5,1.2-0.7,2-0.7s1.5,0.2,1.9,0.5c0.3,0.3,0.5,0.8,0.5,1.7s-0.3,1.5-0.8,1.9
			c-0.5,0.5-1.5,0.8-2.5,1.3c-2.2,1-3.9,2-4.7,3c-1,1-1.5,2.5-1.5,4.5c0,4.4,1.9,6.6,5.6,6.6c0.8,0,1.5-0.2,2.2-0.7
			c0.8-0.5,1.5-1.3,2-2.4c0,0.3,0,0.5,0,0.8c0,0.7,0.2,1.3,0.3,1.9h4.5c-0.3-1-0.3-2-0.3-3v-13.5c0-2.2-0.5-3.9-1.7-4.9
			c-1.2-1-2.7-1.5-5.2-1.5c-2.4,0-4.4,0.5-5.6,1.7c-1.2,1-1.9,2.9-1.9,5.6L767.2,340.6L767.2,340.6L767.2,340.6z M772.1,349.5
			c0,2.2-0.8,3.4-2.4,3.4s-2.2-1-2.2-2.9c0-1,0.2-1.7,0.3-2c0.3-0.5,0.8-1,1.5-1.5l2.9-2v5H772.1z"/>
		<path d="M781.9,337.9v14.8c0,1.5,0.3,2.4,1.2,3c0.8,0.7,1.9,1,3.2,1c0.8,0,1.9,0,2.5-0.2v-4.2c-0.3,0-0.5,0-0.7,0
			c-0.7,0-1-0.2-1.2-0.5s-0.2-0.7-0.2-1v-13.1h2V334h-2V328h-4.9v6.1h-2v3.7h2V337.9z"/>
		<path d="M792.5,356.2h4.9v-22h-4.9V356.2z M792.5,331.1h4.9v-4.7h-4.9V331.1z"/>
		<path d="M803.4,354.5c1,1.5,2.9,2,5.9,2c2.7,0,4.7-0.7,5.7-2c1-1.5,1.7-4.2,1.7-8.6v-2.5c0-3.9-0.5-6.4-1.7-7.9
			c-1.2-1.5-2.9-2-5.6-2c-2.4,0-4.4,0.7-5.6,2c-1.3,1.3-1.9,4.2-1.9,8.6v2.5C801.7,350.3,802.4,353.2,803.4,354.5L803.4,354.5z
			 M807.3,338.2c0.5-0.5,1.2-0.8,2-0.8c1.7,0,2.4,1.2,2.4,3.5v8.2c0,1.5-0.2,2.4-0.5,2.9c-0.3,0.5-1,0.8-2,0.8s-1.7-0.2-2-0.7
			c-0.3-0.5-0.5-1.5-0.5-3v-8.1C806.6,339.6,806.8,338.7,807.3,338.2L807.3,338.2z"/>
		<path d="M825.3,356.2v-14.8c0-2.5,0.8-4,2.4-4c0.8,0,1.3,0.3,1.7,0.8c0.3,0.5,0.5,1.5,0.5,2.7v15.1h4.9v-17.2
			c0-1.9-0.5-3.2-1.3-4.2c-0.8-1-2-1.5-3.4-1.5c-2,0-3.5,1-4.4,3v-2.5h-4.9v22h4.5V356.2L825.3,356.2z"/>
	</g>
	<g>
		<path d="M167.5,376.4l5.9,1.9c-1.3,2.4-3,4.9-5.4,7.4c-1.3,1.5-2.5,2.9-3.9,4c6.2-0.3,11.9-0.7,17.2-1.2c-1.2-1.5-2.4-2.7-3.9-4.2
			l4.7-2.9c3.9,3.5,7.1,7.2,9.6,11.3l-5.2,3c-0.7-1.2-1.3-2-2-3c-9.4,1-19.7,2-31,2.5l-0.8-5.4c1.9,0,3.5-0.2,5.2-0.2
			c1.9-1.9,3.4-3.5,4.9-5.6C164.3,381.8,166.2,379.1,167.5,376.4z M188,397.3v21h-5.2v-2h-21.5v2h-5.2v-21H188z M161.3,411.2h21.5
			V402h-21.5V411.2z"/>
		<path d="M200.8,388c1.7,1,3,2,4.5,3.4l-3.5,4.5c-1.5-1.5-3-2.9-4.7-3.9L200.8,388z M201.3,400.5l4.7,1.7c-1,6.4-2,11.9-3.4,16.3
			l-5.2-2.7C199.3,410.6,200.5,405.4,201.3,400.5z M202.2,376.9c1.7,1,3,2,4.4,3.4l-3.7,4.5c-1.5-1.7-2.9-2.9-4.5-4L202.2,376.9z
			 M210.1,376.9l3.4,1.5c-1.2,2-2.2,3.9-3.2,5.4c0.2,0.2,0.3,0.3,0.5,0.5c1-1.5,1.9-2.7,2.5-4.2l3.4,1.5c-0.8,1.3-1.7,2.5-2.4,3.7
			l1.9-0.8c0.5,2,1,3.9,1.5,6.1l-3,1.3c0-0.3,0-0.5-0.2-0.8c-0.3,0.2-0.7,0.2-1,0.2v8.4h-3.5v-7.7c-1.2,0.2-2.2,0.3-3.4,0.5L206,389
			c0.7,0,1.2-0.2,1.7-0.2c0.5-0.5,1-1.2,1.3-1.7c-1.3-1.2-2.5-2.2-4-3.4l2-2.5c0.2,0.2,0.5,0.5,0.7,0.7
			C208.4,380.1,209.4,378.4,210.1,376.9z M206.4,392.6l3,0.7c-0.2,2.2-0.7,4.2-1.3,6.1l-3-1.2C205.5,396.6,206,394.6,206.4,392.6z
			 M207.9,400.1h28.8v8.4h-24.1l-0.2,1h25.7c-0.3,4.2-1.2,6.7-2.2,7.7c-1,1-2.4,1.3-4.2,1.3c-1.2,0-2.2-0.2-3.5-0.3l-0.7-3.5
			c1.5,0.2,2.7,0.3,3.7,0.3c0.5,0,0.8-0.2,1-0.3c0.3-0.2,0.5-0.8,0.7-1.7h-21l-0.3,2l-4.7-0.8l1.5-9.6h23.4v-1.2h-23.9V400.1z
			 M213.8,387.7c-0.2-0.5-0.2-1-0.3-1.5c-0.5,0.7-1,1.2-1.3,1.9C212.6,387.9,213.3,387.9,213.8,387.7z M216.3,392.2
			c0.5,1.7,0.8,3.2,1,4.9l-2.9,0.5c-0.2-1.9-0.3-3.4-0.7-5L216.3,392.2z M230.6,376.9l3.4,1.5c-1,1.9-2,3.4-2.9,4.7
			c0.2,0.2,0.5,0.3,0.7,0.5c1-1.3,1.9-2.5,2.5-4l3.4,1.5c-1.2,1.7-2,3-2.9,4.4l1.9-0.8c1,1.9,1.7,3.9,2.2,5.9l-3,1.3
			c0-0.3-0.2-0.7-0.2-1c-0.5,0.2-0.8,0.2-1.2,0.3v1.9l2.9-0.7c0.8,1.9,1.3,3.5,1.7,5.4l-3.4,0.8c-0.2-1.9-0.5-3.4-1-4.9v5.9h-3.5
			v-7.7c-1.3,0.2-2.5,0.3-4,0.5l-0.7-3.4c0.7,0,1.2-0.2,1.7-0.2c0.7-0.8,1.3-1.5,2-2.2c-1.2-1-2.4-2-3.5-2.9v0.8h-9.3v-3.2h9.3v1.3
			l1.5-1.9c0.3,0.2,0.5,0.3,0.7,0.5C229.4,379.6,230.1,378.3,230.6,376.9z M217.7,392.2h8.6v7.1h-8.6V392.2z M217.8,377.4h8.4v2.9
			h-8.4V377.4z M217.8,385h8.1v2.9h-8.1V385z M217.8,388.7h8.1v2.9h-8.1V388.7z M221,396.4h1.9v-1.3H221V396.4z M227.4,392.6l3,0.7
			c-0.2,2-0.5,3.5-1,5.2l-2.9-1C226.9,395.9,227.2,394.3,227.4,392.6z M234.6,387.9c-0.2-0.7-0.5-1.2-0.7-1.5
			c-0.5,0.7-1,1.3-1.5,1.9C233.5,388,234.1,387.9,234.6,387.9z"/>
		<path d="M284.8,377.8v33.7c0,4.2-2,6.2-5.7,6.2h-3.2l-1-5.4c1.7,0.2,3,0.3,4.4,0.3c0.7,0,0.8-0.8,0.8-2.5v-27.9h-15.1V418h-4.7
			v-6.6l-4.4,1.5c-0.3-3.2-0.8-6.1-1.5-8.9l4-1.3c0.7,2.4,1.3,5,1.7,7.7V400l-4.4,1.5c-0.2-0.7-0.2-1.5-0.3-2
			c-0.5,0.2-1,0.2-1.5,0.3v18.7h-4.4V401c-1.7,0.3-3.4,0.7-5.2,1l-1-5.2c1.2-0.2,2-0.2,3-0.3c1-1.3,1.9-2.7,2.5-4
			c-2-1.7-3.9-3.2-5.9-4.9l2.9-3.5c0.2,0.2,0.3,0.2,0.5,0.3c1.5-2.4,2.5-4.9,3.7-7.2l4.5,2c-1.5,3-2.9,5.9-4.4,7.9
			c0.5,0.3,0.8,0.7,1.3,1c1-1.9,1.9-3.5,2.5-5.4l4.9,2c-1.5,2.7-2.9,5.2-4.2,7.4l3.2-1c1,2.5,1.9,5.4,2.4,8.2v-21.7L284.8,377.8
			L284.8,377.8z M244.7,403.3l4.5,1.2c-0.7,4.2-1.2,7.6-1.9,10.4l-4.4-1.3C243.7,410.2,244.4,406.7,244.7,403.3z M254.5,395.4
			c-0.2-0.7-0.3-1.3-0.7-2c-0.5,0.8-1,1.5-1.5,2.2C253.3,395.6,254.2,395.4,254.5,395.4z M269.6,383.7c1.2,1.5,2,2.9,2.5,4.5
			l-2.5,1.5h2.4c1-2,1.7-4.4,2-6.2l4.7,1.2c-0.3,1.9-0.8,3.5-1.7,5.4h2v4.2h-4.5v3.2h4.5v4.4h-7.4v3.4c0,1.2,0.3,1.7,1,1.9
			c0.5,0.2,1.3,0.2,2.2,0.2c1.2,0,2.2-0.2,3.2-0.7v4.5c-1.2,0.3-2,0.5-3.2,0.5s-2.4,0-4-0.2c-2.7-0.2-4-1.9-4-5.4v-4.5h-1.7v-4.4
			h4.4v-3.2h-4v-4.2h2c-0.5-1.2-1.2-2.4-2-3.4L269.6,383.7z"/>
		<path d="M291,377.9h16.2v9.8c1.5-1.7,2.7-3.2,3.5-5c1.2-2,2-4,2.7-6.1l5.4,1.3c-0.3,0.8-0.7,1.7-1,2.2h11.4v4.9
			c-1.5,3.2-3.2,5.9-5.7,8.1c2.5,1.5,5.4,2.5,8.2,3.4l-2.2,5c-0.3-0.2-0.5-0.2-0.7-0.2v17h-5v-1.7h-9.8v1.5h-5.2v-16.7
			c-0.3,0.2-0.7,0.2-0.8,0.3l-1.5-3.2v4.4h-4v7.2c1.7-0.3,3.2-0.7,4.7-1l0.8,4.5c-5.2,1.5-10.8,2.7-17.2,3.7l-1.9-5.2
			c0.7-0.2,1.3-0.2,2-0.3v-14.8h5v14c0.5-0.2,1-0.2,1.5-0.2v-17.2h-6.4L291,377.9L291,377.9z M296.1,389.2h6.1V383h-6.1V389.2z
			 M306.3,398.1l-0.3-0.7c3.5-1.3,6.4-2.5,8.9-4.2c-1.2-1.2-2-2.4-2.9-3.7c-0.7,0.7-1.3,1.5-2,2l-2.9-3.2v5.6h-4.7v4.2H306.3z
			 M310.9,401h16.7c-3-1.2-5.9-2.4-8.6-4.2C316.6,398.1,313.9,399.6,310.9,401z M314.1,411.9h9.8v-6.1h-9.8V411.9z M315.4,385.3
			c1.3,1.9,2.5,3.4,4.2,4.7c1.9-1.7,3-3.4,4-5.2h-8.1C315.4,385,315.4,385.2,315.4,385.3z"/>
		<path d="M354.3,377.6v14h-3c1.7,2,2.7,4,3.7,6.2l-3.9,2h5.9l-1.9-3.5c3.4-1.5,5.9-3.2,7.2-5.4c0.2-0.3,0.3-0.8,0.5-1.2H360
			c-0.3,1-0.7,1.9-1,2.5l-4.2-2c1.2-2.5,2-5.2,2-7.7l4.2,1.2c0,0.7-0.2,1.3-0.3,2h3c0.2-1.2,0.3-2.2,0.3-3.5h-7.6v-4.4h18.7v4.4
			h-6.7c0,1.3-0.2,2.5-0.3,3.5h7.7v4.4h-8.4c-0.2,0.3-0.2,0.7-0.3,1h3.4v2.4c0,1.3,0.3,2,1,2c1,0,1.5-0.2,1.7-0.5
			c0.2-0.3,0.2-1,0.2-2l3.4,1.2c0,1-0.2,2-0.2,2.5c0,1.2-0.5,2-1.5,2.2c-0.7,0.3-2,0.5-3.5,0.5c-0.5,0-1.3-0.2-2.4-0.3
			c-2-0.2-3-1.9-3-4.5v-1.2c-0.2,0.3-0.5,0.8-0.7,1.2c-1.9,2.2-4,4.2-6.9,5.7h13.1v12.6h-31.3v-12.6h10.1c-0.3-0.8-0.7-1.7-1-2.2
			c-3.7,0.8-7.9,1.7-12.5,2.2l-1.9-4.4c0.7,0,1.5-0.2,2-0.2v-17.8L354.3,377.6L354.3,377.6L354.3,377.6z M336.6,413.9H376v3.7h-39.4
			V413.9z M342.3,382.6h7.4v-1h-7.4V382.6z M342.3,387.7h7.4v-1.2h-7.4V387.7z M347.7,394.3c-0.3-0.5-0.7-0.8-0.8-1.2l2.2-1.5h-6.7
			v3.4C344,394.8,345.9,394.4,347.7,394.3z M345,404.9h22.4V404H345V404.9z M345,408.9h22.4v-1H345V408.9z"/>
		<path d="M385.3,377.1h34.2v4.4h-14.6v0.8h17.8v8.9h-4.9v-4.4h-13v9.1h-5.2v-9.1h-12.8v4.4h-4.9v-8.9h17.7v-0.8h-14.3V377.1
			L385.3,377.1z M418.7,397.3v15h-14.3c0.2,0.8,0.3,1.3,0.8,1.3c0.3,0.2,1,0.2,2,0.2c5,0,7.6,0,7.6-0.2c1,0,2-0.2,2.9-0.2
			c1,0,1.9-1,2-2.9l4.5,2c-0.7,2.4-1.5,4-2.5,4.9c-0.8,0.3-2,0.7-3.5,0.7c-3.5,0.2-7.2,0.3-10.8,0.3h-1.9c-1.3,0-2.2-0.2-3-0.5
			c-2-0.2-3.2-1.9-3.2-4.9v-0.8H390v2h-5v-17H418.7L418.7,397.3z M387.4,388h10.9v3.7h-10.9V388z M387.4,392.6h10.9v3.7h-10.9V392.6
			z M389.8,402.8h9.4v-1.3h-9.4V402.8z M389.8,407.9h9.4v-1.3h-9.4V407.9z M404.3,401.5v1.3h9.4v-1.3H404.3z M404.3,406.7v1.3h9.4
			v-1.3H404.3z M405.6,388h11.3v3.7h-11.3V388z M405.6,392.6h11.3v3.7h-11.3V392.6z"/>
		<path d="M432.4,378.4h34.3v4.9c-4.4,4-9.8,7.6-15.6,10.4v1.3h17.7v5.2H451v12.1c0,2.4-0.5,4-1.5,4.9c-1,1-2.7,1.3-5.2,1.3
			c-1.9,0-3.5-0.2-5.2-0.3l-0.8-5.9c2,0.7,3.9,0.8,5.9,0.8c0.3,0,0.7-0.2,1-0.3c0.2-0.3,0.3-1,0.3-1.9v-10.6h-17.3v-5.2h17.3v-6.1
			l2.5,0.3c3.5-1.7,6.9-3.4,9.8-5.6H432L432.4,378.4L432.4,378.4z"/>
		<path d="M491.8,376.9h5.6v3.2h17.3v4.9h-9.8c-0.3,1.3-0.8,2.5-1.2,3.5h9.4v23.6c0,4.2-2.2,6.2-6.9,6.2c-1.2,0-2.4-0.2-4-0.3
			l-1.2-5.4c2,0.5,3.5,0.7,5,0.7c1.2,0,1.9-0.8,1.9-2.4v-17.3h-7.6v0.7c0,1,0.2,1.5,0.3,1.7c0.2,0.3,0.7,0.3,1,0.3s0.5,0,0.7,0
			c0.2,0,0.2-0.2,0.3-0.3c0.2-0.2,0.2-0.8,0.2-1.9l4.7,2c-0.2,1.2-0.3,2-0.7,3c-0.2,0.7-0.7,1-1.5,1.2c-0.8,0.2-2,0.2-3.7,0.2
			c-2,0-3.2-0.2-3.5-0.5c-1.9-0.2-2.5-1.7-2.5-4.2v-2.2h-4c-0.3,2.5-1,4.4-2.2,5.7c-0.8,0.7-1.7,1.3-2.5,2h17.3v11.1h-14.3v2.5h-5
			v-12.8c-0.7,0.2-1.3,0.5-1.9,0.7l-1.7-3.4v19h-5.2v-29.6h8.4c-0.2-1.3-0.5-2.4-0.8-3.5h-9.4v-4.9h17.5L491.8,376.9L491.8,376.9
			L491.8,376.9z M480.8,398c2-0.7,3.4-1.3,4.2-2c0.7-0.7,1-1.5,1.3-2.4h-5.6V398z M489.8,388.7h8.6c0.3-1.2,0.7-2.4,1-3.5h-10.1
			C489.2,386.2,489.6,387.4,489.8,388.7z M489.2,407.7h9.4v-2h-9.4V407.7z"/>
		<path d="M520.5,378.1h18.8v4.5c-1.7,2.2-3.5,4.2-5.7,5.9c0.7,0.5,1.2,0.8,1.5,1.2l-1.2,1.5h5.9v3.7c0,0.2-0.2,0.3-0.2,0.5
			c2.2-0.8,4.2-1.9,5.9-2.9c-1.3-1.2-2.4-2.5-3.4-4c-0.5,0.7-1.2,1.3-1.9,2l-3.2-3.5c1.5-1.7,2.7-3,3.5-4.7c1.2-1.9,2-3.5,2.4-5.4
			l4.9,1.2c-0.3,0.8-0.7,1.7-1,2.2h13.8v4.9h-3.7c-0.7,2.7-1.9,5-3.2,6.9c2.4,1.3,4.9,2.2,7.6,3l-2.2,4.9c-3.4-1-6.6-2.2-9.4-4
			c-1,0.7-2,1.5-3.2,2h2.9c0,1.3-0.2,2.4-0.2,3.4h10.1c0,6.6-0.5,11.4-1.3,14.8c-0.2,0.8-0.8,1.3-1.7,1.9c-1,0.5-2,0.7-3.2,0.7
			c-1.2,0-2.4-0.2-4-0.5l-0.7-5.2c1.9,0.7,3.4,0.8,4.5,0.8c0.2,0,0.3,0,0.5-0.2c0.2-0.2,0.2-0.5,0.3-1c0.2-2,0.3-4,0.3-6.2h-5.7
			c-0.5,2-1,3.9-1.9,5.2c-1.9,3-4.5,5.6-8.1,7.2l-2.9-4.7c3-1.7,5.2-3.4,6.4-5.9c0.3-0.7,0.7-1.3,1-2h-5v-4.9h5.9
			c0-0.8,0-1.7,0.2-2.2c-1,0.5-2,1-3.2,1.3l-2.2-3c-0.8,2-1.7,3.5-2.5,4.9l-3.7-2.2c0.7-1.3,1.2-2.5,1.7-4h-2v15.6
			c0,2.5-0.3,4.2-1,5.2c-0.8,1-2,1.7-4,1.7c-1.5,0-2.9-0.2-4.2-0.7l-0.8-5.2c1.5,0.5,2.9,0.7,4.4,0.7c0.3,0,0.5-0.2,0.7-0.5
			c0.2-0.5,0.2-1.3,0.2-2.2v-5.9c-1.5,2.2-3,4.4-4.9,6.2l-3.7-3.7c3.5-3.4,6.1-6.9,7.9-10.9h-7.2v-4.7h8.4c-2-1.5-4-2.7-6.1-3.7
			l3.4-3.5c1.3,0.7,2.5,1.2,3.7,2c1.2-0.8,2.2-1.9,3.2-2.5H520v-5.9H520.5z M545.6,385c1.2,1.7,2.5,3,4,4.2c1.2-1.2,1.9-2.5,2.4-4.2
			H545.6z"/>
		<path d="M585,376.8h5.6v2.5H606v4.4h-5.9l1.2,2.2c-1.7,0.5-3.2,1.2-4.9,1.7c1.9,0.5,3.4,1.2,5,1.7l-1.9,2.5h5.9v4.7h-30.1v5.7
			c0,3-0.5,6.1-1.5,9.4c-0.7,2.5-1.9,5-2.9,7.2l-4.5-3.2c1.2-1.9,2-3.9,2.9-6.2c0.7-2.2,1-4.5,1-6.9v-10.1h4.7l-1.2-3
			c2.2-0.3,4.4-0.7,6.4-1.2c-2-0.5-4-1-6.1-1.3l1.3-2.5h-5v-4.4h14.3v-3.2H585z M580.3,396.8l4.4,1.5c-0.2,0.7-0.3,1.2-0.7,1.7h5.2
			v-2.5h5v2.5h9.9v4.5h-9.9v2.2h9.1v4.4h-9.1v2.2h11.4v4.5h-30v-4.5h13.6v-2.2h-10.3v-4.4h10.3v-2.4h-7.6c-0.3,0.7-0.8,1.3-1.3,1.9
			l-4.4-2.5C577.9,401.5,579.3,399.3,580.3,396.8z M588.7,389.5c-3,0.8-6.2,1.5-9.6,2h16.3C593.4,390.9,591.1,390.2,588.7,389.5z
			 M589.2,385.3c2-0.7,4.2-1.3,6.2-1.9h-13.8C584.2,384.2,586.7,384.8,589.2,385.3z"/>
		<path d="M621.8,391.1l-1-2.9h-8.1v-4.7h4.7c-0.7-1-1.3-2-2-2.9l4.4-2.5c1.3,1.5,2.2,2.9,3,4.5l-1.9,1.2h4.4v-6.4h5.2v6.4h4v-6.4h5
			v6.4h2.2c0.8-1.9,1.5-3.5,2-5.4l5.7,1.7c-0.7,1.5-1.3,2.7-2,3.7h5.4v4.7h-8.9l-1.2,2.9h8.8v4.9h-16.5v1.7h14.1v4.7h-14.1v1.7h17.7
			v4.9h-11.3c0.8,0.3,1.5,0.7,2.2,1c2.5,1,5.7,1.9,9.3,2.4l-2.9,5.7c-3.7-1.2-7.1-2.5-10.3-4.5c-1.9-1-3.2-2-4.9-3.2v8.6h-5.4v-8.4
			c-1.5,1.2-2.9,2.2-4.4,3.2c-4,2.2-7.6,3.7-10.4,4.5l-2.7-4.9c2.9-0.7,5.9-1.9,9.1-3c1-0.3,1.9-0.8,2.5-1.2h-10.9v-4.9h17.2v-1.7
			h-13.3v-5h13.3v-1.7h-15.1v-4.9h7.1V391.1z M638.2,388h-11.8l1,2.9h9.8L638.2,388z"/>
		<path d="M665.4,383.5c1.2,0.8,2.2,1.9,3.2,2.9c1.9-1.3,3.4-2.5,4.9-4.2H660v-4.7h20.2v1.9c0.8,0.7,1.7,1.3,2.4,1.9
			c2-1.2,4-2.4,5.9-4l3.7,3c-1.5,1.5-3.2,2.7-5,3.9c0.8,0.5,1.5,0.8,2.2,1.3c1.9-1.2,3.4-2.4,5-4l4.2,3.2c-1.3,1.3-2.5,2.4-4,3.4
			c1.9,0.8,3.5,1.5,5.4,2l-2.5,4.9c-2-0.7-3.7-1.5-5.4-2.4v1.7c0,1.2,0.2,1.9,0.3,2c0.2,0,0.3,0.2,0.7,0.2c0.2,0,0.3,0,0.5,0
			c0.2,0,0.3,0,0.3-0.2c0.2-0.2,0.2-0.7,0.3-1.7l4.9,2.4c-0.2,2-0.8,3-1.9,3.5c-0.5,0.2-1.2,0.3-1.9,0.5c-1,0-1.9,0.2-2.5,0.2
			c-2.2,0-3.5-0.2-4-0.7c-1.3-0.2-2-1.9-2-4.9v-1.2h-3.4c-0.3,2.2-0.8,3.9-1.7,5c-0.8,1-2,2-3.5,2.5h18.5v3.5c-1.5,2.7-3,4.9-5,6.6
			c2,0.8,4.4,1.3,7.1,1.7l-2,5.4c-3.9-0.7-7.2-1.9-9.9-3.4c-2.9,1.7-6.1,2.7-9.8,3.5l-2.5-4.7c3-0.5,5.7-1.3,7.9-2
			c-1.7-1.7-2.9-3.5-4.2-5.9h-2v-4.7h0.8l-2-3.7v4.4h-9.8l-0.3,2.2h10.6c-0.5,6.4-1.3,10.4-2.5,11.9s-2.9,2-5.2,2
			c-1.5,0-3-0.2-4.9-0.7l-0.8-5.2c2,0.3,3.9,0.5,5.2,0.5c1.2,0,1.9-0.2,2.2-0.5c0.7-0.5,1.2-1.7,1.5-3.4h-6.1l-0.2,0.8h-5.2
			l1.5-12.6h9.4v-3.4h-4.5v-1c-2.2,1.2-4.5,2-6.7,2.2l-1.7-4c2-0.7,4.2-1.5,6.1-2.2c-0.8-1-1.9-1.9-2.7-2.7L665.4,383.5z
			 M675.4,396.8c1-0.5,1.9-1,2.2-1.9c0.7-1,1-2.9,1-6.1h7.7c-2.7-1.7-5.2-3.4-7.6-5.2c-2.2,2.4-4.4,4.4-6.6,5.9h3.2V396.8
			L675.4,396.8z M684.1,405.9c1,1.3,2,2.2,3.4,3.2c1.3-1,2.4-2,3.2-3.2H684.1z"/>
		<path d="M736.1,400h9.1v4.9h-4.4l2,3.4c-1.7,1-3.4,1.9-5,2.4c2,1.2,4.7,2,7.7,2.5l-2.7,5.4c-4.4-1.3-8.2-3.2-11.3-5.9
			c-2.5-2-4.7-4.9-6.2-7.7h-3.2v6.9c2-0.3,3.7-0.5,5.4-0.8l1.5,4.5c-4.2,1-9.1,2-14.5,2.7l-2.2-5c1.7-0.2,3.2-0.3,4.7-0.5v-7.7h-4.9
			c-0.2,1.3-0.3,2.4-0.7,3.7c-0.7,3-1.7,6.1-3,9.4l-4.5-2.7c1.5-4,2.4-7.4,2.9-10.1c0.5-3.5,0.8-7.1,0.8-10.6v-17.2h35.2v11.8h-6.9
			v2.9h6.9v4.9h-6.9L736.1,400L736.1,400L736.1,400z M712.4,389v7.7c0,1.2,0,2.2-0.2,3.2h6.9v-3.2h-5.9v-4.9h5.9V389H712.4z
			 M738.1,382.1h-25.6v2H738v-2H738.1z M730.9,391.9V389h-6.6v2.9H730.9z M724.3,400h6.6v-3.2h-6.6V400z M733.1,407.5
			c1.9-0.8,3.4-1.7,4.9-2.7h-7.4C731.2,405.9,732.1,406.7,733.1,407.5z"/>
		<path d="M749.6,386.5h4v-9.6h5.2v9.6h3.5v5.2h-3.5v21.4c1.7-1.7,2.9-3.2,3.7-5.2c0.7-1.7,1.2-3.4,1.3-5.2h-3.5v-4.9h3.5v-2.4h5.2
			v2.4h6.7c0,7.6-0.2,12.8-0.7,15.1c1.5-1.7,2.5-3.2,3.4-5.2c0.7-1.7,1-3.4,1.2-5h-3.2v-5h3.2v-2.4h5.2v2.4h7.1
			c0,7.6-0.5,13.3-1.3,17.2c-0.2,0.8-0.8,1.7-1.7,2c-1,0.5-2,0.7-3.2,0.7c-1,0-2-0.2-3-0.3l-0.5-4.9c-1.3,2.4-2.9,4.4-4.9,5.9
			l-2.5-4.2c-0.3,1.3-1,2.2-1.9,2.5c-1,0.5-2,0.8-3.7,0.8c-0.8,0-1.7-0.2-2.4-0.3l-1-4.9c-1.5,2.2-3,4.2-4.9,5.7l-2-3.5v4h-5.2
			v-26.6h-4L749.6,386.5L749.6,386.5L749.6,386.5z M764,379.8h8.8c0.2-1,0.2-2,0.2-2.9h5.4c0,1.2,0,2-0.2,2.9h11.9
			c-0.3,6.7-1,10.9-2,12.6c-1,1.5-2.2,2-4,2c-1.9,0-3.7-0.2-5.9-0.5l-1.2-5c2.4,0.3,4.5,0.7,6.1,0.7c0.5,0,0.8-0.2,1-0.7
			c0.2-0.7,0.5-2,0.5-4h-7.1c-0.5,2.2-1.3,3.9-2.4,5c-2,2-4.7,3.7-8.4,5.2l-2.9-4.5c2.9-1.2,5.2-2.4,6.7-3.9c0.5-0.5,0.8-1,1.2-1.9
			h-7.4L764,379.8L764,379.8z M768.7,402.7c-0.2,3.2-1,6.1-2.2,8.8c-0.2,0.2-0.2,0.3-0.3,0.7c1.2,0.5,2.2,0.7,3.2,0.7
			c0.5,0,0.8-0.2,1-0.5c0.2-0.3,0.3-0.8,0.3-1.9c0.2-1.9,0.2-4.4,0.2-7.7H768.7z M784.6,402.8c-0.2,3.2-0.8,6.1-2,8.8
			c0,0.2,0,0.2-0.2,0.2c1.3,0.5,2.4,0.7,3.2,0.7c0.2,0,0.3-0.2,0.5-0.3c0.2-0.2,0.2-0.7,0.3-1.3c0.2-2.4,0.3-5.2,0.3-7.9H784.6z"/>
		<path d="M816.7,376.1l2.9,2.4c2.7,1.2,5.4,2.2,8.1,3.2c3.5,1.2,6.9,2,10.3,2.9l-2.5,4.9c-0.5-0.2-1-0.3-1.5-0.5V402h-34.5v-12.6
			c-0.5,0.2-0.8,0.3-1.3,0.5l-2.5-4.7C803.2,382.8,810.1,379.9,816.7,376.1z M832.4,403v15.5h-5v-1h-20.9v1h-5.2V403H832.4z
			 M801.7,388.5h30.5c-2.4-0.8-4.7-1.7-6.7-2.4v1.5h-18.2v-1.3C805.4,387,803.8,387.9,801.7,388.5z M804.4,397.4h3.2
			c-0.5-1.2-1.2-2-1.9-2.9l2.5-1.7h-4v4.5H804.4z M806.6,408.6h20.9v-1.2h-20.9V408.6z M806.6,413.3h20.9v-1h-20.9V413.3z
			 M810.5,393.1c0.7,1,1.3,2,1.9,3.2l-2.2,1.3h3.9v-4.5L810.5,393.1L810.5,393.1z M813.2,383.5h6.6c-1.2-0.7-2.2-1.2-3.4-1.9
			C815.4,382.3,814.2,382.8,813.2,383.5z M818.7,393.1v4.5h3.5l-1.9-1c0.8-1.2,1.3-2.4,1.9-3.5H818.7L818.7,393.1z M824.3,393.1l3,1
			c-0.5,1.3-1.2,2.5-1.7,3.4h3.2v-4.5L824.3,393.1L824.3,393.1z"/>
	</g>
</g>
</svg>
