<?xml version="1.0" encoding="UTF-8"?>
<svg id="_圖層_1" data-name="圖層 1" xmlns="http://www.w3.org/2000/svg" viewBox="0 0 150 60">
  <defs>
    <style>
      .cls-1 {
        fill: #fff;
      }

      .cls-2 {
        isolation: isolate;
      }
    </style>
  </defs>
  <rect class="cls-1" x="37.4" y="8.14" width="22.7" height="1.2"/>
  <g>
    <path class="cls-1" d="M4.4,52.2c-2.5-2.8-3.5-7.5-3-13.7,.5-6.3,2.3-10.9,5.3-13.7,3-2.8,7-4.3,12.1-4.3s8.8,1.5,11.4,4.3c2.5,2.8,3.5,7.5,3,13.7-.5,5.8-2.2,10.3-5,13.4-2.8,3.1-7,4.6-12.4,4.6-5.1,0-8.9-1.5-11.4-4.3Zm15.4-7l1.2-13.6c.2-2.2-.7-3.3-2.8-3.3s-3.1,1.2-3.3,3.3l-1.2,13.6c-.2,2.2,.7,3.3,2.8,3.3s3.1-1.1,3.3-3.3Z"/>
    <path class="cls-1" d="M51.1,55.8l.5-5.6h-14.6l.7-7.5,17.4-22h10.9l-2,22.7h3.1l-.7,6.8h-3.1l-.5,5.6h-11.7Zm-5.1-12.4h6.3l.8-8.9-7.1,8.9Z"/>
    <path class="cls-1" d="M72.1,55.8l.7-7.5h7l-.7,7.5h-7Z"/>
    <path class="cls-1" d="M85.6,52c.2-2.7,.8-4.8,1.8-6.8s2.3-3.8,4.3-5.6c1.8-1.8,4.5-3.6,7.6-5.5,1-.5,1.7-1,2-1.5,.3-.3,.7-.8,.7-1.5,.2-1.2-.7-1.8-2.5-1.8-1.3,0-2.8,.3-4.6,1-1.9,.7-3.4,1.5-4.9,2.7l-1.8-9.6c2-1,4.3-1.8,6.8-2.5s5.1-1,7.6-1c4.1,0,7.3,1,9.4,2.8,2.2,1.8,3,4.5,2.8,7.8-.2,1.8-.7,3.3-1.7,4.8-1,1.3-2,2.5-3.1,3.5-1.2,1-2.8,2-4.6,3.1-2.2,1.3-3.6,2.5-4.8,3.5-1,1-1.7,2-1.7,3.3h5.5l.2-2.7h9.3l-.8,9.9h-27.7l.2-3.9Z"/>
    <path class="cls-1" d="M145,35.6c1.7,2,2.3,4.6,2,8.1-.2,2.5-1,4.8-2.3,6.8s-3.1,3.5-5.5,4.5c-2.3,1-5.1,1.7-8.4,1.7-2.2,0-4.3-.2-6.5-.7s-4-1.2-5.6-1.8l.8-9.6c3.8,1.8,7.3,2.8,10.4,2.8,1.7,0,3-.3,3.8-1s1.3-1.7,1.5-3.1c.2-1,0-1.8-.5-2.5s-1.2-.8-2.2-.8c-.8,0-1.5,.2-2,.7-.5,.3-1,1-1.3,1.7h-9.4l3.8-21h24l-.8,8.8h-14.9l-.8,4.6c2-1,4.3-1.5,7-1.5,3-.7,5.4,.3,6.9,2.3Z"/>
  </g>
  <g>
    <path class="cls-1" d="M8.8,13.39h-2.2V5.79h-2.5V3.79h7.3v2h-2.6v7.6Z"/>
    <path class="cls-1" d="M18.4,7.49V3.89h2.1V13.39h-2.1v-3.9h-3.9v3.9h-2.1V3.89h2.1v3.7h3.9v-.1Z"/>
    <path class="cls-1" d="M27.1,11.09c.4-.4,.5-.9,.5-1.5V3.89h2.1v5.9c0,.7-.1,1.5-.5,2.1s-.7,1-1.3,1.3c-.6,.4-1.2,.5-2.1,.5-.7,0-1.5-.1-2.1-.5s-1-.7-1.3-1.3c-.4-.6-.5-1.2-.5-2.1V3.89h2.1v5.7c0,.6,.1,1.1,.5,1.5s.7,.6,1.2,.6c.7,0,1.2-.2,1.4-.6Z"/>
    <rect class="cls-1" x="31.6" y="11.19" width="2.3" height="2.3"/>
  </g>
  <g class="cls-2">
    <path class="cls-1" d="M65.77,8.94s0,.29-.02,.44c-.11,2.14-.22,3.05-.49,3.36-.2,.26-.4,.34-.71,.39-.27,.04-.7,.05-1.16,.03-.02-.35-.14-.81-.34-1.11,.42,.04,.8,.05,.99,.05,.15,0,.25-.02,.34-.11,.14-.15,.24-.72,.31-2.07h-1.75c.08-.82,.13-2.1,.12-3.12h1.62v-1.05h-1.77v-1.01h2.8v3.07h-1.69c0,.39-.02,.78-.04,1.14h1.78Zm5.58,1.42c-.43,.29-.87,.58-1.26,.8,.46,.43,.97,.78,1.52,1.02-.25,.22-.59,.64-.76,.92-1.32-.68-2.36-2.01-2.99-3.53h-.48v2.22l1.23-.35c0,.28,.02,.69,.07,.92-1.78,.56-2.09,.71-2.29,.87-.08-.25-.32-.69-.48-.9,.18-.12,.42-.36,.42-.78v-1.98h-.42v-.96h.58v-3.89h4.76v.88h-3.66v.46h3.28v.79h-3.28v.48h3.29v.79h-3.29v.48h3.81v.96h-2.52c.16,.34,.38,.66,.63,.98,.37-.27,.76-.62,1.01-.88l.84,.7Z"/>
    <path class="cls-1" d="M75.76,11.11c-.66,.82-1.79,1.51-2.93,1.82-.16-.28-.5-.71-.74-.93,1.06-.21,2.18-.68,2.75-1.24l.92,.34Zm-3.05-3.48c-.11-.22-.3-.48-.46-.61,1.67-.43,1.84-1.15,1.9-2.71h.99c-.02,.66-.08,1.22-.21,1.69,.44,.25,1,.61,1.31,.84l-.72,.69c-.22-.19-.63-.47-.99-.71-.27,.33-.64,.6-1.17,.81h3.52c-.11-.25-.32-.53-.5-.69,1.57-.44,1.74-1.18,1.81-2.62h1.02c-.03,.63-.08,1.16-.23,1.63,.6,.35,1.4,.84,1.83,1.15l-.54,.54h.43v1.67h-1.13v-.7h-5.9v.7h-1.08v-1.67h.13Zm.44-1.45c-.16-.27-.52-.69-.78-1l.67-.49c.26,.28,.63,.68,.81,.93l-.69,.56Zm4.03,4.32v2.66h-1.12v-2.66h-3.16v-.99h3.16v-.73h1.12v.73h3.24v.99h-3.24Zm-2.05-4.61c.2-.3,.45-.76,.56-1.08l.92,.3,.55-.41c.24,.26,.56,.62,.72,.84l-.68,.55c-.14-.22-.43-.58-.66-.85-.28,.34-.54,.67-.75,.92l-.67-.28Zm4.71,1.74c-.35-.26-.85-.57-1.28-.86-.28,.36-.67,.64-1.25,.86h2.54Zm-1.46,3.08c.86,.41,2.05,1.08,2.66,1.55l-.86,.71c-.54-.46-1.71-1.17-2.6-1.63l.8-.63Zm2.51-5.62c-.33,.39-.66,.79-.91,1.06l-.69-.29c.22-.31,.49-.77,.63-1.09l.98,.32Z"/>
    <path class="cls-1" d="M90.39,5.89c-.36,.32-.77,.63-1.12,.87,.42,.22,.87,.4,1.36,.53-.24,.22-.52,.62-.67,.89-.39-.12-.74-.28-1.08-.46v.82c0,.23,.02,.3,.14,.3h.47c.13,0,.36,0,.48-.05,.02,.23,.04,.55,.08,.77-.13,.05-.35,.06-.55,.06h-.59c-.8,0-.95-.32-.95-1.09v-.55h-.87c-.03,.66-.26,1.38-1.05,1.88-.1-.16-.38-.44-.57-.61v.29h-1.88c-.04,.22-.07,.45-.1,.66h1.98s0,.27-.02,.4c-.1,1.28-.22,1.89-.47,2.14-.2,.22-.43,.29-.76,.31-.26,.03-.75,.03-1.26,0-.02-.29-.15-.68-.32-.94,.47,.04,.94,.05,1.15,.05,.15,0,.26,0,.34-.09,.11-.1,.2-.41,.27-1.06h-2c.13-.62,.29-1.56,.37-2.31h1.68v-.67h-1.38v-.15c-.29,.14-.57,.27-.87,.37-.13-.25-.41-.63-.61-.83,.56-.16,1.1-.42,1.6-.73-.26-.19-.6-.41-.88-.57l.65-.6c.32,.16,.72,.39,1,.6,.2-.19,.39-.39,.55-.61h-1.87v-.88h2.48l.19-.05,.69,.34c-.38,.93-1.02,1.67-1.79,2.25h1.24v1.89c.59-.39,.68-.85,.68-1.27v-.68h1.81c-.83-.66-1.46-1.5-1.92-2.52l.9-.27c.14,.32,.32,.63,.54,.89,.31-.27,.66-.61,.89-.87l.81,.58c-.39,.32-.8,.66-1.16,.92,.16,.15,.33,.3,.5,.43,.36-.29,.8-.68,1.05-.99l.82,.58Zm-.69,4.2c-.24,.69-.59,1.25-1.05,1.69,.43,.24,.82,.48,1.1,.67l-.57,.75c-.32-.23-.78-.52-1.29-.83-.6,.37-1.33,.64-2.12,.82-.1-.25-.29-.61-.48-.82,.62-.1,1.2-.29,1.69-.53-.47-.26-.91-.51-1.32-.73l.38-.46h-.23v-.75h3.09l.17-.03,.62,.22Zm-3.16,.56c.4,.21,.84,.43,1.26,.67,.23-.2,.43-.42,.6-.67h-1.86Z"/>
    <path class="cls-1" d="M99.68,4.73V13.22h-1.12v-.4h-5.91v.4h-1.07V4.73h8.11Zm-1.12,7.09V5.74h-1.16c.29,.15,.61,.36,.78,.54l-.38,.4h.46v.8h-1.7c.05,.53,.11,1.03,.18,1.45,.19-.36,.33-.76,.45-1.19l.87,.17c-.23,.83-.57,1.56-1,2.18,.12,.29,.26,.48,.43,.51,.11,.03,.19-.34,.23-.89,.17,.17,.51,.43,.7,.53-.15,1.17-.65,1.53-1.27,1.24-.29-.1-.52-.31-.71-.63-.3,.3-.63,.58-.99,.81-.12-.17-.43-.53-.62-.68,.1-.06,.21-.12,.31-.19-.76,.11-1.51,.22-2.14,.32l-.11-.83c.69-.07,1.68-.19,2.67-.32l.02,.48c.17-.15,.32-.31,.47-.48-.2-.68-.32-1.55-.41-2.49h-2.64v-.8h2.58c-.02-.27-.03-.53-.05-.81h.93c.01,.28,.02,.54,.04,.81h1.03c-.2-.17-.48-.37-.73-.5l.44-.44h-4.58v6.07h5.91Zm-3.2-2.12h-2.12v-1.81h2.12v1.81Zm-.76-1.21h-.64v.61h.64v-.61Z"/>
    <path class="cls-1" d="M105.13,8.47c-.29,.32-.62,.6-.97,.82-.11-.18-.36-.48-.53-.66,.09,.33,.11,.64,.11,.9,0,.61-.11,1.02-.41,1.24-.13,.11-.3,.18-.5,.22-.16,.02-.37,.02-.57,0,0-.26-.1-.66-.25-.93,.16,.02,.29,.02,.38,0,.1,0,.18-.02,.25-.08,.1-.09,.15-.3,.15-.59,0-.45-.1-1.07-.6-1.75,.18-.58,.35-1.35,.5-1.97h-.69v7.48h-.97V4.69h2l.15-.04,.69,.39c-.1,.39-.23,.83-.36,1.24,.52-.51,.92-1.21,1.17-1.95l.83,.19c-.06,.16-.11,.32-.19,.48h.71l.15-.04,.56,.22-.04,.17,.48-.11v-.44h1.51l.18-.05,.61,.36c-.26,.78-.69,1.62-1.14,2.19,.36,.5,.82,.93,1.33,1.21-.21,.18-.49,.53-.64,.78-.43-.27-.79-.6-1.12-1v.58h-2.78v-.41Zm-.3-.98c.11-.14,.23-.31,.33-.48-.19-.18-.44-.39-.66-.58-.18,.26-.37,.48-.58,.67-.11-.11-.33-.3-.52-.45-.08,.31-.19,.63-.28,.9,.26,.37,.42,.72,.51,1.05,.37-.21,.7-.51,1.02-.87-.37,.07-.69,.12-1.05,.19l-.11-.69c.39-.03,.8-.08,1.32-.13l.02,.4Zm.75,3.61c-.35,.59-.87,1.3-1.28,1.74-.22-.18-.66-.45-.9-.58,.42-.39,.88-.97,1.17-1.49l1.02,.33Zm1.52-.67v2.74h-1.06v-2.74h-1.78v-.9h4.6v.9h-1.76Zm-2.14-4.69l-.07,.11c.2,.15,.42,.32,.6,.48,.08-.18,.16-.38,.23-.59h-.76Zm2.71,2.24c-.46-.64-.81-1.42-1.06-2.26-.25,.88-.61,1.64-1.07,2.26h2.14Zm-.21-2.42c.1,.32,.23,.63,.38,.92,.17-.28,.33-.6,.46-.92h-.84Zm.88,5.1c.41,.47,1.01,1.13,1.29,1.54l-.87,.55c-.26-.41-.84-1.1-1.24-1.61l.83-.48Z"/>
    <path class="cls-1" d="M115.46,4.6c-.05,.06-.1,.11-.14,.17,.87,.77,2.43,1.41,3.94,1.72-.24,.19-.56,.59-.71,.86-.19-.05-.39-.11-.59-.17v2.45h-6.6v-2.4c-.2,.07-.4,.13-.59,.19-.11-.22-.42-.68-.61-.86,1.75-.43,3.45-1.22,4.3-2.32l1,.36Zm2.16,2.45c-.45-.16-.87-.36-1.29-.58v.25h-3.34v-.19c-.37,.19-.75,.37-1.15,.52h5.78Zm-5.73,2.89h5.59v3.21h-1.16v-.23h-3.32v.26h-1.11v-3.24Zm1.07-1c-.05-.29-.17-.68-.32-.99l.73-.21h-1.08v1.2h.67Zm.04,1.74v.38h3.32v-.38h-3.32Zm3.32,1.5v-.38h-3.32v.38h3.32Zm-2.16-4.44h-.74c.17,.32,.32,.73,.38,1.01l-.61,.19h.97v-1.2Zm1.37-1.76c-.28-.2-.56-.41-.8-.62-.25,.21-.52,.42-.81,.62h1.61Zm-.46,1.76v1.2h.88l-.57-.16c.13-.28,.29-.72,.37-1.04h-.68Zm1.88,0h-.99l.74,.18c-.19,.38-.37,.75-.52,1.02h.77v-1.2Z"/>
    <path class="cls-1" d="M122.84,6.79h-3.1v-.88h1.32c-.09-.35-.28-.86-.48-1.25l.81-.3c.22,.39,.46,.94,.54,1.26l-.69,.29h1.6v.88Zm-.26,5.88h-1.75v.4h-.8v-3.25h2.55v2.85Zm-2.51-5.45h2.53v.86h-2.53v-.86Zm0,1.29h2.53v.85h-2.53v-.85Zm.76,2.18v1.12h.94v-1.12h-.94Zm7.33,.28c-.24,.38-.55,.73-.91,1.04,.14,.24,.31,.36,.5,.36,.14,0,.24-.25,.27-.76,.18,.17,.45,.3,.65,.39-.13,.91-.44,1.24-1.02,1.24-.48,0-.86-.25-1.13-.67-.31,.21-.65,.38-.97,.52-.1-.17-.35-.44-.53-.59,.41-.16,.81-.39,1.19-.65-.12-.4-.22-.85-.29-1.37h-.92v.36l.76-.08,.02,.8-.78,.09v.64c0,.44-.08,.64-.38,.77-.29,.12-.7,.13-1.26,.13-.04-.24-.16-.57-.28-.8,.32,0,.69,0,.79,0,.11,0,.15-.04,.15-.14v-.48c-.41,.05-.79,.09-1.14,.13l-.1-.87c.36-.03,.78-.07,1.24-.11v-.46h-1.19v-.82h1.19v-.41c-.3,.04-.6,.06-.88,.08-.03-.19-.13-.48-.22-.66,.8-.08,1.75-.22,2.31-.4l.58,.67c-.01-.18-.02-.36-.02-.53h.94c0,.45,.01,.87,.03,1.25h.98c-.19-.27-.57-.63-.9-.86l.65-.45c.36,.24,.78,.61,.97,.87l-.62,.44h.67v.82h-1.66c.03,.27,.08,.49,.12,.7,.17-.19,.33-.38,.45-.59l.76,.37Zm.35-2.76h-5.67v-.81h2.29v-.39h-1.69v-.7h1.69v-.36h-2v-.75h1.04c-.11-.2-.23-.42-.36-.59l.8-.29c.21,.27,.44,.63,.54,.87h1.17c.16-.27,.35-.62,.43-.87l.99,.25c-.14,.22-.3,.44-.45,.63h1.03v.75h-2.1v.36h1.81v.7h-1.81v.39h2.29v.81Zm-2.67,1.45c-.02-.24-.03-.47-.04-.72-.25,.07-.51,.13-.81,.18v.54h.85Z"/>
    <path class="cls-1" d="M137.59,5.96v4.74h-1.19v-.48h-2.15v2.97h-1.2v-2.97h-2.14v.52h-1.14V5.96h3.28v-1.64h1.2v1.64h3.34Zm-4.53,3.16v-2.04h-2.14v2.04h2.14Zm3.34,0v-2.04h-2.15v2.04h2.15Z"/>
    <path class="cls-1" d="M140.63,7.8c-.13,1.23-.37,2.87-.69,3.94l-1.14-.46c.33-1.01,.61-2.43,.73-3.7l1.1,.21Zm1.79-.77v4.41c0,.45,.08,.52,.53,.52h1.36c.47,0,.56-.3,.63-1.79,.27,.2,.75,.4,1.06,.48-.13,1.81-.44,2.37-1.6,2.37h-1.59c-1.23,0-1.58-.38-1.58-1.58V7.03h1.18Zm-.08-2.56c.86,.54,2.06,1.38,2.63,1.97l-.84,.88c-.51-.58-1.68-1.48-2.57-2.08l.77-.77Zm4.14,2.81c.53,1.13,1.03,2.56,1.23,3.54l-1.15,.48c-.14-.97-.64-2.47-1.13-3.58l1.05-.43Z"/>
  </g>
</svg>